M48
; DRILL file KiCad 10.0.2-rc1-1000.20260504git0b48b87.fc43 date 2026-05-05T23:00:29
; FORMAT={-:-/ absolute / metric / decimal}
; #@! TF.CreationDate,2026-05-05T23:00:29-06:00
; #@! TF.GenerationSoftware,Kicad,Pcbnew,10.0.2-rc1-1000.20260504git0b48b87.fc43
; #@! TF.FileFunction,Plated,1,2,PTH
FMAT,2
METRIC
; #@! TA.AperFunction,Plated,PTH,ViaDrill
T1C0.300
; #@! TA.AperFunction,Plated,PTH,ComponentDrill
T2C0.600
; #@! TA.AperFunction,Plated,PTH,ComponentDrill
T3C0.950
; #@! TA.AperFunction,Plated,PTH,ComponentDrill
T4C1.000
%
G90
G05
T1
X103.621Y-102.417
X105.543Y-78.063
X108.591Y-86.699
X108.591Y-93.303
X109.353Y-100.923
X109.821Y-85.317
X109.861Y-90.001
X113.471Y-81.467
X113.721Y-92.967
X115.703Y-66.887
X115.771Y-83.517
X116.771Y-97.717
X116.771Y-100.667
X116.821Y-77.217
X117.121Y-82.167
X117.71Y-73.917
X118.321Y-83.267
X119.821Y-84.217
X120.271Y-73.867
X120.351Y-78.952
X120.351Y-81.162
X120.371Y-77.167
X121.171Y-95.167
X122.271Y-75.167
X122.307Y-104.225
X122.321Y-91.067
X124.021Y-72.617
X124.237Y-59.927
X126.117Y-83.651
X126.221Y-76.667
X127.641Y-83.651
X132.492Y-92.033
X132.721Y-83.651
X133.737Y-86.191
X134.626Y-65.21
X134.651Y-74.126
X134.753Y-95.843
X135.471Y-103.417
X136.271Y-80.017
X136.394Y-94.367
X137.547Y-87.207
X137.648Y-94.367
X137.971Y-108.092
X138.621Y-103.417
X138.817Y-58.917
X138.871Y-64.467
X138.871Y-66.567
X138.918Y-73.034
X139.021Y-85.617
X139.121Y-83.867
X140.341Y-87.207
X140.849Y-99.907
X141.071Y-103.367
X141.103Y-66.517
X141.204Y-73.008
X141.221Y-64.417
X141.271Y-58.917
X141.571Y-92.417
X142.871Y-91.917
X143.971Y-73.517
X145.021Y-74.517
X145.771Y-88.567
X146.437Y-97.875
X146.621Y-61.553
X146.771Y-75.74
X146.771Y-78.967
X146.771Y-81.567
X149.621Y-75.159
X149.621Y-81.617
X150.921Y-77.634
X150.921Y-86.467
X151.321Y-103.367
X151.421Y-92.467
X152.571Y-102.167
X152.771Y-75.717
X153.271Y-77.567
X154.021Y-73.217
X155.621Y-73.217
X156.721Y-83.651
X160.321Y-75.717
X160.321Y-76.567
X160.321Y-79.567
X160.371Y-80.267
X160.915Y-83.651
X162.721Y-87.067
T3
X109.254Y-102.413
X111.754Y-102.413
X113.337Y-65.425
X114.254Y-102.413
X115.837Y-65.425
X116.754Y-102.413
X118.337Y-65.425
X120.837Y-65.425
X123.337Y-65.425
T4
X103.397Y-98.781
X103.397Y-101.321
X103.397Y-103.861
X103.397Y-106.401
X105.404Y-69.215
X105.404Y-71.755
X105.404Y-74.295
X105.404Y-76.835
X107.944Y-69.215
X107.944Y-71.755
X107.944Y-74.295
X107.944Y-76.835
X134.512Y-107.366
X137.052Y-107.366
X139.592Y-107.366
X142.132Y-107.366
X144.672Y-107.366
X147.212Y-107.366
X147.999Y-61.443
X149.752Y-107.366
X150.499Y-61.443
X152.292Y-107.366
X158.794Y-60.731
X158.916Y-104.961
X161.294Y-60.731
X161.416Y-104.961
T2
G00X102.996Y-85.664
M15
G01X102.396Y-85.664
M16
G05
G00X102.996Y-94.304
M15
G01X102.396Y-94.304
M16
G05
G00X107.426Y-85.664
M15
G01X106.326Y-85.664
M16
G05
G00X107.426Y-94.304
M15
G01X106.326Y-94.304
M16
G05
M30
