%TF.GenerationSoftware,KiCad,Pcbnew,10.0.1-unknown-1000.20260429git0b8d3f0.fc43*%
%TF.CreationDate,2026-05-05T11:43:54-06:00*%
%TF.ProjectId,2026_12_2Wheel_Balance_Robot_v1,32303236-5f31-4325-9f32-576865656c5f,rev?*%
%TF.SameCoordinates,Original*%
%TF.FileFunction,Legend,Top*%
%TF.FilePolarity,Positive*%
%FSLAX46Y46*%
G04 Gerber Fmt 4.6, Leading zero omitted, Abs format (unit mm)*
G04 Created by KiCad (PCBNEW 10.0.1-unknown-1000.20260429git0b8d3f0.fc43) date 2026-05-05 11:43:54*
%MOMM*%
%LPD*%
G01*
G04 APERTURE LIST*
%ADD10C,0.200000*%
%ADD11C,0.125000*%
%ADD12C,0.150000*%
%ADD13C,0.254000*%
%ADD14C,0.120000*%
%ADD15C,0.127000*%
%ADD16C,0.100000*%
%ADD17C,0.000000*%
G04 APERTURE END LIST*
D10*
X109590573Y-97460209D02*
X109923906Y-97460209D01*
X110066763Y-97984019D02*
X109590573Y-97984019D01*
X109590573Y-97984019D02*
X109590573Y-96984019D01*
X109590573Y-96984019D02*
X110066763Y-96984019D01*
X110495335Y-97984019D02*
X110495335Y-96984019D01*
X110495335Y-96984019D02*
X111066763Y-97984019D01*
X111066763Y-97984019D02*
X111066763Y-96984019D01*
X112114382Y-97888780D02*
X112066763Y-97936400D01*
X112066763Y-97936400D02*
X111923906Y-97984019D01*
X111923906Y-97984019D02*
X111828668Y-97984019D01*
X111828668Y-97984019D02*
X111685811Y-97936400D01*
X111685811Y-97936400D02*
X111590573Y-97841161D01*
X111590573Y-97841161D02*
X111542954Y-97745923D01*
X111542954Y-97745923D02*
X111495335Y-97555447D01*
X111495335Y-97555447D02*
X111495335Y-97412590D01*
X111495335Y-97412590D02*
X111542954Y-97222114D01*
X111542954Y-97222114D02*
X111590573Y-97126876D01*
X111590573Y-97126876D02*
X111685811Y-97031638D01*
X111685811Y-97031638D02*
X111828668Y-96984019D01*
X111828668Y-96984019D02*
X111923906Y-96984019D01*
X111923906Y-96984019D02*
X112066763Y-97031638D01*
X112066763Y-97031638D02*
X112114382Y-97079257D01*
X112733430Y-96984019D02*
X112923906Y-96984019D01*
X112923906Y-96984019D02*
X113019144Y-97031638D01*
X113019144Y-97031638D02*
X113114382Y-97126876D01*
X113114382Y-97126876D02*
X113162001Y-97317352D01*
X113162001Y-97317352D02*
X113162001Y-97650685D01*
X113162001Y-97650685D02*
X113114382Y-97841161D01*
X113114382Y-97841161D02*
X113019144Y-97936400D01*
X113019144Y-97936400D02*
X112923906Y-97984019D01*
X112923906Y-97984019D02*
X112733430Y-97984019D01*
X112733430Y-97984019D02*
X112638192Y-97936400D01*
X112638192Y-97936400D02*
X112542954Y-97841161D01*
X112542954Y-97841161D02*
X112495335Y-97650685D01*
X112495335Y-97650685D02*
X112495335Y-97317352D01*
X112495335Y-97317352D02*
X112542954Y-97126876D01*
X112542954Y-97126876D02*
X112638192Y-97031638D01*
X112638192Y-97031638D02*
X112733430Y-96984019D01*
X113590573Y-97984019D02*
X113590573Y-96984019D01*
X113590573Y-96984019D02*
X113828668Y-96984019D01*
X113828668Y-96984019D02*
X113971525Y-97031638D01*
X113971525Y-97031638D02*
X114066763Y-97126876D01*
X114066763Y-97126876D02*
X114114382Y-97222114D01*
X114114382Y-97222114D02*
X114162001Y-97412590D01*
X114162001Y-97412590D02*
X114162001Y-97555447D01*
X114162001Y-97555447D02*
X114114382Y-97745923D01*
X114114382Y-97745923D02*
X114066763Y-97841161D01*
X114066763Y-97841161D02*
X113971525Y-97936400D01*
X113971525Y-97936400D02*
X113828668Y-97984019D01*
X113828668Y-97984019D02*
X113590573Y-97984019D01*
X114590573Y-97460209D02*
X114923906Y-97460209D01*
X115066763Y-97984019D02*
X114590573Y-97984019D01*
X114590573Y-97984019D02*
X114590573Y-96984019D01*
X114590573Y-96984019D02*
X115066763Y-96984019D01*
X116066763Y-97984019D02*
X115733430Y-97507828D01*
X115495335Y-97984019D02*
X115495335Y-96984019D01*
X115495335Y-96984019D02*
X115876287Y-96984019D01*
X115876287Y-96984019D02*
X115971525Y-97031638D01*
X115971525Y-97031638D02*
X116019144Y-97079257D01*
X116019144Y-97079257D02*
X116066763Y-97174495D01*
X116066763Y-97174495D02*
X116066763Y-97317352D01*
X116066763Y-97317352D02*
X116019144Y-97412590D01*
X116019144Y-97412590D02*
X115971525Y-97460209D01*
X115971525Y-97460209D02*
X115876287Y-97507828D01*
X115876287Y-97507828D02*
X115495335Y-97507828D01*
X102142954Y-96586400D02*
X102285811Y-96634019D01*
X102285811Y-96634019D02*
X102523906Y-96634019D01*
X102523906Y-96634019D02*
X102619144Y-96586400D01*
X102619144Y-96586400D02*
X102666763Y-96538780D01*
X102666763Y-96538780D02*
X102714382Y-96443542D01*
X102714382Y-96443542D02*
X102714382Y-96348304D01*
X102714382Y-96348304D02*
X102666763Y-96253066D01*
X102666763Y-96253066D02*
X102619144Y-96205447D01*
X102619144Y-96205447D02*
X102523906Y-96157828D01*
X102523906Y-96157828D02*
X102333430Y-96110209D01*
X102333430Y-96110209D02*
X102238192Y-96062590D01*
X102238192Y-96062590D02*
X102190573Y-96014971D01*
X102190573Y-96014971D02*
X102142954Y-95919733D01*
X102142954Y-95919733D02*
X102142954Y-95824495D01*
X102142954Y-95824495D02*
X102190573Y-95729257D01*
X102190573Y-95729257D02*
X102238192Y-95681638D01*
X102238192Y-95681638D02*
X102333430Y-95634019D01*
X102333430Y-95634019D02*
X102571525Y-95634019D01*
X102571525Y-95634019D02*
X102714382Y-95681638D01*
X103047716Y-95634019D02*
X103285811Y-96634019D01*
X103285811Y-96634019D02*
X103476287Y-95919733D01*
X103476287Y-95919733D02*
X103666763Y-96634019D01*
X103666763Y-96634019D02*
X103904859Y-95634019D01*
X104285811Y-96634019D02*
X104285811Y-95634019D01*
X104285811Y-95634019D02*
X104523906Y-95634019D01*
X104523906Y-95634019D02*
X104666763Y-95681638D01*
X104666763Y-95681638D02*
X104762001Y-95776876D01*
X104762001Y-95776876D02*
X104809620Y-95872114D01*
X104809620Y-95872114D02*
X104857239Y-96062590D01*
X104857239Y-96062590D02*
X104857239Y-96205447D01*
X104857239Y-96205447D02*
X104809620Y-96395923D01*
X104809620Y-96395923D02*
X104762001Y-96491161D01*
X104762001Y-96491161D02*
X104666763Y-96586400D01*
X104666763Y-96586400D02*
X104523906Y-96634019D01*
X104523906Y-96634019D02*
X104285811Y-96634019D01*
X102614309Y-76197126D02*
X102614309Y-75863793D01*
X103138119Y-75720936D02*
X103138119Y-76197126D01*
X103138119Y-76197126D02*
X102138119Y-76197126D01*
X102138119Y-76197126D02*
X102138119Y-75720936D01*
X103090500Y-75339983D02*
X103138119Y-75197126D01*
X103138119Y-75197126D02*
X103138119Y-74959031D01*
X103138119Y-74959031D02*
X103090500Y-74863793D01*
X103090500Y-74863793D02*
X103042880Y-74816174D01*
X103042880Y-74816174D02*
X102947642Y-74768555D01*
X102947642Y-74768555D02*
X102852404Y-74768555D01*
X102852404Y-74768555D02*
X102757166Y-74816174D01*
X102757166Y-74816174D02*
X102709547Y-74863793D01*
X102709547Y-74863793D02*
X102661928Y-74959031D01*
X102661928Y-74959031D02*
X102614309Y-75149507D01*
X102614309Y-75149507D02*
X102566690Y-75244745D01*
X102566690Y-75244745D02*
X102519071Y-75292364D01*
X102519071Y-75292364D02*
X102423833Y-75339983D01*
X102423833Y-75339983D02*
X102328595Y-75339983D01*
X102328595Y-75339983D02*
X102233357Y-75292364D01*
X102233357Y-75292364D02*
X102185738Y-75244745D01*
X102185738Y-75244745D02*
X102138119Y-75149507D01*
X102138119Y-75149507D02*
X102138119Y-74911412D01*
X102138119Y-74911412D02*
X102185738Y-74768555D01*
X103138119Y-74339983D02*
X102138119Y-74339983D01*
X102138119Y-74339983D02*
X102138119Y-73959031D01*
X102138119Y-73959031D02*
X102185738Y-73863793D01*
X102185738Y-73863793D02*
X102233357Y-73816174D01*
X102233357Y-73816174D02*
X102328595Y-73768555D01*
X102328595Y-73768555D02*
X102471452Y-73768555D01*
X102471452Y-73768555D02*
X102566690Y-73816174D01*
X102566690Y-73816174D02*
X102614309Y-73863793D01*
X102614309Y-73863793D02*
X102661928Y-73959031D01*
X102661928Y-73959031D02*
X102661928Y-74339983D01*
X103042880Y-72006650D02*
X103090500Y-72054269D01*
X103090500Y-72054269D02*
X103138119Y-72197126D01*
X103138119Y-72197126D02*
X103138119Y-72292364D01*
X103138119Y-72292364D02*
X103090500Y-72435221D01*
X103090500Y-72435221D02*
X102995261Y-72530459D01*
X102995261Y-72530459D02*
X102900023Y-72578078D01*
X102900023Y-72578078D02*
X102709547Y-72625697D01*
X102709547Y-72625697D02*
X102566690Y-72625697D01*
X102566690Y-72625697D02*
X102376214Y-72578078D01*
X102376214Y-72578078D02*
X102280976Y-72530459D01*
X102280976Y-72530459D02*
X102185738Y-72435221D01*
X102185738Y-72435221D02*
X102138119Y-72292364D01*
X102138119Y-72292364D02*
X102138119Y-72197126D01*
X102138119Y-72197126D02*
X102185738Y-72054269D01*
X102185738Y-72054269D02*
X102233357Y-72006650D01*
X102138119Y-71387602D02*
X102138119Y-71197126D01*
X102138119Y-71197126D02*
X102185738Y-71101888D01*
X102185738Y-71101888D02*
X102280976Y-71006650D01*
X102280976Y-71006650D02*
X102471452Y-70959031D01*
X102471452Y-70959031D02*
X102804785Y-70959031D01*
X102804785Y-70959031D02*
X102995261Y-71006650D01*
X102995261Y-71006650D02*
X103090500Y-71101888D01*
X103090500Y-71101888D02*
X103138119Y-71197126D01*
X103138119Y-71197126D02*
X103138119Y-71387602D01*
X103138119Y-71387602D02*
X103090500Y-71482840D01*
X103090500Y-71482840D02*
X102995261Y-71578078D01*
X102995261Y-71578078D02*
X102804785Y-71625697D01*
X102804785Y-71625697D02*
X102471452Y-71625697D01*
X102471452Y-71625697D02*
X102280976Y-71578078D01*
X102280976Y-71578078D02*
X102185738Y-71482840D01*
X102185738Y-71482840D02*
X102138119Y-71387602D01*
X103138119Y-70530459D02*
X102138119Y-70530459D01*
X102138119Y-70530459D02*
X103138119Y-69959031D01*
X103138119Y-69959031D02*
X102138119Y-69959031D01*
X103138119Y-69482840D02*
X102138119Y-69482840D01*
X102138119Y-69482840D02*
X103138119Y-68911412D01*
X103138119Y-68911412D02*
X102138119Y-68911412D01*
X113640573Y-62184019D02*
X113640573Y-61184019D01*
X113640573Y-61184019D02*
X113973906Y-61898304D01*
X113973906Y-61898304D02*
X114307239Y-61184019D01*
X114307239Y-61184019D02*
X114307239Y-62184019D01*
X114640573Y-61184019D02*
X115212001Y-61184019D01*
X114926287Y-62184019D02*
X114926287Y-61184019D01*
X115973906Y-61184019D02*
X115783430Y-61184019D01*
X115783430Y-61184019D02*
X115688192Y-61231638D01*
X115688192Y-61231638D02*
X115640573Y-61279257D01*
X115640573Y-61279257D02*
X115545335Y-61422114D01*
X115545335Y-61422114D02*
X115497716Y-61612590D01*
X115497716Y-61612590D02*
X115497716Y-61993542D01*
X115497716Y-61993542D02*
X115545335Y-62088780D01*
X115545335Y-62088780D02*
X115592954Y-62136400D01*
X115592954Y-62136400D02*
X115688192Y-62184019D01*
X115688192Y-62184019D02*
X115878668Y-62184019D01*
X115878668Y-62184019D02*
X115973906Y-62136400D01*
X115973906Y-62136400D02*
X116021525Y-62088780D01*
X116021525Y-62088780D02*
X116069144Y-61993542D01*
X116069144Y-61993542D02*
X116069144Y-61755447D01*
X116069144Y-61755447D02*
X116021525Y-61660209D01*
X116021525Y-61660209D02*
X115973906Y-61612590D01*
X115973906Y-61612590D02*
X115878668Y-61564971D01*
X115878668Y-61564971D02*
X115688192Y-61564971D01*
X115688192Y-61564971D02*
X115592954Y-61612590D01*
X115592954Y-61612590D02*
X115545335Y-61660209D01*
X115545335Y-61660209D02*
X115497716Y-61755447D01*
X116402478Y-61184019D02*
X117069144Y-61184019D01*
X117069144Y-61184019D02*
X116640573Y-62184019D01*
X117640573Y-61184019D02*
X117735811Y-61184019D01*
X117735811Y-61184019D02*
X117831049Y-61231638D01*
X117831049Y-61231638D02*
X117878668Y-61279257D01*
X117878668Y-61279257D02*
X117926287Y-61374495D01*
X117926287Y-61374495D02*
X117973906Y-61564971D01*
X117973906Y-61564971D02*
X117973906Y-61803066D01*
X117973906Y-61803066D02*
X117926287Y-61993542D01*
X117926287Y-61993542D02*
X117878668Y-62088780D01*
X117878668Y-62088780D02*
X117831049Y-62136400D01*
X117831049Y-62136400D02*
X117735811Y-62184019D01*
X117735811Y-62184019D02*
X117640573Y-62184019D01*
X117640573Y-62184019D02*
X117545335Y-62136400D01*
X117545335Y-62136400D02*
X117497716Y-62088780D01*
X117497716Y-62088780D02*
X117450097Y-61993542D01*
X117450097Y-61993542D02*
X117402478Y-61803066D01*
X117402478Y-61803066D02*
X117402478Y-61564971D01*
X117402478Y-61564971D02*
X117450097Y-61374495D01*
X117450097Y-61374495D02*
X117497716Y-61279257D01*
X117497716Y-61279257D02*
X117545335Y-61231638D01*
X117545335Y-61231638D02*
X117640573Y-61184019D01*
X118926287Y-62184019D02*
X118354859Y-62184019D01*
X118640573Y-62184019D02*
X118640573Y-61184019D01*
X118640573Y-61184019D02*
X118545335Y-61326876D01*
X118545335Y-61326876D02*
X118450097Y-61422114D01*
X118450097Y-61422114D02*
X118354859Y-61469733D01*
X120688192Y-62088780D02*
X120640573Y-62136400D01*
X120640573Y-62136400D02*
X120497716Y-62184019D01*
X120497716Y-62184019D02*
X120402478Y-62184019D01*
X120402478Y-62184019D02*
X120259621Y-62136400D01*
X120259621Y-62136400D02*
X120164383Y-62041161D01*
X120164383Y-62041161D02*
X120116764Y-61945923D01*
X120116764Y-61945923D02*
X120069145Y-61755447D01*
X120069145Y-61755447D02*
X120069145Y-61612590D01*
X120069145Y-61612590D02*
X120116764Y-61422114D01*
X120116764Y-61422114D02*
X120164383Y-61326876D01*
X120164383Y-61326876D02*
X120259621Y-61231638D01*
X120259621Y-61231638D02*
X120402478Y-61184019D01*
X120402478Y-61184019D02*
X120497716Y-61184019D01*
X120497716Y-61184019D02*
X120640573Y-61231638D01*
X120640573Y-61231638D02*
X120688192Y-61279257D01*
X121307240Y-61184019D02*
X121497716Y-61184019D01*
X121497716Y-61184019D02*
X121592954Y-61231638D01*
X121592954Y-61231638D02*
X121688192Y-61326876D01*
X121688192Y-61326876D02*
X121735811Y-61517352D01*
X121735811Y-61517352D02*
X121735811Y-61850685D01*
X121735811Y-61850685D02*
X121688192Y-62041161D01*
X121688192Y-62041161D02*
X121592954Y-62136400D01*
X121592954Y-62136400D02*
X121497716Y-62184019D01*
X121497716Y-62184019D02*
X121307240Y-62184019D01*
X121307240Y-62184019D02*
X121212002Y-62136400D01*
X121212002Y-62136400D02*
X121116764Y-62041161D01*
X121116764Y-62041161D02*
X121069145Y-61850685D01*
X121069145Y-61850685D02*
X121069145Y-61517352D01*
X121069145Y-61517352D02*
X121116764Y-61326876D01*
X121116764Y-61326876D02*
X121212002Y-61231638D01*
X121212002Y-61231638D02*
X121307240Y-61184019D01*
X122164383Y-62184019D02*
X122164383Y-61184019D01*
X122164383Y-61184019D02*
X122735811Y-62184019D01*
X122735811Y-62184019D02*
X122735811Y-61184019D01*
X123212002Y-62184019D02*
X123212002Y-61184019D01*
X123212002Y-61184019D02*
X123783430Y-62184019D01*
X123783430Y-62184019D02*
X123783430Y-61184019D01*
X154477490Y-57719806D02*
X154429871Y-57862663D01*
X154429871Y-57862663D02*
X154382252Y-57910282D01*
X154382252Y-57910282D02*
X154287014Y-57957901D01*
X154287014Y-57957901D02*
X154144157Y-57957901D01*
X154144157Y-57957901D02*
X154048919Y-57910282D01*
X154048919Y-57910282D02*
X154001300Y-57862663D01*
X154001300Y-57862663D02*
X153953680Y-57767425D01*
X153953680Y-57767425D02*
X153953680Y-57386473D01*
X153953680Y-57386473D02*
X154953680Y-57386473D01*
X154953680Y-57386473D02*
X154953680Y-57719806D01*
X154953680Y-57719806D02*
X154906061Y-57815044D01*
X154906061Y-57815044D02*
X154858442Y-57862663D01*
X154858442Y-57862663D02*
X154763204Y-57910282D01*
X154763204Y-57910282D02*
X154667966Y-57910282D01*
X154667966Y-57910282D02*
X154572728Y-57862663D01*
X154572728Y-57862663D02*
X154525109Y-57815044D01*
X154525109Y-57815044D02*
X154477490Y-57719806D01*
X154477490Y-57719806D02*
X154477490Y-57386473D01*
X154239395Y-58338854D02*
X154239395Y-58815044D01*
X153953680Y-58243616D02*
X154953680Y-58576949D01*
X154953680Y-58576949D02*
X153953680Y-58910282D01*
X154953680Y-59100759D02*
X154953680Y-59672187D01*
X153953680Y-59386473D02*
X154953680Y-59386473D01*
X154953680Y-59862664D02*
X154953680Y-60434092D01*
X153953680Y-60148378D02*
X154953680Y-60148378D01*
X154048919Y-62100759D02*
X154001300Y-62053140D01*
X154001300Y-62053140D02*
X153953680Y-61910283D01*
X153953680Y-61910283D02*
X153953680Y-61815045D01*
X153953680Y-61815045D02*
X154001300Y-61672188D01*
X154001300Y-61672188D02*
X154096538Y-61576950D01*
X154096538Y-61576950D02*
X154191776Y-61529331D01*
X154191776Y-61529331D02*
X154382252Y-61481712D01*
X154382252Y-61481712D02*
X154525109Y-61481712D01*
X154525109Y-61481712D02*
X154715585Y-61529331D01*
X154715585Y-61529331D02*
X154810823Y-61576950D01*
X154810823Y-61576950D02*
X154906061Y-61672188D01*
X154906061Y-61672188D02*
X154953680Y-61815045D01*
X154953680Y-61815045D02*
X154953680Y-61910283D01*
X154953680Y-61910283D02*
X154906061Y-62053140D01*
X154906061Y-62053140D02*
X154858442Y-62100759D01*
X154953680Y-62719807D02*
X154953680Y-62910283D01*
X154953680Y-62910283D02*
X154906061Y-63005521D01*
X154906061Y-63005521D02*
X154810823Y-63100759D01*
X154810823Y-63100759D02*
X154620347Y-63148378D01*
X154620347Y-63148378D02*
X154287014Y-63148378D01*
X154287014Y-63148378D02*
X154096538Y-63100759D01*
X154096538Y-63100759D02*
X154001300Y-63005521D01*
X154001300Y-63005521D02*
X153953680Y-62910283D01*
X153953680Y-62910283D02*
X153953680Y-62719807D01*
X153953680Y-62719807D02*
X154001300Y-62624569D01*
X154001300Y-62624569D02*
X154096538Y-62529331D01*
X154096538Y-62529331D02*
X154287014Y-62481712D01*
X154287014Y-62481712D02*
X154620347Y-62481712D01*
X154620347Y-62481712D02*
X154810823Y-62529331D01*
X154810823Y-62529331D02*
X154906061Y-62624569D01*
X154906061Y-62624569D02*
X154953680Y-62719807D01*
X153953680Y-63576950D02*
X154953680Y-63576950D01*
X154953680Y-63576950D02*
X153953680Y-64148378D01*
X153953680Y-64148378D02*
X154953680Y-64148378D01*
X153953680Y-64624569D02*
X154953680Y-64624569D01*
X154953680Y-64624569D02*
X153953680Y-65195997D01*
X153953680Y-65195997D02*
X154953680Y-65195997D01*
X164653680Y-57436473D02*
X165653680Y-57436473D01*
X165653680Y-57436473D02*
X164939395Y-57769806D01*
X164939395Y-57769806D02*
X165653680Y-58103139D01*
X165653680Y-58103139D02*
X164653680Y-58103139D01*
X165653680Y-58769806D02*
X165653680Y-58960282D01*
X165653680Y-58960282D02*
X165606061Y-59055520D01*
X165606061Y-59055520D02*
X165510823Y-59150758D01*
X165510823Y-59150758D02*
X165320347Y-59198377D01*
X165320347Y-59198377D02*
X164987014Y-59198377D01*
X164987014Y-59198377D02*
X164796538Y-59150758D01*
X164796538Y-59150758D02*
X164701300Y-59055520D01*
X164701300Y-59055520D02*
X164653680Y-58960282D01*
X164653680Y-58960282D02*
X164653680Y-58769806D01*
X164653680Y-58769806D02*
X164701300Y-58674568D01*
X164701300Y-58674568D02*
X164796538Y-58579330D01*
X164796538Y-58579330D02*
X164987014Y-58531711D01*
X164987014Y-58531711D02*
X165320347Y-58531711D01*
X165320347Y-58531711D02*
X165510823Y-58579330D01*
X165510823Y-58579330D02*
X165606061Y-58674568D01*
X165606061Y-58674568D02*
X165653680Y-58769806D01*
X165653680Y-59484092D02*
X165653680Y-60055520D01*
X164653680Y-59769806D02*
X165653680Y-59769806D01*
X165653680Y-60579330D02*
X165653680Y-60769806D01*
X165653680Y-60769806D02*
X165606061Y-60865044D01*
X165606061Y-60865044D02*
X165510823Y-60960282D01*
X165510823Y-60960282D02*
X165320347Y-61007901D01*
X165320347Y-61007901D02*
X164987014Y-61007901D01*
X164987014Y-61007901D02*
X164796538Y-60960282D01*
X164796538Y-60960282D02*
X164701300Y-60865044D01*
X164701300Y-60865044D02*
X164653680Y-60769806D01*
X164653680Y-60769806D02*
X164653680Y-60579330D01*
X164653680Y-60579330D02*
X164701300Y-60484092D01*
X164701300Y-60484092D02*
X164796538Y-60388854D01*
X164796538Y-60388854D02*
X164987014Y-60341235D01*
X164987014Y-60341235D02*
X165320347Y-60341235D01*
X165320347Y-60341235D02*
X165510823Y-60388854D01*
X165510823Y-60388854D02*
X165606061Y-60484092D01*
X165606061Y-60484092D02*
X165653680Y-60579330D01*
X164653680Y-62007901D02*
X165129871Y-61674568D01*
X164653680Y-61436473D02*
X165653680Y-61436473D01*
X165653680Y-61436473D02*
X165653680Y-61817425D01*
X165653680Y-61817425D02*
X165606061Y-61912663D01*
X165606061Y-61912663D02*
X165558442Y-61960282D01*
X165558442Y-61960282D02*
X165463204Y-62007901D01*
X165463204Y-62007901D02*
X165320347Y-62007901D01*
X165320347Y-62007901D02*
X165225109Y-61960282D01*
X165225109Y-61960282D02*
X165177490Y-61912663D01*
X165177490Y-61912663D02*
X165129871Y-61817425D01*
X165129871Y-61817425D02*
X165129871Y-61436473D01*
X164748919Y-63769806D02*
X164701300Y-63722187D01*
X164701300Y-63722187D02*
X164653680Y-63579330D01*
X164653680Y-63579330D02*
X164653680Y-63484092D01*
X164653680Y-63484092D02*
X164701300Y-63341235D01*
X164701300Y-63341235D02*
X164796538Y-63245997D01*
X164796538Y-63245997D02*
X164891776Y-63198378D01*
X164891776Y-63198378D02*
X165082252Y-63150759D01*
X165082252Y-63150759D02*
X165225109Y-63150759D01*
X165225109Y-63150759D02*
X165415585Y-63198378D01*
X165415585Y-63198378D02*
X165510823Y-63245997D01*
X165510823Y-63245997D02*
X165606061Y-63341235D01*
X165606061Y-63341235D02*
X165653680Y-63484092D01*
X165653680Y-63484092D02*
X165653680Y-63579330D01*
X165653680Y-63579330D02*
X165606061Y-63722187D01*
X165606061Y-63722187D02*
X165558442Y-63769806D01*
X165653680Y-64388854D02*
X165653680Y-64579330D01*
X165653680Y-64579330D02*
X165606061Y-64674568D01*
X165606061Y-64674568D02*
X165510823Y-64769806D01*
X165510823Y-64769806D02*
X165320347Y-64817425D01*
X165320347Y-64817425D02*
X164987014Y-64817425D01*
X164987014Y-64817425D02*
X164796538Y-64769806D01*
X164796538Y-64769806D02*
X164701300Y-64674568D01*
X164701300Y-64674568D02*
X164653680Y-64579330D01*
X164653680Y-64579330D02*
X164653680Y-64388854D01*
X164653680Y-64388854D02*
X164701300Y-64293616D01*
X164701300Y-64293616D02*
X164796538Y-64198378D01*
X164796538Y-64198378D02*
X164987014Y-64150759D01*
X164987014Y-64150759D02*
X165320347Y-64150759D01*
X165320347Y-64150759D02*
X165510823Y-64198378D01*
X165510823Y-64198378D02*
X165606061Y-64293616D01*
X165606061Y-64293616D02*
X165653680Y-64388854D01*
X164653680Y-65245997D02*
X165653680Y-65245997D01*
X165653680Y-65245997D02*
X164653680Y-65817425D01*
X164653680Y-65817425D02*
X165653680Y-65817425D01*
X164653680Y-66293616D02*
X165653680Y-66293616D01*
X165653680Y-66293616D02*
X164653680Y-66865044D01*
X164653680Y-66865044D02*
X165653680Y-66865044D01*
X165558442Y-67293616D02*
X165606061Y-67341235D01*
X165606061Y-67341235D02*
X165653680Y-67436473D01*
X165653680Y-67436473D02*
X165653680Y-67674568D01*
X165653680Y-67674568D02*
X165606061Y-67769806D01*
X165606061Y-67769806D02*
X165558442Y-67817425D01*
X165558442Y-67817425D02*
X165463204Y-67865044D01*
X165463204Y-67865044D02*
X165367966Y-67865044D01*
X165367966Y-67865044D02*
X165225109Y-67817425D01*
X165225109Y-67817425D02*
X164653680Y-67245997D01*
X164653680Y-67245997D02*
X164653680Y-67865044D01*
X153240573Y-72434019D02*
X153240573Y-71434019D01*
X153240573Y-71434019D02*
X153573906Y-72148304D01*
X153573906Y-72148304D02*
X153907239Y-71434019D01*
X153907239Y-71434019D02*
X153907239Y-72434019D01*
X154573906Y-71434019D02*
X154764382Y-71434019D01*
X154764382Y-71434019D02*
X154859620Y-71481638D01*
X154859620Y-71481638D02*
X154954858Y-71576876D01*
X154954858Y-71576876D02*
X155002477Y-71767352D01*
X155002477Y-71767352D02*
X155002477Y-72100685D01*
X155002477Y-72100685D02*
X154954858Y-72291161D01*
X154954858Y-72291161D02*
X154859620Y-72386400D01*
X154859620Y-72386400D02*
X154764382Y-72434019D01*
X154764382Y-72434019D02*
X154573906Y-72434019D01*
X154573906Y-72434019D02*
X154478668Y-72386400D01*
X154478668Y-72386400D02*
X154383430Y-72291161D01*
X154383430Y-72291161D02*
X154335811Y-72100685D01*
X154335811Y-72100685D02*
X154335811Y-71767352D01*
X154335811Y-71767352D02*
X154383430Y-71576876D01*
X154383430Y-71576876D02*
X154478668Y-71481638D01*
X154478668Y-71481638D02*
X154573906Y-71434019D01*
X155288192Y-71434019D02*
X155859620Y-71434019D01*
X155573906Y-72434019D02*
X155573906Y-71434019D01*
X156383430Y-71434019D02*
X156573906Y-71434019D01*
X156573906Y-71434019D02*
X156669144Y-71481638D01*
X156669144Y-71481638D02*
X156764382Y-71576876D01*
X156764382Y-71576876D02*
X156812001Y-71767352D01*
X156812001Y-71767352D02*
X156812001Y-72100685D01*
X156812001Y-72100685D02*
X156764382Y-72291161D01*
X156764382Y-72291161D02*
X156669144Y-72386400D01*
X156669144Y-72386400D02*
X156573906Y-72434019D01*
X156573906Y-72434019D02*
X156383430Y-72434019D01*
X156383430Y-72434019D02*
X156288192Y-72386400D01*
X156288192Y-72386400D02*
X156192954Y-72291161D01*
X156192954Y-72291161D02*
X156145335Y-72100685D01*
X156145335Y-72100685D02*
X156145335Y-71767352D01*
X156145335Y-71767352D02*
X156192954Y-71576876D01*
X156192954Y-71576876D02*
X156288192Y-71481638D01*
X156288192Y-71481638D02*
X156383430Y-71434019D01*
X157812001Y-72434019D02*
X157478668Y-71957828D01*
X157240573Y-72434019D02*
X157240573Y-71434019D01*
X157240573Y-71434019D02*
X157621525Y-71434019D01*
X157621525Y-71434019D02*
X157716763Y-71481638D01*
X157716763Y-71481638D02*
X157764382Y-71529257D01*
X157764382Y-71529257D02*
X157812001Y-71624495D01*
X157812001Y-71624495D02*
X157812001Y-71767352D01*
X157812001Y-71767352D02*
X157764382Y-71862590D01*
X157764382Y-71862590D02*
X157716763Y-71910209D01*
X157716763Y-71910209D02*
X157621525Y-71957828D01*
X157621525Y-71957828D02*
X157240573Y-71957828D01*
X159002478Y-72434019D02*
X159002478Y-71434019D01*
X159002478Y-71434019D02*
X159240573Y-71434019D01*
X159240573Y-71434019D02*
X159383430Y-71481638D01*
X159383430Y-71481638D02*
X159478668Y-71576876D01*
X159478668Y-71576876D02*
X159526287Y-71672114D01*
X159526287Y-71672114D02*
X159573906Y-71862590D01*
X159573906Y-71862590D02*
X159573906Y-72005447D01*
X159573906Y-72005447D02*
X159526287Y-72195923D01*
X159526287Y-72195923D02*
X159478668Y-72291161D01*
X159478668Y-72291161D02*
X159383430Y-72386400D01*
X159383430Y-72386400D02*
X159240573Y-72434019D01*
X159240573Y-72434019D02*
X159002478Y-72434019D01*
X160573906Y-72434019D02*
X160240573Y-71957828D01*
X160002478Y-72434019D02*
X160002478Y-71434019D01*
X160002478Y-71434019D02*
X160383430Y-71434019D01*
X160383430Y-71434019D02*
X160478668Y-71481638D01*
X160478668Y-71481638D02*
X160526287Y-71529257D01*
X160526287Y-71529257D02*
X160573906Y-71624495D01*
X160573906Y-71624495D02*
X160573906Y-71767352D01*
X160573906Y-71767352D02*
X160526287Y-71862590D01*
X160526287Y-71862590D02*
X160478668Y-71910209D01*
X160478668Y-71910209D02*
X160383430Y-71957828D01*
X160383430Y-71957828D02*
X160002478Y-71957828D01*
X161002478Y-72434019D02*
X161002478Y-71434019D01*
X161335811Y-71434019D02*
X161669144Y-72434019D01*
X161669144Y-72434019D02*
X162002477Y-71434019D01*
X162335811Y-71910209D02*
X162669144Y-71910209D01*
X162812001Y-72434019D02*
X162335811Y-72434019D01*
X162335811Y-72434019D02*
X162335811Y-71434019D01*
X162335811Y-71434019D02*
X162812001Y-71434019D01*
X163812001Y-72434019D02*
X163478668Y-71957828D01*
X163240573Y-72434019D02*
X163240573Y-71434019D01*
X163240573Y-71434019D02*
X163621525Y-71434019D01*
X163621525Y-71434019D02*
X163716763Y-71481638D01*
X163716763Y-71481638D02*
X163764382Y-71529257D01*
X163764382Y-71529257D02*
X163812001Y-71624495D01*
X163812001Y-71624495D02*
X163812001Y-71767352D01*
X163812001Y-71767352D02*
X163764382Y-71862590D01*
X163764382Y-71862590D02*
X163716763Y-71910209D01*
X163716763Y-71910209D02*
X163621525Y-71957828D01*
X163621525Y-71957828D02*
X163240573Y-71957828D01*
X154940573Y-101684019D02*
X154940573Y-100684019D01*
X154940573Y-100684019D02*
X155273906Y-101398304D01*
X155273906Y-101398304D02*
X155607239Y-100684019D01*
X155607239Y-100684019D02*
X155607239Y-101684019D01*
X156273906Y-100684019D02*
X156464382Y-100684019D01*
X156464382Y-100684019D02*
X156559620Y-100731638D01*
X156559620Y-100731638D02*
X156654858Y-100826876D01*
X156654858Y-100826876D02*
X156702477Y-101017352D01*
X156702477Y-101017352D02*
X156702477Y-101350685D01*
X156702477Y-101350685D02*
X156654858Y-101541161D01*
X156654858Y-101541161D02*
X156559620Y-101636400D01*
X156559620Y-101636400D02*
X156464382Y-101684019D01*
X156464382Y-101684019D02*
X156273906Y-101684019D01*
X156273906Y-101684019D02*
X156178668Y-101636400D01*
X156178668Y-101636400D02*
X156083430Y-101541161D01*
X156083430Y-101541161D02*
X156035811Y-101350685D01*
X156035811Y-101350685D02*
X156035811Y-101017352D01*
X156035811Y-101017352D02*
X156083430Y-100826876D01*
X156083430Y-100826876D02*
X156178668Y-100731638D01*
X156178668Y-100731638D02*
X156273906Y-100684019D01*
X156988192Y-100684019D02*
X157559620Y-100684019D01*
X157273906Y-101684019D02*
X157273906Y-100684019D01*
X158083430Y-100684019D02*
X158273906Y-100684019D01*
X158273906Y-100684019D02*
X158369144Y-100731638D01*
X158369144Y-100731638D02*
X158464382Y-100826876D01*
X158464382Y-100826876D02*
X158512001Y-101017352D01*
X158512001Y-101017352D02*
X158512001Y-101350685D01*
X158512001Y-101350685D02*
X158464382Y-101541161D01*
X158464382Y-101541161D02*
X158369144Y-101636400D01*
X158369144Y-101636400D02*
X158273906Y-101684019D01*
X158273906Y-101684019D02*
X158083430Y-101684019D01*
X158083430Y-101684019D02*
X157988192Y-101636400D01*
X157988192Y-101636400D02*
X157892954Y-101541161D01*
X157892954Y-101541161D02*
X157845335Y-101350685D01*
X157845335Y-101350685D02*
X157845335Y-101017352D01*
X157845335Y-101017352D02*
X157892954Y-100826876D01*
X157892954Y-100826876D02*
X157988192Y-100731638D01*
X157988192Y-100731638D02*
X158083430Y-100684019D01*
X159512001Y-101684019D02*
X159178668Y-101207828D01*
X158940573Y-101684019D02*
X158940573Y-100684019D01*
X158940573Y-100684019D02*
X159321525Y-100684019D01*
X159321525Y-100684019D02*
X159416763Y-100731638D01*
X159416763Y-100731638D02*
X159464382Y-100779257D01*
X159464382Y-100779257D02*
X159512001Y-100874495D01*
X159512001Y-100874495D02*
X159512001Y-101017352D01*
X159512001Y-101017352D02*
X159464382Y-101112590D01*
X159464382Y-101112590D02*
X159416763Y-101160209D01*
X159416763Y-101160209D02*
X159321525Y-101207828D01*
X159321525Y-101207828D02*
X158940573Y-101207828D01*
X161273906Y-101588780D02*
X161226287Y-101636400D01*
X161226287Y-101636400D02*
X161083430Y-101684019D01*
X161083430Y-101684019D02*
X160988192Y-101684019D01*
X160988192Y-101684019D02*
X160845335Y-101636400D01*
X160845335Y-101636400D02*
X160750097Y-101541161D01*
X160750097Y-101541161D02*
X160702478Y-101445923D01*
X160702478Y-101445923D02*
X160654859Y-101255447D01*
X160654859Y-101255447D02*
X160654859Y-101112590D01*
X160654859Y-101112590D02*
X160702478Y-100922114D01*
X160702478Y-100922114D02*
X160750097Y-100826876D01*
X160750097Y-100826876D02*
X160845335Y-100731638D01*
X160845335Y-100731638D02*
X160988192Y-100684019D01*
X160988192Y-100684019D02*
X161083430Y-100684019D01*
X161083430Y-100684019D02*
X161226287Y-100731638D01*
X161226287Y-100731638D02*
X161273906Y-100779257D01*
X161892954Y-100684019D02*
X162083430Y-100684019D01*
X162083430Y-100684019D02*
X162178668Y-100731638D01*
X162178668Y-100731638D02*
X162273906Y-100826876D01*
X162273906Y-100826876D02*
X162321525Y-101017352D01*
X162321525Y-101017352D02*
X162321525Y-101350685D01*
X162321525Y-101350685D02*
X162273906Y-101541161D01*
X162273906Y-101541161D02*
X162178668Y-101636400D01*
X162178668Y-101636400D02*
X162083430Y-101684019D01*
X162083430Y-101684019D02*
X161892954Y-101684019D01*
X161892954Y-101684019D02*
X161797716Y-101636400D01*
X161797716Y-101636400D02*
X161702478Y-101541161D01*
X161702478Y-101541161D02*
X161654859Y-101350685D01*
X161654859Y-101350685D02*
X161654859Y-101017352D01*
X161654859Y-101017352D02*
X161702478Y-100826876D01*
X161702478Y-100826876D02*
X161797716Y-100731638D01*
X161797716Y-100731638D02*
X161892954Y-100684019D01*
X162750097Y-101684019D02*
X162750097Y-100684019D01*
X162750097Y-100684019D02*
X163321525Y-101684019D01*
X163321525Y-101684019D02*
X163321525Y-100684019D01*
X163797716Y-101684019D02*
X163797716Y-100684019D01*
X163797716Y-100684019D02*
X164369144Y-101684019D01*
X164369144Y-101684019D02*
X164369144Y-100684019D01*
X165369144Y-101684019D02*
X164797716Y-101684019D01*
X165083430Y-101684019D02*
X165083430Y-100684019D01*
X165083430Y-100684019D02*
X164988192Y-100826876D01*
X164988192Y-100826876D02*
X164892954Y-100922114D01*
X164892954Y-100922114D02*
X164797716Y-100969733D01*
X138990573Y-105134019D02*
X138990573Y-104134019D01*
X139466763Y-105134019D02*
X139466763Y-104134019D01*
X139466763Y-104134019D02*
X139800096Y-104848304D01*
X139800096Y-104848304D02*
X140133429Y-104134019D01*
X140133429Y-104134019D02*
X140133429Y-105134019D01*
X140609620Y-104134019D02*
X140609620Y-104943542D01*
X140609620Y-104943542D02*
X140657239Y-105038780D01*
X140657239Y-105038780D02*
X140704858Y-105086400D01*
X140704858Y-105086400D02*
X140800096Y-105134019D01*
X140800096Y-105134019D02*
X140990572Y-105134019D01*
X140990572Y-105134019D02*
X141085810Y-105086400D01*
X141085810Y-105086400D02*
X141133429Y-105038780D01*
X141133429Y-105038780D02*
X141181048Y-104943542D01*
X141181048Y-104943542D02*
X141181048Y-104134019D01*
X142704858Y-105514971D02*
X142657239Y-105467352D01*
X142657239Y-105467352D02*
X142562001Y-105324495D01*
X142562001Y-105324495D02*
X142514382Y-105229257D01*
X142514382Y-105229257D02*
X142466763Y-105086400D01*
X142466763Y-105086400D02*
X142419144Y-104848304D01*
X142419144Y-104848304D02*
X142419144Y-104657828D01*
X142419144Y-104657828D02*
X142466763Y-104419733D01*
X142466763Y-104419733D02*
X142514382Y-104276876D01*
X142514382Y-104276876D02*
X142562001Y-104181638D01*
X142562001Y-104181638D02*
X142657239Y-104038780D01*
X142657239Y-104038780D02*
X142704858Y-103991161D01*
X143085811Y-105134019D02*
X143085811Y-104134019D01*
X143085811Y-104134019D02*
X143419144Y-104848304D01*
X143419144Y-104848304D02*
X143752477Y-104134019D01*
X143752477Y-104134019D02*
X143752477Y-105134019D01*
X144228668Y-105134019D02*
X144228668Y-104134019D01*
X144228668Y-104134019D02*
X144609620Y-104134019D01*
X144609620Y-104134019D02*
X144704858Y-104181638D01*
X144704858Y-104181638D02*
X144752477Y-104229257D01*
X144752477Y-104229257D02*
X144800096Y-104324495D01*
X144800096Y-104324495D02*
X144800096Y-104467352D01*
X144800096Y-104467352D02*
X144752477Y-104562590D01*
X144752477Y-104562590D02*
X144704858Y-104610209D01*
X144704858Y-104610209D02*
X144609620Y-104657828D01*
X144609620Y-104657828D02*
X144228668Y-104657828D01*
X145228668Y-104134019D02*
X145228668Y-104943542D01*
X145228668Y-104943542D02*
X145276287Y-105038780D01*
X145276287Y-105038780D02*
X145323906Y-105086400D01*
X145323906Y-105086400D02*
X145419144Y-105134019D01*
X145419144Y-105134019D02*
X145609620Y-105134019D01*
X145609620Y-105134019D02*
X145704858Y-105086400D01*
X145704858Y-105086400D02*
X145752477Y-105038780D01*
X145752477Y-105038780D02*
X145800096Y-104943542D01*
X145800096Y-104943542D02*
X145800096Y-104134019D01*
X146704858Y-104134019D02*
X146514382Y-104134019D01*
X146514382Y-104134019D02*
X146419144Y-104181638D01*
X146419144Y-104181638D02*
X146371525Y-104229257D01*
X146371525Y-104229257D02*
X146276287Y-104372114D01*
X146276287Y-104372114D02*
X146228668Y-104562590D01*
X146228668Y-104562590D02*
X146228668Y-104943542D01*
X146228668Y-104943542D02*
X146276287Y-105038780D01*
X146276287Y-105038780D02*
X146323906Y-105086400D01*
X146323906Y-105086400D02*
X146419144Y-105134019D01*
X146419144Y-105134019D02*
X146609620Y-105134019D01*
X146609620Y-105134019D02*
X146704858Y-105086400D01*
X146704858Y-105086400D02*
X146752477Y-105038780D01*
X146752477Y-105038780D02*
X146800096Y-104943542D01*
X146800096Y-104943542D02*
X146800096Y-104705447D01*
X146800096Y-104705447D02*
X146752477Y-104610209D01*
X146752477Y-104610209D02*
X146704858Y-104562590D01*
X146704858Y-104562590D02*
X146609620Y-104514971D01*
X146609620Y-104514971D02*
X146419144Y-104514971D01*
X146419144Y-104514971D02*
X146323906Y-104562590D01*
X146323906Y-104562590D02*
X146276287Y-104610209D01*
X146276287Y-104610209D02*
X146228668Y-104705447D01*
X147419144Y-104134019D02*
X147514382Y-104134019D01*
X147514382Y-104134019D02*
X147609620Y-104181638D01*
X147609620Y-104181638D02*
X147657239Y-104229257D01*
X147657239Y-104229257D02*
X147704858Y-104324495D01*
X147704858Y-104324495D02*
X147752477Y-104514971D01*
X147752477Y-104514971D02*
X147752477Y-104753066D01*
X147752477Y-104753066D02*
X147704858Y-104943542D01*
X147704858Y-104943542D02*
X147657239Y-105038780D01*
X147657239Y-105038780D02*
X147609620Y-105086400D01*
X147609620Y-105086400D02*
X147514382Y-105134019D01*
X147514382Y-105134019D02*
X147419144Y-105134019D01*
X147419144Y-105134019D02*
X147323906Y-105086400D01*
X147323906Y-105086400D02*
X147276287Y-105038780D01*
X147276287Y-105038780D02*
X147228668Y-104943542D01*
X147228668Y-104943542D02*
X147181049Y-104753066D01*
X147181049Y-104753066D02*
X147181049Y-104514971D01*
X147181049Y-104514971D02*
X147228668Y-104324495D01*
X147228668Y-104324495D02*
X147276287Y-104229257D01*
X147276287Y-104229257D02*
X147323906Y-104181638D01*
X147323906Y-104181638D02*
X147419144Y-104134019D01*
X148657239Y-104134019D02*
X148181049Y-104134019D01*
X148181049Y-104134019D02*
X148133430Y-104610209D01*
X148133430Y-104610209D02*
X148181049Y-104562590D01*
X148181049Y-104562590D02*
X148276287Y-104514971D01*
X148276287Y-104514971D02*
X148514382Y-104514971D01*
X148514382Y-104514971D02*
X148609620Y-104562590D01*
X148609620Y-104562590D02*
X148657239Y-104610209D01*
X148657239Y-104610209D02*
X148704858Y-104705447D01*
X148704858Y-104705447D02*
X148704858Y-104943542D01*
X148704858Y-104943542D02*
X148657239Y-105038780D01*
X148657239Y-105038780D02*
X148609620Y-105086400D01*
X148609620Y-105086400D02*
X148514382Y-105134019D01*
X148514382Y-105134019D02*
X148276287Y-105134019D01*
X148276287Y-105134019D02*
X148181049Y-105086400D01*
X148181049Y-105086400D02*
X148133430Y-105038780D01*
X149323906Y-104134019D02*
X149419144Y-104134019D01*
X149419144Y-104134019D02*
X149514382Y-104181638D01*
X149514382Y-104181638D02*
X149562001Y-104229257D01*
X149562001Y-104229257D02*
X149609620Y-104324495D01*
X149609620Y-104324495D02*
X149657239Y-104514971D01*
X149657239Y-104514971D02*
X149657239Y-104753066D01*
X149657239Y-104753066D02*
X149609620Y-104943542D01*
X149609620Y-104943542D02*
X149562001Y-105038780D01*
X149562001Y-105038780D02*
X149514382Y-105086400D01*
X149514382Y-105086400D02*
X149419144Y-105134019D01*
X149419144Y-105134019D02*
X149323906Y-105134019D01*
X149323906Y-105134019D02*
X149228668Y-105086400D01*
X149228668Y-105086400D02*
X149181049Y-105038780D01*
X149181049Y-105038780D02*
X149133430Y-104943542D01*
X149133430Y-104943542D02*
X149085811Y-104753066D01*
X149085811Y-104753066D02*
X149085811Y-104514971D01*
X149085811Y-104514971D02*
X149133430Y-104324495D01*
X149133430Y-104324495D02*
X149181049Y-104229257D01*
X149181049Y-104229257D02*
X149228668Y-104181638D01*
X149228668Y-104181638D02*
X149323906Y-104134019D01*
X149990573Y-105514971D02*
X150038192Y-105467352D01*
X150038192Y-105467352D02*
X150133430Y-105324495D01*
X150133430Y-105324495D02*
X150181049Y-105229257D01*
X150181049Y-105229257D02*
X150228668Y-105086400D01*
X150228668Y-105086400D02*
X150276287Y-104848304D01*
X150276287Y-104848304D02*
X150276287Y-104657828D01*
X150276287Y-104657828D02*
X150228668Y-104419733D01*
X150228668Y-104419733D02*
X150181049Y-104276876D01*
X150181049Y-104276876D02*
X150133430Y-104181638D01*
X150133430Y-104181638D02*
X150038192Y-104038780D01*
X150038192Y-104038780D02*
X149990573Y-103991161D01*
D11*
X102304521Y-108467995D02*
X102799759Y-108467995D01*
X102799759Y-108467995D02*
X102533093Y-108772757D01*
X102533093Y-108772757D02*
X102647378Y-108772757D01*
X102647378Y-108772757D02*
X102723569Y-108810852D01*
X102723569Y-108810852D02*
X102761664Y-108848947D01*
X102761664Y-108848947D02*
X102799759Y-108925138D01*
X102799759Y-108925138D02*
X102799759Y-109115614D01*
X102799759Y-109115614D02*
X102761664Y-109191804D01*
X102761664Y-109191804D02*
X102723569Y-109229900D01*
X102723569Y-109229900D02*
X102647378Y-109267995D01*
X102647378Y-109267995D02*
X102418807Y-109267995D01*
X102418807Y-109267995D02*
X102342616Y-109229900D01*
X102342616Y-109229900D02*
X102304521Y-109191804D01*
X103028331Y-108467995D02*
X103294998Y-109267995D01*
X103294998Y-109267995D02*
X103561664Y-108467995D01*
X103752140Y-108467995D02*
X104247378Y-108467995D01*
X104247378Y-108467995D02*
X103980712Y-108772757D01*
X103980712Y-108772757D02*
X104094997Y-108772757D01*
X104094997Y-108772757D02*
X104171188Y-108810852D01*
X104171188Y-108810852D02*
X104209283Y-108848947D01*
X104209283Y-108848947D02*
X104247378Y-108925138D01*
X104247378Y-108925138D02*
X104247378Y-109115614D01*
X104247378Y-109115614D02*
X104209283Y-109191804D01*
X104209283Y-109191804D02*
X104171188Y-109229900D01*
X104171188Y-109229900D02*
X104094997Y-109267995D01*
X104094997Y-109267995D02*
X103866426Y-109267995D01*
X103866426Y-109267995D02*
X103790235Y-109229900D01*
X103790235Y-109229900D02*
X103752140Y-109191804D01*
D12*
X128521680Y-78957466D02*
X128569300Y-79005085D01*
X128569300Y-79005085D02*
X128616919Y-79147942D01*
X128616919Y-79147942D02*
X128616919Y-79243180D01*
X128616919Y-79243180D02*
X128569300Y-79386037D01*
X128569300Y-79386037D02*
X128474061Y-79481275D01*
X128474061Y-79481275D02*
X128378823Y-79528894D01*
X128378823Y-79528894D02*
X128188347Y-79576513D01*
X128188347Y-79576513D02*
X128045490Y-79576513D01*
X128045490Y-79576513D02*
X127855014Y-79528894D01*
X127855014Y-79528894D02*
X127759776Y-79481275D01*
X127759776Y-79481275D02*
X127664538Y-79386037D01*
X127664538Y-79386037D02*
X127616919Y-79243180D01*
X127616919Y-79243180D02*
X127616919Y-79147942D01*
X127616919Y-79147942D02*
X127664538Y-79005085D01*
X127664538Y-79005085D02*
X127712157Y-78957466D01*
X127616919Y-78624132D02*
X127616919Y-77957466D01*
X127616919Y-77957466D02*
X128616919Y-78386037D01*
X163602333Y-84128780D02*
X163554714Y-84176400D01*
X163554714Y-84176400D02*
X163411857Y-84224019D01*
X163411857Y-84224019D02*
X163316619Y-84224019D01*
X163316619Y-84224019D02*
X163173762Y-84176400D01*
X163173762Y-84176400D02*
X163078524Y-84081161D01*
X163078524Y-84081161D02*
X163030905Y-83985923D01*
X163030905Y-83985923D02*
X162983286Y-83795447D01*
X162983286Y-83795447D02*
X162983286Y-83652590D01*
X162983286Y-83652590D02*
X163030905Y-83462114D01*
X163030905Y-83462114D02*
X163078524Y-83366876D01*
X163078524Y-83366876D02*
X163173762Y-83271638D01*
X163173762Y-83271638D02*
X163316619Y-83224019D01*
X163316619Y-83224019D02*
X163411857Y-83224019D01*
X163411857Y-83224019D02*
X163554714Y-83271638D01*
X163554714Y-83271638D02*
X163602333Y-83319257D01*
X164173762Y-83652590D02*
X164078524Y-83604971D01*
X164078524Y-83604971D02*
X164030905Y-83557352D01*
X164030905Y-83557352D02*
X163983286Y-83462114D01*
X163983286Y-83462114D02*
X163983286Y-83414495D01*
X163983286Y-83414495D02*
X164030905Y-83319257D01*
X164030905Y-83319257D02*
X164078524Y-83271638D01*
X164078524Y-83271638D02*
X164173762Y-83224019D01*
X164173762Y-83224019D02*
X164364238Y-83224019D01*
X164364238Y-83224019D02*
X164459476Y-83271638D01*
X164459476Y-83271638D02*
X164507095Y-83319257D01*
X164507095Y-83319257D02*
X164554714Y-83414495D01*
X164554714Y-83414495D02*
X164554714Y-83462114D01*
X164554714Y-83462114D02*
X164507095Y-83557352D01*
X164507095Y-83557352D02*
X164459476Y-83604971D01*
X164459476Y-83604971D02*
X164364238Y-83652590D01*
X164364238Y-83652590D02*
X164173762Y-83652590D01*
X164173762Y-83652590D02*
X164078524Y-83700209D01*
X164078524Y-83700209D02*
X164030905Y-83747828D01*
X164030905Y-83747828D02*
X163983286Y-83843066D01*
X163983286Y-83843066D02*
X163983286Y-84033542D01*
X163983286Y-84033542D02*
X164030905Y-84128780D01*
X164030905Y-84128780D02*
X164078524Y-84176400D01*
X164078524Y-84176400D02*
X164173762Y-84224019D01*
X164173762Y-84224019D02*
X164364238Y-84224019D01*
X164364238Y-84224019D02*
X164459476Y-84176400D01*
X164459476Y-84176400D02*
X164507095Y-84128780D01*
X164507095Y-84128780D02*
X164554714Y-84033542D01*
X164554714Y-84033542D02*
X164554714Y-83843066D01*
X164554714Y-83843066D02*
X164507095Y-83747828D01*
X164507095Y-83747828D02*
X164459476Y-83700209D01*
X164459476Y-83700209D02*
X164364238Y-83652590D01*
X122572033Y-77711180D02*
X122524414Y-77758800D01*
X122524414Y-77758800D02*
X122381557Y-77806419D01*
X122381557Y-77806419D02*
X122286319Y-77806419D01*
X122286319Y-77806419D02*
X122143462Y-77758800D01*
X122143462Y-77758800D02*
X122048224Y-77663561D01*
X122048224Y-77663561D02*
X122000605Y-77568323D01*
X122000605Y-77568323D02*
X121952986Y-77377847D01*
X121952986Y-77377847D02*
X121952986Y-77234990D01*
X121952986Y-77234990D02*
X122000605Y-77044514D01*
X122000605Y-77044514D02*
X122048224Y-76949276D01*
X122048224Y-76949276D02*
X122143462Y-76854038D01*
X122143462Y-76854038D02*
X122286319Y-76806419D01*
X122286319Y-76806419D02*
X122381557Y-76806419D01*
X122381557Y-76806419D02*
X122524414Y-76854038D01*
X122524414Y-76854038D02*
X122572033Y-76901657D01*
X122952986Y-76901657D02*
X123000605Y-76854038D01*
X123000605Y-76854038D02*
X123095843Y-76806419D01*
X123095843Y-76806419D02*
X123333938Y-76806419D01*
X123333938Y-76806419D02*
X123429176Y-76854038D01*
X123429176Y-76854038D02*
X123476795Y-76901657D01*
X123476795Y-76901657D02*
X123524414Y-76996895D01*
X123524414Y-76996895D02*
X123524414Y-77092133D01*
X123524414Y-77092133D02*
X123476795Y-77234990D01*
X123476795Y-77234990D02*
X122905367Y-77806419D01*
X122905367Y-77806419D02*
X123524414Y-77806419D01*
X106518166Y-82100009D02*
X106184833Y-82100009D01*
X106184833Y-82623819D02*
X106184833Y-81623819D01*
X106184833Y-81623819D02*
X106661023Y-81623819D01*
X107565785Y-82623819D02*
X106994357Y-82623819D01*
X107280071Y-82623819D02*
X107280071Y-81623819D01*
X107280071Y-81623819D02*
X107184833Y-81766676D01*
X107184833Y-81766676D02*
X107089595Y-81861914D01*
X107089595Y-81861914D02*
X106994357Y-81909533D01*
X110875833Y-84249419D02*
X110542500Y-83773228D01*
X110304405Y-84249419D02*
X110304405Y-83249419D01*
X110304405Y-83249419D02*
X110685357Y-83249419D01*
X110685357Y-83249419D02*
X110780595Y-83297038D01*
X110780595Y-83297038D02*
X110828214Y-83344657D01*
X110828214Y-83344657D02*
X110875833Y-83439895D01*
X110875833Y-83439895D02*
X110875833Y-83582752D01*
X110875833Y-83582752D02*
X110828214Y-83677990D01*
X110828214Y-83677990D02*
X110780595Y-83725609D01*
X110780595Y-83725609D02*
X110685357Y-83773228D01*
X110685357Y-83773228D02*
X110304405Y-83773228D01*
X111828214Y-84249419D02*
X111256786Y-84249419D01*
X111542500Y-84249419D02*
X111542500Y-83249419D01*
X111542500Y-83249419D02*
X111447262Y-83392276D01*
X111447262Y-83392276D02*
X111352024Y-83487514D01*
X111352024Y-83487514D02*
X111256786Y-83535133D01*
X114928795Y-90996419D02*
X114928795Y-91805942D01*
X114928795Y-91805942D02*
X114976414Y-91901180D01*
X114976414Y-91901180D02*
X115024033Y-91948800D01*
X115024033Y-91948800D02*
X115119271Y-91996419D01*
X115119271Y-91996419D02*
X115309747Y-91996419D01*
X115309747Y-91996419D02*
X115404985Y-91948800D01*
X115404985Y-91948800D02*
X115452604Y-91901180D01*
X115452604Y-91901180D02*
X115500223Y-91805942D01*
X115500223Y-91805942D02*
X115500223Y-90996419D01*
X116452604Y-90996419D02*
X115976414Y-90996419D01*
X115976414Y-90996419D02*
X115928795Y-91472609D01*
X115928795Y-91472609D02*
X115976414Y-91424990D01*
X115976414Y-91424990D02*
X116071652Y-91377371D01*
X116071652Y-91377371D02*
X116309747Y-91377371D01*
X116309747Y-91377371D02*
X116404985Y-91424990D01*
X116404985Y-91424990D02*
X116452604Y-91472609D01*
X116452604Y-91472609D02*
X116500223Y-91567847D01*
X116500223Y-91567847D02*
X116500223Y-91805942D01*
X116500223Y-91805942D02*
X116452604Y-91901180D01*
X116452604Y-91901180D02*
X116404985Y-91948800D01*
X116404985Y-91948800D02*
X116309747Y-91996419D01*
X116309747Y-91996419D02*
X116071652Y-91996419D01*
X116071652Y-91996419D02*
X115976414Y-91948800D01*
X115976414Y-91948800D02*
X115928795Y-91901180D01*
X132251595Y-62408119D02*
X132251595Y-63217642D01*
X132251595Y-63217642D02*
X132299214Y-63312880D01*
X132299214Y-63312880D02*
X132346833Y-63360500D01*
X132346833Y-63360500D02*
X132442071Y-63408119D01*
X132442071Y-63408119D02*
X132632547Y-63408119D01*
X132632547Y-63408119D02*
X132727785Y-63360500D01*
X132727785Y-63360500D02*
X132775404Y-63312880D01*
X132775404Y-63312880D02*
X132823023Y-63217642D01*
X132823023Y-63217642D02*
X132823023Y-62408119D01*
X133203976Y-62408119D02*
X133823023Y-62408119D01*
X133823023Y-62408119D02*
X133489690Y-62789071D01*
X133489690Y-62789071D02*
X133632547Y-62789071D01*
X133632547Y-62789071D02*
X133727785Y-62836690D01*
X133727785Y-62836690D02*
X133775404Y-62884309D01*
X133775404Y-62884309D02*
X133823023Y-62979547D01*
X133823023Y-62979547D02*
X133823023Y-63217642D01*
X133823023Y-63217642D02*
X133775404Y-63312880D01*
X133775404Y-63312880D02*
X133727785Y-63360500D01*
X133727785Y-63360500D02*
X133632547Y-63408119D01*
X133632547Y-63408119D02*
X133346833Y-63408119D01*
X133346833Y-63408119D02*
X133251595Y-63360500D01*
X133251595Y-63360500D02*
X133203976Y-63312880D01*
X124783995Y-109170000D02*
X124926852Y-109217619D01*
X124926852Y-109217619D02*
X125164947Y-109217619D01*
X125164947Y-109217619D02*
X125260185Y-109170000D01*
X125260185Y-109170000D02*
X125307804Y-109122380D01*
X125307804Y-109122380D02*
X125355423Y-109027142D01*
X125355423Y-109027142D02*
X125355423Y-108931904D01*
X125355423Y-108931904D02*
X125307804Y-108836666D01*
X125307804Y-108836666D02*
X125260185Y-108789047D01*
X125260185Y-108789047D02*
X125164947Y-108741428D01*
X125164947Y-108741428D02*
X124974471Y-108693809D01*
X124974471Y-108693809D02*
X124879233Y-108646190D01*
X124879233Y-108646190D02*
X124831614Y-108598571D01*
X124831614Y-108598571D02*
X124783995Y-108503333D01*
X124783995Y-108503333D02*
X124783995Y-108408095D01*
X124783995Y-108408095D02*
X124831614Y-108312857D01*
X124831614Y-108312857D02*
X124879233Y-108265238D01*
X124879233Y-108265238D02*
X124974471Y-108217619D01*
X124974471Y-108217619D02*
X125212566Y-108217619D01*
X125212566Y-108217619D02*
X125355423Y-108265238D01*
X126212566Y-108550952D02*
X126212566Y-109217619D01*
X125974471Y-108170000D02*
X125736376Y-108884285D01*
X125736376Y-108884285D02*
X126355423Y-108884285D01*
X132276995Y-71247319D02*
X132276995Y-72056842D01*
X132276995Y-72056842D02*
X132324614Y-72152080D01*
X132324614Y-72152080D02*
X132372233Y-72199700D01*
X132372233Y-72199700D02*
X132467471Y-72247319D01*
X132467471Y-72247319D02*
X132657947Y-72247319D01*
X132657947Y-72247319D02*
X132753185Y-72199700D01*
X132753185Y-72199700D02*
X132800804Y-72152080D01*
X132800804Y-72152080D02*
X132848423Y-72056842D01*
X132848423Y-72056842D02*
X132848423Y-71247319D01*
X133753185Y-71247319D02*
X133562709Y-71247319D01*
X133562709Y-71247319D02*
X133467471Y-71294938D01*
X133467471Y-71294938D02*
X133419852Y-71342557D01*
X133419852Y-71342557D02*
X133324614Y-71485414D01*
X133324614Y-71485414D02*
X133276995Y-71675890D01*
X133276995Y-71675890D02*
X133276995Y-72056842D01*
X133276995Y-72056842D02*
X133324614Y-72152080D01*
X133324614Y-72152080D02*
X133372233Y-72199700D01*
X133372233Y-72199700D02*
X133467471Y-72247319D01*
X133467471Y-72247319D02*
X133657947Y-72247319D01*
X133657947Y-72247319D02*
X133753185Y-72199700D01*
X133753185Y-72199700D02*
X133800804Y-72152080D01*
X133800804Y-72152080D02*
X133848423Y-72056842D01*
X133848423Y-72056842D02*
X133848423Y-71818747D01*
X133848423Y-71818747D02*
X133800804Y-71723509D01*
X133800804Y-71723509D02*
X133753185Y-71675890D01*
X133753185Y-71675890D02*
X133657947Y-71628271D01*
X133657947Y-71628271D02*
X133467471Y-71628271D01*
X133467471Y-71628271D02*
X133372233Y-71675890D01*
X133372233Y-71675890D02*
X133324614Y-71723509D01*
X133324614Y-71723509D02*
X133276995Y-71818747D01*
X129265433Y-76832619D02*
X128932100Y-76356428D01*
X128694005Y-76832619D02*
X128694005Y-75832619D01*
X128694005Y-75832619D02*
X129074957Y-75832619D01*
X129074957Y-75832619D02*
X129170195Y-75880238D01*
X129170195Y-75880238D02*
X129217814Y-75927857D01*
X129217814Y-75927857D02*
X129265433Y-76023095D01*
X129265433Y-76023095D02*
X129265433Y-76165952D01*
X129265433Y-76165952D02*
X129217814Y-76261190D01*
X129217814Y-76261190D02*
X129170195Y-76308809D01*
X129170195Y-76308809D02*
X129074957Y-76356428D01*
X129074957Y-76356428D02*
X128694005Y-76356428D01*
X129741624Y-76832619D02*
X129932100Y-76832619D01*
X129932100Y-76832619D02*
X130027338Y-76785000D01*
X130027338Y-76785000D02*
X130074957Y-76737380D01*
X130074957Y-76737380D02*
X130170195Y-76594523D01*
X130170195Y-76594523D02*
X130217814Y-76404047D01*
X130217814Y-76404047D02*
X130217814Y-76023095D01*
X130217814Y-76023095D02*
X130170195Y-75927857D01*
X130170195Y-75927857D02*
X130122576Y-75880238D01*
X130122576Y-75880238D02*
X130027338Y-75832619D01*
X130027338Y-75832619D02*
X129836862Y-75832619D01*
X129836862Y-75832619D02*
X129741624Y-75880238D01*
X129741624Y-75880238D02*
X129694005Y-75927857D01*
X129694005Y-75927857D02*
X129646386Y-76023095D01*
X129646386Y-76023095D02*
X129646386Y-76261190D01*
X129646386Y-76261190D02*
X129694005Y-76356428D01*
X129694005Y-76356428D02*
X129741624Y-76404047D01*
X129741624Y-76404047D02*
X129836862Y-76451666D01*
X129836862Y-76451666D02*
X130027338Y-76451666D01*
X130027338Y-76451666D02*
X130122576Y-76404047D01*
X130122576Y-76404047D02*
X130170195Y-76356428D01*
X130170195Y-76356428D02*
X130217814Y-76261190D01*
X107997666Y-66409219D02*
X107997666Y-67123504D01*
X107997666Y-67123504D02*
X107950047Y-67266361D01*
X107950047Y-67266361D02*
X107854809Y-67361600D01*
X107854809Y-67361600D02*
X107711952Y-67409219D01*
X107711952Y-67409219D02*
X107616714Y-67409219D01*
X108902428Y-66742552D02*
X108902428Y-67409219D01*
X108664333Y-66361600D02*
X108426238Y-67075885D01*
X108426238Y-67075885D02*
X109045285Y-67075885D01*
X111604233Y-94971619D02*
X111270900Y-94495428D01*
X111032805Y-94971619D02*
X111032805Y-93971619D01*
X111032805Y-93971619D02*
X111413757Y-93971619D01*
X111413757Y-93971619D02*
X111508995Y-94019238D01*
X111508995Y-94019238D02*
X111556614Y-94066857D01*
X111556614Y-94066857D02*
X111604233Y-94162095D01*
X111604233Y-94162095D02*
X111604233Y-94304952D01*
X111604233Y-94304952D02*
X111556614Y-94400190D01*
X111556614Y-94400190D02*
X111508995Y-94447809D01*
X111508995Y-94447809D02*
X111413757Y-94495428D01*
X111413757Y-94495428D02*
X111032805Y-94495428D01*
X112175662Y-94400190D02*
X112080424Y-94352571D01*
X112080424Y-94352571D02*
X112032805Y-94304952D01*
X112032805Y-94304952D02*
X111985186Y-94209714D01*
X111985186Y-94209714D02*
X111985186Y-94162095D01*
X111985186Y-94162095D02*
X112032805Y-94066857D01*
X112032805Y-94066857D02*
X112080424Y-94019238D01*
X112080424Y-94019238D02*
X112175662Y-93971619D01*
X112175662Y-93971619D02*
X112366138Y-93971619D01*
X112366138Y-93971619D02*
X112461376Y-94019238D01*
X112461376Y-94019238D02*
X112508995Y-94066857D01*
X112508995Y-94066857D02*
X112556614Y-94162095D01*
X112556614Y-94162095D02*
X112556614Y-94209714D01*
X112556614Y-94209714D02*
X112508995Y-94304952D01*
X112508995Y-94304952D02*
X112461376Y-94352571D01*
X112461376Y-94352571D02*
X112366138Y-94400190D01*
X112366138Y-94400190D02*
X112175662Y-94400190D01*
X112175662Y-94400190D02*
X112080424Y-94447809D01*
X112080424Y-94447809D02*
X112032805Y-94495428D01*
X112032805Y-94495428D02*
X111985186Y-94590666D01*
X111985186Y-94590666D02*
X111985186Y-94781142D01*
X111985186Y-94781142D02*
X112032805Y-94876380D01*
X112032805Y-94876380D02*
X112080424Y-94924000D01*
X112080424Y-94924000D02*
X112175662Y-94971619D01*
X112175662Y-94971619D02*
X112366138Y-94971619D01*
X112366138Y-94971619D02*
X112461376Y-94924000D01*
X112461376Y-94924000D02*
X112508995Y-94876380D01*
X112508995Y-94876380D02*
X112556614Y-94781142D01*
X112556614Y-94781142D02*
X112556614Y-94590666D01*
X112556614Y-94590666D02*
X112508995Y-94495428D01*
X112508995Y-94495428D02*
X112461376Y-94447809D01*
X112461376Y-94447809D02*
X112366138Y-94400190D01*
X157575395Y-77436919D02*
X157575395Y-78246442D01*
X157575395Y-78246442D02*
X157623014Y-78341680D01*
X157623014Y-78341680D02*
X157670633Y-78389300D01*
X157670633Y-78389300D02*
X157765871Y-78436919D01*
X157765871Y-78436919D02*
X157956347Y-78436919D01*
X157956347Y-78436919D02*
X158051585Y-78389300D01*
X158051585Y-78389300D02*
X158099204Y-78341680D01*
X158099204Y-78341680D02*
X158146823Y-78246442D01*
X158146823Y-78246442D02*
X158146823Y-77436919D01*
X158575395Y-77532157D02*
X158623014Y-77484538D01*
X158623014Y-77484538D02*
X158718252Y-77436919D01*
X158718252Y-77436919D02*
X158956347Y-77436919D01*
X158956347Y-77436919D02*
X159051585Y-77484538D01*
X159051585Y-77484538D02*
X159099204Y-77532157D01*
X159099204Y-77532157D02*
X159146823Y-77627395D01*
X159146823Y-77627395D02*
X159146823Y-77722633D01*
X159146823Y-77722633D02*
X159099204Y-77865490D01*
X159099204Y-77865490D02*
X158527776Y-78436919D01*
X158527776Y-78436919D02*
X159146823Y-78436919D01*
X151222919Y-88469694D02*
X150222919Y-88469694D01*
X150222919Y-88469694D02*
X150222919Y-88231599D01*
X150222919Y-88231599D02*
X150270538Y-88088742D01*
X150270538Y-88088742D02*
X150365776Y-87993504D01*
X150365776Y-87993504D02*
X150461014Y-87945885D01*
X150461014Y-87945885D02*
X150651490Y-87898266D01*
X150651490Y-87898266D02*
X150794347Y-87898266D01*
X150794347Y-87898266D02*
X150984823Y-87945885D01*
X150984823Y-87945885D02*
X151080061Y-87993504D01*
X151080061Y-87993504D02*
X151175300Y-88088742D01*
X151175300Y-88088742D02*
X151222919Y-88231599D01*
X151222919Y-88231599D02*
X151222919Y-88469694D01*
X151222919Y-86945885D02*
X151222919Y-87517313D01*
X151222919Y-87231599D02*
X150222919Y-87231599D01*
X150222919Y-87231599D02*
X150365776Y-87326837D01*
X150365776Y-87326837D02*
X150461014Y-87422075D01*
X150461014Y-87422075D02*
X150508633Y-87517313D01*
X147955395Y-88366628D02*
X147955395Y-88823771D01*
X147955395Y-88595199D02*
X147155395Y-88595199D01*
X147155395Y-88595199D02*
X147269680Y-88671390D01*
X147269680Y-88671390D02*
X147345871Y-88747580D01*
X147345871Y-88747580D02*
X147383966Y-88823771D01*
X135621842Y-67821980D02*
X135574223Y-67869600D01*
X135574223Y-67869600D02*
X135431366Y-67917219D01*
X135431366Y-67917219D02*
X135336128Y-67917219D01*
X135336128Y-67917219D02*
X135193271Y-67869600D01*
X135193271Y-67869600D02*
X135098033Y-67774361D01*
X135098033Y-67774361D02*
X135050414Y-67679123D01*
X135050414Y-67679123D02*
X135002795Y-67488647D01*
X135002795Y-67488647D02*
X135002795Y-67345790D01*
X135002795Y-67345790D02*
X135050414Y-67155314D01*
X135050414Y-67155314D02*
X135098033Y-67060076D01*
X135098033Y-67060076D02*
X135193271Y-66964838D01*
X135193271Y-66964838D02*
X135336128Y-66917219D01*
X135336128Y-66917219D02*
X135431366Y-66917219D01*
X135431366Y-66917219D02*
X135574223Y-66964838D01*
X135574223Y-66964838D02*
X135621842Y-67012457D01*
X136574223Y-67917219D02*
X136002795Y-67917219D01*
X136288509Y-67917219D02*
X136288509Y-66917219D01*
X136288509Y-66917219D02*
X136193271Y-67060076D01*
X136193271Y-67060076D02*
X136098033Y-67155314D01*
X136098033Y-67155314D02*
X136002795Y-67202933D01*
X136907557Y-66917219D02*
X137526604Y-66917219D01*
X137526604Y-66917219D02*
X137193271Y-67298171D01*
X137193271Y-67298171D02*
X137336128Y-67298171D01*
X137336128Y-67298171D02*
X137431366Y-67345790D01*
X137431366Y-67345790D02*
X137478985Y-67393409D01*
X137478985Y-67393409D02*
X137526604Y-67488647D01*
X137526604Y-67488647D02*
X137526604Y-67726742D01*
X137526604Y-67726742D02*
X137478985Y-67821980D01*
X137478985Y-67821980D02*
X137431366Y-67869600D01*
X137431366Y-67869600D02*
X137336128Y-67917219D01*
X137336128Y-67917219D02*
X137050414Y-67917219D01*
X137050414Y-67917219D02*
X136955176Y-67869600D01*
X136955176Y-67869600D02*
X136907557Y-67821980D01*
D13*
X141501566Y-97186242D02*
X141682995Y-97246718D01*
X141682995Y-97246718D02*
X141985376Y-97246718D01*
X141985376Y-97246718D02*
X142106328Y-97186242D01*
X142106328Y-97186242D02*
X142166804Y-97125765D01*
X142166804Y-97125765D02*
X142227281Y-97004813D01*
X142227281Y-97004813D02*
X142227281Y-96883861D01*
X142227281Y-96883861D02*
X142166804Y-96762908D01*
X142166804Y-96762908D02*
X142106328Y-96702432D01*
X142106328Y-96702432D02*
X141985376Y-96641956D01*
X141985376Y-96641956D02*
X141743471Y-96581480D01*
X141743471Y-96581480D02*
X141622519Y-96521003D01*
X141622519Y-96521003D02*
X141562042Y-96460527D01*
X141562042Y-96460527D02*
X141501566Y-96339575D01*
X141501566Y-96339575D02*
X141501566Y-96218622D01*
X141501566Y-96218622D02*
X141562042Y-96097670D01*
X141562042Y-96097670D02*
X141622519Y-96037194D01*
X141622519Y-96037194D02*
X141743471Y-95976718D01*
X141743471Y-95976718D02*
X142045852Y-95976718D01*
X142045852Y-95976718D02*
X142227281Y-96037194D01*
X142650614Y-95976718D02*
X142952995Y-97246718D01*
X142952995Y-97246718D02*
X143194900Y-96339575D01*
X143194900Y-96339575D02*
X143436805Y-97246718D01*
X143436805Y-97246718D02*
X143739186Y-95976718D01*
X144162519Y-96097670D02*
X144222995Y-96037194D01*
X144222995Y-96037194D02*
X144343948Y-95976718D01*
X144343948Y-95976718D02*
X144646329Y-95976718D01*
X144646329Y-95976718D02*
X144767281Y-96037194D01*
X144767281Y-96037194D02*
X144827757Y-96097670D01*
X144827757Y-96097670D02*
X144888234Y-96218622D01*
X144888234Y-96218622D02*
X144888234Y-96339575D01*
X144888234Y-96339575D02*
X144827757Y-96521003D01*
X144827757Y-96521003D02*
X144102043Y-97246718D01*
X144102043Y-97246718D02*
X144888234Y-97246718D01*
D12*
X128659395Y-87289219D02*
X128659395Y-88098742D01*
X128659395Y-88098742D02*
X128707014Y-88193980D01*
X128707014Y-88193980D02*
X128754633Y-88241600D01*
X128754633Y-88241600D02*
X128849871Y-88289219D01*
X128849871Y-88289219D02*
X129040347Y-88289219D01*
X129040347Y-88289219D02*
X129135585Y-88241600D01*
X129135585Y-88241600D02*
X129183204Y-88193980D01*
X129183204Y-88193980D02*
X129230823Y-88098742D01*
X129230823Y-88098742D02*
X129230823Y-87289219D01*
X130230823Y-88289219D02*
X129659395Y-88289219D01*
X129945109Y-88289219D02*
X129945109Y-87289219D01*
X129945109Y-87289219D02*
X129849871Y-87432076D01*
X129849871Y-87432076D02*
X129754633Y-87527314D01*
X129754633Y-87527314D02*
X129659395Y-87574933D01*
X134869433Y-82205980D02*
X134821814Y-82253600D01*
X134821814Y-82253600D02*
X134678957Y-82301219D01*
X134678957Y-82301219D02*
X134583719Y-82301219D01*
X134583719Y-82301219D02*
X134440862Y-82253600D01*
X134440862Y-82253600D02*
X134345624Y-82158361D01*
X134345624Y-82158361D02*
X134298005Y-82063123D01*
X134298005Y-82063123D02*
X134250386Y-81872647D01*
X134250386Y-81872647D02*
X134250386Y-81729790D01*
X134250386Y-81729790D02*
X134298005Y-81539314D01*
X134298005Y-81539314D02*
X134345624Y-81444076D01*
X134345624Y-81444076D02*
X134440862Y-81348838D01*
X134440862Y-81348838D02*
X134583719Y-81301219D01*
X134583719Y-81301219D02*
X134678957Y-81301219D01*
X134678957Y-81301219D02*
X134821814Y-81348838D01*
X134821814Y-81348838D02*
X134869433Y-81396457D01*
X135202767Y-81301219D02*
X135821814Y-81301219D01*
X135821814Y-81301219D02*
X135488481Y-81682171D01*
X135488481Y-81682171D02*
X135631338Y-81682171D01*
X135631338Y-81682171D02*
X135726576Y-81729790D01*
X135726576Y-81729790D02*
X135774195Y-81777409D01*
X135774195Y-81777409D02*
X135821814Y-81872647D01*
X135821814Y-81872647D02*
X135821814Y-82110742D01*
X135821814Y-82110742D02*
X135774195Y-82205980D01*
X135774195Y-82205980D02*
X135726576Y-82253600D01*
X135726576Y-82253600D02*
X135631338Y-82301219D01*
X135631338Y-82301219D02*
X135345624Y-82301219D01*
X135345624Y-82301219D02*
X135250386Y-82253600D01*
X135250386Y-82253600D02*
X135202767Y-82205980D01*
X123740119Y-71858094D02*
X122740119Y-71858094D01*
X122740119Y-71858094D02*
X122740119Y-71619999D01*
X122740119Y-71619999D02*
X122787738Y-71477142D01*
X122787738Y-71477142D02*
X122882976Y-71381904D01*
X122882976Y-71381904D02*
X122978214Y-71334285D01*
X122978214Y-71334285D02*
X123168690Y-71286666D01*
X123168690Y-71286666D02*
X123311547Y-71286666D01*
X123311547Y-71286666D02*
X123502023Y-71334285D01*
X123502023Y-71334285D02*
X123597261Y-71381904D01*
X123597261Y-71381904D02*
X123692500Y-71477142D01*
X123692500Y-71477142D02*
X123740119Y-71619999D01*
X123740119Y-71619999D02*
X123740119Y-71858094D01*
X122740119Y-70953332D02*
X122740119Y-70334285D01*
X122740119Y-70334285D02*
X123121071Y-70667618D01*
X123121071Y-70667618D02*
X123121071Y-70524761D01*
X123121071Y-70524761D02*
X123168690Y-70429523D01*
X123168690Y-70429523D02*
X123216309Y-70381904D01*
X123216309Y-70381904D02*
X123311547Y-70334285D01*
X123311547Y-70334285D02*
X123549642Y-70334285D01*
X123549642Y-70334285D02*
X123644880Y-70381904D01*
X123644880Y-70381904D02*
X123692500Y-70429523D01*
X123692500Y-70429523D02*
X123740119Y-70524761D01*
X123740119Y-70524761D02*
X123740119Y-70810475D01*
X123740119Y-70810475D02*
X123692500Y-70905713D01*
X123692500Y-70905713D02*
X123644880Y-70953332D01*
X145895328Y-93363990D02*
X146371519Y-93363990D01*
X145371519Y-93697323D02*
X145895328Y-93363990D01*
X145895328Y-93363990D02*
X145371519Y-93030657D01*
X145371519Y-92792561D02*
X145371519Y-92173514D01*
X145371519Y-92173514D02*
X145752471Y-92506847D01*
X145752471Y-92506847D02*
X145752471Y-92363990D01*
X145752471Y-92363990D02*
X145800090Y-92268752D01*
X145800090Y-92268752D02*
X145847709Y-92221133D01*
X145847709Y-92221133D02*
X145942947Y-92173514D01*
X145942947Y-92173514D02*
X146181042Y-92173514D01*
X146181042Y-92173514D02*
X146276280Y-92221133D01*
X146276280Y-92221133D02*
X146323900Y-92268752D01*
X146323900Y-92268752D02*
X146371519Y-92363990D01*
X146371519Y-92363990D02*
X146371519Y-92649704D01*
X146371519Y-92649704D02*
X146323900Y-92744942D01*
X146323900Y-92744942D02*
X146276280Y-92792561D01*
X143406080Y-64883357D02*
X143453700Y-64930976D01*
X143453700Y-64930976D02*
X143501319Y-65073833D01*
X143501319Y-65073833D02*
X143501319Y-65169071D01*
X143501319Y-65169071D02*
X143453700Y-65311928D01*
X143453700Y-65311928D02*
X143358461Y-65407166D01*
X143358461Y-65407166D02*
X143263223Y-65454785D01*
X143263223Y-65454785D02*
X143072747Y-65502404D01*
X143072747Y-65502404D02*
X142929890Y-65502404D01*
X142929890Y-65502404D02*
X142739414Y-65454785D01*
X142739414Y-65454785D02*
X142644176Y-65407166D01*
X142644176Y-65407166D02*
X142548938Y-65311928D01*
X142548938Y-65311928D02*
X142501319Y-65169071D01*
X142501319Y-65169071D02*
X142501319Y-65073833D01*
X142501319Y-65073833D02*
X142548938Y-64930976D01*
X142548938Y-64930976D02*
X142596557Y-64883357D01*
X142596557Y-64502404D02*
X142548938Y-64454785D01*
X142548938Y-64454785D02*
X142501319Y-64359547D01*
X142501319Y-64359547D02*
X142501319Y-64121452D01*
X142501319Y-64121452D02*
X142548938Y-64026214D01*
X142548938Y-64026214D02*
X142596557Y-63978595D01*
X142596557Y-63978595D02*
X142691795Y-63930976D01*
X142691795Y-63930976D02*
X142787033Y-63930976D01*
X142787033Y-63930976D02*
X142929890Y-63978595D01*
X142929890Y-63978595D02*
X143501319Y-64550023D01*
X143501319Y-64550023D02*
X143501319Y-63930976D01*
X142596557Y-63550023D02*
X142548938Y-63502404D01*
X142548938Y-63502404D02*
X142501319Y-63407166D01*
X142501319Y-63407166D02*
X142501319Y-63169071D01*
X142501319Y-63169071D02*
X142548938Y-63073833D01*
X142548938Y-63073833D02*
X142596557Y-63026214D01*
X142596557Y-63026214D02*
X142691795Y-62978595D01*
X142691795Y-62978595D02*
X142787033Y-62978595D01*
X142787033Y-62978595D02*
X142929890Y-63026214D01*
X142929890Y-63026214D02*
X143501319Y-63597642D01*
X143501319Y-63597642D02*
X143501319Y-62978595D01*
X159701166Y-62026219D02*
X159701166Y-62740504D01*
X159701166Y-62740504D02*
X159653547Y-62883361D01*
X159653547Y-62883361D02*
X159558309Y-62978600D01*
X159558309Y-62978600D02*
X159415452Y-63026219D01*
X159415452Y-63026219D02*
X159320214Y-63026219D01*
X160082119Y-62026219D02*
X160748785Y-62026219D01*
X160748785Y-62026219D02*
X160320214Y-63026219D01*
X125671405Y-58671619D02*
X125671405Y-57671619D01*
X125671405Y-57671619D02*
X125909500Y-57671619D01*
X125909500Y-57671619D02*
X126052357Y-57719238D01*
X126052357Y-57719238D02*
X126147595Y-57814476D01*
X126147595Y-57814476D02*
X126195214Y-57909714D01*
X126195214Y-57909714D02*
X126242833Y-58100190D01*
X126242833Y-58100190D02*
X126242833Y-58243047D01*
X126242833Y-58243047D02*
X126195214Y-58433523D01*
X126195214Y-58433523D02*
X126147595Y-58528761D01*
X126147595Y-58528761D02*
X126052357Y-58624000D01*
X126052357Y-58624000D02*
X125909500Y-58671619D01*
X125909500Y-58671619D02*
X125671405Y-58671619D01*
X127147595Y-57671619D02*
X126671405Y-57671619D01*
X126671405Y-57671619D02*
X126623786Y-58147809D01*
X126623786Y-58147809D02*
X126671405Y-58100190D01*
X126671405Y-58100190D02*
X126766643Y-58052571D01*
X126766643Y-58052571D02*
X127004738Y-58052571D01*
X127004738Y-58052571D02*
X127099976Y-58100190D01*
X127099976Y-58100190D02*
X127147595Y-58147809D01*
X127147595Y-58147809D02*
X127195214Y-58243047D01*
X127195214Y-58243047D02*
X127195214Y-58481142D01*
X127195214Y-58481142D02*
X127147595Y-58576380D01*
X127147595Y-58576380D02*
X127099976Y-58624000D01*
X127099976Y-58624000D02*
X127004738Y-58671619D01*
X127004738Y-58671619D02*
X126766643Y-58671619D01*
X126766643Y-58671619D02*
X126671405Y-58624000D01*
X126671405Y-58624000D02*
X126623786Y-58576380D01*
X126039633Y-100759419D02*
X125706300Y-100283228D01*
X125468205Y-100759419D02*
X125468205Y-99759419D01*
X125468205Y-99759419D02*
X125849157Y-99759419D01*
X125849157Y-99759419D02*
X125944395Y-99807038D01*
X125944395Y-99807038D02*
X125992014Y-99854657D01*
X125992014Y-99854657D02*
X126039633Y-99949895D01*
X126039633Y-99949895D02*
X126039633Y-100092752D01*
X126039633Y-100092752D02*
X125992014Y-100187990D01*
X125992014Y-100187990D02*
X125944395Y-100235609D01*
X125944395Y-100235609D02*
X125849157Y-100283228D01*
X125849157Y-100283228D02*
X125468205Y-100283228D01*
X126420586Y-99854657D02*
X126468205Y-99807038D01*
X126468205Y-99807038D02*
X126563443Y-99759419D01*
X126563443Y-99759419D02*
X126801538Y-99759419D01*
X126801538Y-99759419D02*
X126896776Y-99807038D01*
X126896776Y-99807038D02*
X126944395Y-99854657D01*
X126944395Y-99854657D02*
X126992014Y-99949895D01*
X126992014Y-99949895D02*
X126992014Y-100045133D01*
X126992014Y-100045133D02*
X126944395Y-100187990D01*
X126944395Y-100187990D02*
X126372967Y-100759419D01*
X126372967Y-100759419D02*
X126992014Y-100759419D01*
X105914866Y-106287219D02*
X105914866Y-107001504D01*
X105914866Y-107001504D02*
X105867247Y-107144361D01*
X105867247Y-107144361D02*
X105772009Y-107239600D01*
X105772009Y-107239600D02*
X105629152Y-107287219D01*
X105629152Y-107287219D02*
X105533914Y-107287219D01*
X106914866Y-107287219D02*
X106343438Y-107287219D01*
X106629152Y-107287219D02*
X106629152Y-106287219D01*
X106629152Y-106287219D02*
X106533914Y-106430076D01*
X106533914Y-106430076D02*
X106438676Y-106525314D01*
X106438676Y-106525314D02*
X106343438Y-106572933D01*
X127931119Y-67216257D02*
X127454928Y-67549590D01*
X127931119Y-67787685D02*
X126931119Y-67787685D01*
X126931119Y-67787685D02*
X126931119Y-67406733D01*
X126931119Y-67406733D02*
X126978738Y-67311495D01*
X126978738Y-67311495D02*
X127026357Y-67263876D01*
X127026357Y-67263876D02*
X127121595Y-67216257D01*
X127121595Y-67216257D02*
X127264452Y-67216257D01*
X127264452Y-67216257D02*
X127359690Y-67263876D01*
X127359690Y-67263876D02*
X127407309Y-67311495D01*
X127407309Y-67311495D02*
X127454928Y-67406733D01*
X127454928Y-67406733D02*
X127454928Y-67787685D01*
X127931119Y-66263876D02*
X127931119Y-66835304D01*
X127931119Y-66549590D02*
X126931119Y-66549590D01*
X126931119Y-66549590D02*
X127073976Y-66644828D01*
X127073976Y-66644828D02*
X127169214Y-66740066D01*
X127169214Y-66740066D02*
X127216833Y-66835304D01*
X126931119Y-65644828D02*
X126931119Y-65549590D01*
X126931119Y-65549590D02*
X126978738Y-65454352D01*
X126978738Y-65454352D02*
X127026357Y-65406733D01*
X127026357Y-65406733D02*
X127121595Y-65359114D01*
X127121595Y-65359114D02*
X127312071Y-65311495D01*
X127312071Y-65311495D02*
X127550166Y-65311495D01*
X127550166Y-65311495D02*
X127740642Y-65359114D01*
X127740642Y-65359114D02*
X127835880Y-65406733D01*
X127835880Y-65406733D02*
X127883500Y-65454352D01*
X127883500Y-65454352D02*
X127931119Y-65549590D01*
X127931119Y-65549590D02*
X127931119Y-65644828D01*
X127931119Y-65644828D02*
X127883500Y-65740066D01*
X127883500Y-65740066D02*
X127835880Y-65787685D01*
X127835880Y-65787685D02*
X127740642Y-65835304D01*
X127740642Y-65835304D02*
X127550166Y-65882923D01*
X127550166Y-65882923D02*
X127312071Y-65882923D01*
X127312071Y-65882923D02*
X127121595Y-65835304D01*
X127121595Y-65835304D02*
X127026357Y-65787685D01*
X127026357Y-65787685D02*
X126978738Y-65740066D01*
X126978738Y-65740066D02*
X126931119Y-65644828D01*
X127011133Y-69492019D02*
X126677800Y-69015828D01*
X126439705Y-69492019D02*
X126439705Y-68492019D01*
X126439705Y-68492019D02*
X126820657Y-68492019D01*
X126820657Y-68492019D02*
X126915895Y-68539638D01*
X126915895Y-68539638D02*
X126963514Y-68587257D01*
X126963514Y-68587257D02*
X127011133Y-68682495D01*
X127011133Y-68682495D02*
X127011133Y-68825352D01*
X127011133Y-68825352D02*
X126963514Y-68920590D01*
X126963514Y-68920590D02*
X126915895Y-68968209D01*
X126915895Y-68968209D02*
X126820657Y-69015828D01*
X126820657Y-69015828D02*
X126439705Y-69015828D01*
X127868276Y-68492019D02*
X127677800Y-68492019D01*
X127677800Y-68492019D02*
X127582562Y-68539638D01*
X127582562Y-68539638D02*
X127534943Y-68587257D01*
X127534943Y-68587257D02*
X127439705Y-68730114D01*
X127439705Y-68730114D02*
X127392086Y-68920590D01*
X127392086Y-68920590D02*
X127392086Y-69301542D01*
X127392086Y-69301542D02*
X127439705Y-69396780D01*
X127439705Y-69396780D02*
X127487324Y-69444400D01*
X127487324Y-69444400D02*
X127582562Y-69492019D01*
X127582562Y-69492019D02*
X127773038Y-69492019D01*
X127773038Y-69492019D02*
X127868276Y-69444400D01*
X127868276Y-69444400D02*
X127915895Y-69396780D01*
X127915895Y-69396780D02*
X127963514Y-69301542D01*
X127963514Y-69301542D02*
X127963514Y-69063447D01*
X127963514Y-69063447D02*
X127915895Y-68968209D01*
X127915895Y-68968209D02*
X127868276Y-68920590D01*
X127868276Y-68920590D02*
X127773038Y-68872971D01*
X127773038Y-68872971D02*
X127582562Y-68872971D01*
X127582562Y-68872971D02*
X127487324Y-68920590D01*
X127487324Y-68920590D02*
X127439705Y-68968209D01*
X127439705Y-68968209D02*
X127392086Y-69063447D01*
X120718405Y-73835419D02*
X120718405Y-72835419D01*
X120718405Y-72835419D02*
X120956500Y-72835419D01*
X120956500Y-72835419D02*
X121099357Y-72883038D01*
X121099357Y-72883038D02*
X121194595Y-72978276D01*
X121194595Y-72978276D02*
X121242214Y-73073514D01*
X121242214Y-73073514D02*
X121289833Y-73263990D01*
X121289833Y-73263990D02*
X121289833Y-73406847D01*
X121289833Y-73406847D02*
X121242214Y-73597323D01*
X121242214Y-73597323D02*
X121194595Y-73692561D01*
X121194595Y-73692561D02*
X121099357Y-73787800D01*
X121099357Y-73787800D02*
X120956500Y-73835419D01*
X120956500Y-73835419D02*
X120718405Y-73835419D01*
X122146976Y-73168752D02*
X122146976Y-73835419D01*
X121908881Y-72787800D02*
X121670786Y-73502085D01*
X121670786Y-73502085D02*
X122289833Y-73502085D01*
X151799471Y-69421619D02*
X151466138Y-68945428D01*
X151228043Y-69421619D02*
X151228043Y-68421619D01*
X151228043Y-68421619D02*
X151608995Y-68421619D01*
X151608995Y-68421619D02*
X151704233Y-68469238D01*
X151704233Y-68469238D02*
X151751852Y-68516857D01*
X151751852Y-68516857D02*
X151799471Y-68612095D01*
X151799471Y-68612095D02*
X151799471Y-68754952D01*
X151799471Y-68754952D02*
X151751852Y-68850190D01*
X151751852Y-68850190D02*
X151704233Y-68897809D01*
X151704233Y-68897809D02*
X151608995Y-68945428D01*
X151608995Y-68945428D02*
X151228043Y-68945428D01*
X152228043Y-68897809D02*
X152561376Y-68897809D01*
X152704233Y-69421619D02*
X152228043Y-69421619D01*
X152228043Y-69421619D02*
X152228043Y-68421619D01*
X152228043Y-68421619D02*
X152704233Y-68421619D01*
X153656614Y-68469238D02*
X153561376Y-68421619D01*
X153561376Y-68421619D02*
X153418519Y-68421619D01*
X153418519Y-68421619D02*
X153275662Y-68469238D01*
X153275662Y-68469238D02*
X153180424Y-68564476D01*
X153180424Y-68564476D02*
X153132805Y-68659714D01*
X153132805Y-68659714D02*
X153085186Y-68850190D01*
X153085186Y-68850190D02*
X153085186Y-68993047D01*
X153085186Y-68993047D02*
X153132805Y-69183523D01*
X153132805Y-69183523D02*
X153180424Y-69278761D01*
X153180424Y-69278761D02*
X153275662Y-69374000D01*
X153275662Y-69374000D02*
X153418519Y-69421619D01*
X153418519Y-69421619D02*
X153513757Y-69421619D01*
X153513757Y-69421619D02*
X153656614Y-69374000D01*
X153656614Y-69374000D02*
X153704233Y-69326380D01*
X153704233Y-69326380D02*
X153704233Y-68993047D01*
X153704233Y-68993047D02*
X153513757Y-68993047D01*
X154847091Y-69374000D02*
X154989948Y-69421619D01*
X154989948Y-69421619D02*
X155228043Y-69421619D01*
X155228043Y-69421619D02*
X155323281Y-69374000D01*
X155323281Y-69374000D02*
X155370900Y-69326380D01*
X155370900Y-69326380D02*
X155418519Y-69231142D01*
X155418519Y-69231142D02*
X155418519Y-69135904D01*
X155418519Y-69135904D02*
X155370900Y-69040666D01*
X155370900Y-69040666D02*
X155323281Y-68993047D01*
X155323281Y-68993047D02*
X155228043Y-68945428D01*
X155228043Y-68945428D02*
X155037567Y-68897809D01*
X155037567Y-68897809D02*
X154942329Y-68850190D01*
X154942329Y-68850190D02*
X154894710Y-68802571D01*
X154894710Y-68802571D02*
X154847091Y-68707333D01*
X154847091Y-68707333D02*
X154847091Y-68612095D01*
X154847091Y-68612095D02*
X154894710Y-68516857D01*
X154894710Y-68516857D02*
X154942329Y-68469238D01*
X154942329Y-68469238D02*
X155037567Y-68421619D01*
X155037567Y-68421619D02*
X155275662Y-68421619D01*
X155275662Y-68421619D02*
X155418519Y-68469238D01*
X155751853Y-68421619D02*
X155989948Y-69421619D01*
X155989948Y-69421619D02*
X156180424Y-68707333D01*
X156180424Y-68707333D02*
X156370900Y-69421619D01*
X156370900Y-69421619D02*
X156608996Y-68421619D01*
X112732805Y-84406619D02*
X112732805Y-83406619D01*
X112732805Y-83406619D02*
X112970900Y-83406619D01*
X112970900Y-83406619D02*
X113113757Y-83454238D01*
X113113757Y-83454238D02*
X113208995Y-83549476D01*
X113208995Y-83549476D02*
X113256614Y-83644714D01*
X113256614Y-83644714D02*
X113304233Y-83835190D01*
X113304233Y-83835190D02*
X113304233Y-83978047D01*
X113304233Y-83978047D02*
X113256614Y-84168523D01*
X113256614Y-84168523D02*
X113208995Y-84263761D01*
X113208995Y-84263761D02*
X113113757Y-84359000D01*
X113113757Y-84359000D02*
X112970900Y-84406619D01*
X112970900Y-84406619D02*
X112732805Y-84406619D01*
X113685186Y-83501857D02*
X113732805Y-83454238D01*
X113732805Y-83454238D02*
X113828043Y-83406619D01*
X113828043Y-83406619D02*
X114066138Y-83406619D01*
X114066138Y-83406619D02*
X114161376Y-83454238D01*
X114161376Y-83454238D02*
X114208995Y-83501857D01*
X114208995Y-83501857D02*
X114256614Y-83597095D01*
X114256614Y-83597095D02*
X114256614Y-83692333D01*
X114256614Y-83692333D02*
X114208995Y-83835190D01*
X114208995Y-83835190D02*
X113637567Y-84406619D01*
X113637567Y-84406619D02*
X114256614Y-84406619D01*
X138415842Y-76051580D02*
X138368223Y-76099200D01*
X138368223Y-76099200D02*
X138225366Y-76146819D01*
X138225366Y-76146819D02*
X138130128Y-76146819D01*
X138130128Y-76146819D02*
X137987271Y-76099200D01*
X137987271Y-76099200D02*
X137892033Y-76003961D01*
X137892033Y-76003961D02*
X137844414Y-75908723D01*
X137844414Y-75908723D02*
X137796795Y-75718247D01*
X137796795Y-75718247D02*
X137796795Y-75575390D01*
X137796795Y-75575390D02*
X137844414Y-75384914D01*
X137844414Y-75384914D02*
X137892033Y-75289676D01*
X137892033Y-75289676D02*
X137987271Y-75194438D01*
X137987271Y-75194438D02*
X138130128Y-75146819D01*
X138130128Y-75146819D02*
X138225366Y-75146819D01*
X138225366Y-75146819D02*
X138368223Y-75194438D01*
X138368223Y-75194438D02*
X138415842Y-75242057D01*
X139368223Y-76146819D02*
X138796795Y-76146819D01*
X139082509Y-76146819D02*
X139082509Y-75146819D01*
X139082509Y-75146819D02*
X138987271Y-75289676D01*
X138987271Y-75289676D02*
X138892033Y-75384914D01*
X138892033Y-75384914D02*
X138796795Y-75432533D01*
X140225366Y-75480152D02*
X140225366Y-76146819D01*
X139987271Y-75099200D02*
X139749176Y-75813485D01*
X139749176Y-75813485D02*
X140368223Y-75813485D01*
X118851433Y-87781019D02*
X118518100Y-87304828D01*
X118280005Y-87781019D02*
X118280005Y-86781019D01*
X118280005Y-86781019D02*
X118660957Y-86781019D01*
X118660957Y-86781019D02*
X118756195Y-86828638D01*
X118756195Y-86828638D02*
X118803814Y-86876257D01*
X118803814Y-86876257D02*
X118851433Y-86971495D01*
X118851433Y-86971495D02*
X118851433Y-87114352D01*
X118851433Y-87114352D02*
X118803814Y-87209590D01*
X118803814Y-87209590D02*
X118756195Y-87257209D01*
X118756195Y-87257209D02*
X118660957Y-87304828D01*
X118660957Y-87304828D02*
X118280005Y-87304828D01*
X119184767Y-86781019D02*
X119803814Y-86781019D01*
X119803814Y-86781019D02*
X119470481Y-87161971D01*
X119470481Y-87161971D02*
X119613338Y-87161971D01*
X119613338Y-87161971D02*
X119708576Y-87209590D01*
X119708576Y-87209590D02*
X119756195Y-87257209D01*
X119756195Y-87257209D02*
X119803814Y-87352447D01*
X119803814Y-87352447D02*
X119803814Y-87590542D01*
X119803814Y-87590542D02*
X119756195Y-87685780D01*
X119756195Y-87685780D02*
X119708576Y-87733400D01*
X119708576Y-87733400D02*
X119613338Y-87781019D01*
X119613338Y-87781019D02*
X119327624Y-87781019D01*
X119327624Y-87781019D02*
X119232386Y-87733400D01*
X119232386Y-87733400D02*
X119184767Y-87685780D01*
X121524842Y-83239780D02*
X121477223Y-83287400D01*
X121477223Y-83287400D02*
X121334366Y-83335019D01*
X121334366Y-83335019D02*
X121239128Y-83335019D01*
X121239128Y-83335019D02*
X121096271Y-83287400D01*
X121096271Y-83287400D02*
X121001033Y-83192161D01*
X121001033Y-83192161D02*
X120953414Y-83096923D01*
X120953414Y-83096923D02*
X120905795Y-82906447D01*
X120905795Y-82906447D02*
X120905795Y-82763590D01*
X120905795Y-82763590D02*
X120953414Y-82573114D01*
X120953414Y-82573114D02*
X121001033Y-82477876D01*
X121001033Y-82477876D02*
X121096271Y-82382638D01*
X121096271Y-82382638D02*
X121239128Y-82335019D01*
X121239128Y-82335019D02*
X121334366Y-82335019D01*
X121334366Y-82335019D02*
X121477223Y-82382638D01*
X121477223Y-82382638D02*
X121524842Y-82430257D01*
X121905795Y-82430257D02*
X121953414Y-82382638D01*
X121953414Y-82382638D02*
X122048652Y-82335019D01*
X122048652Y-82335019D02*
X122286747Y-82335019D01*
X122286747Y-82335019D02*
X122381985Y-82382638D01*
X122381985Y-82382638D02*
X122429604Y-82430257D01*
X122429604Y-82430257D02*
X122477223Y-82525495D01*
X122477223Y-82525495D02*
X122477223Y-82620733D01*
X122477223Y-82620733D02*
X122429604Y-82763590D01*
X122429604Y-82763590D02*
X121858176Y-83335019D01*
X121858176Y-83335019D02*
X122477223Y-83335019D01*
X123381985Y-82335019D02*
X122905795Y-82335019D01*
X122905795Y-82335019D02*
X122858176Y-82811209D01*
X122858176Y-82811209D02*
X122905795Y-82763590D01*
X122905795Y-82763590D02*
X123001033Y-82715971D01*
X123001033Y-82715971D02*
X123239128Y-82715971D01*
X123239128Y-82715971D02*
X123334366Y-82763590D01*
X123334366Y-82763590D02*
X123381985Y-82811209D01*
X123381985Y-82811209D02*
X123429604Y-82906447D01*
X123429604Y-82906447D02*
X123429604Y-83144542D01*
X123429604Y-83144542D02*
X123381985Y-83239780D01*
X123381985Y-83239780D02*
X123334366Y-83287400D01*
X123334366Y-83287400D02*
X123239128Y-83335019D01*
X123239128Y-83335019D02*
X123001033Y-83335019D01*
X123001033Y-83335019D02*
X122905795Y-83287400D01*
X122905795Y-83287400D02*
X122858176Y-83239780D01*
X143609280Y-59774057D02*
X143656900Y-59821676D01*
X143656900Y-59821676D02*
X143704519Y-59964533D01*
X143704519Y-59964533D02*
X143704519Y-60059771D01*
X143704519Y-60059771D02*
X143656900Y-60202628D01*
X143656900Y-60202628D02*
X143561661Y-60297866D01*
X143561661Y-60297866D02*
X143466423Y-60345485D01*
X143466423Y-60345485D02*
X143275947Y-60393104D01*
X143275947Y-60393104D02*
X143133090Y-60393104D01*
X143133090Y-60393104D02*
X142942614Y-60345485D01*
X142942614Y-60345485D02*
X142847376Y-60297866D01*
X142847376Y-60297866D02*
X142752138Y-60202628D01*
X142752138Y-60202628D02*
X142704519Y-60059771D01*
X142704519Y-60059771D02*
X142704519Y-59964533D01*
X142704519Y-59964533D02*
X142752138Y-59821676D01*
X142752138Y-59821676D02*
X142799757Y-59774057D01*
X143704519Y-58821676D02*
X143704519Y-59393104D01*
X143704519Y-59107390D02*
X142704519Y-59107390D01*
X142704519Y-59107390D02*
X142847376Y-59202628D01*
X142847376Y-59202628D02*
X142942614Y-59297866D01*
X142942614Y-59297866D02*
X142990233Y-59393104D01*
X142704519Y-58488342D02*
X142704519Y-57821676D01*
X142704519Y-57821676D02*
X143704519Y-58250247D01*
X152055642Y-93018780D02*
X152008023Y-93066400D01*
X152008023Y-93066400D02*
X151865166Y-93114019D01*
X151865166Y-93114019D02*
X151769928Y-93114019D01*
X151769928Y-93114019D02*
X151627071Y-93066400D01*
X151627071Y-93066400D02*
X151531833Y-92971161D01*
X151531833Y-92971161D02*
X151484214Y-92875923D01*
X151484214Y-92875923D02*
X151436595Y-92685447D01*
X151436595Y-92685447D02*
X151436595Y-92542590D01*
X151436595Y-92542590D02*
X151484214Y-92352114D01*
X151484214Y-92352114D02*
X151531833Y-92256876D01*
X151531833Y-92256876D02*
X151627071Y-92161638D01*
X151627071Y-92161638D02*
X151769928Y-92114019D01*
X151769928Y-92114019D02*
X151865166Y-92114019D01*
X151865166Y-92114019D02*
X152008023Y-92161638D01*
X152008023Y-92161638D02*
X152055642Y-92209257D01*
X152436595Y-92209257D02*
X152484214Y-92161638D01*
X152484214Y-92161638D02*
X152579452Y-92114019D01*
X152579452Y-92114019D02*
X152817547Y-92114019D01*
X152817547Y-92114019D02*
X152912785Y-92161638D01*
X152912785Y-92161638D02*
X152960404Y-92209257D01*
X152960404Y-92209257D02*
X153008023Y-92304495D01*
X153008023Y-92304495D02*
X153008023Y-92399733D01*
X153008023Y-92399733D02*
X152960404Y-92542590D01*
X152960404Y-92542590D02*
X152388976Y-93114019D01*
X152388976Y-93114019D02*
X153008023Y-93114019D01*
X153865166Y-92114019D02*
X153674690Y-92114019D01*
X153674690Y-92114019D02*
X153579452Y-92161638D01*
X153579452Y-92161638D02*
X153531833Y-92209257D01*
X153531833Y-92209257D02*
X153436595Y-92352114D01*
X153436595Y-92352114D02*
X153388976Y-92542590D01*
X153388976Y-92542590D02*
X153388976Y-92923542D01*
X153388976Y-92923542D02*
X153436595Y-93018780D01*
X153436595Y-93018780D02*
X153484214Y-93066400D01*
X153484214Y-93066400D02*
X153579452Y-93114019D01*
X153579452Y-93114019D02*
X153769928Y-93114019D01*
X153769928Y-93114019D02*
X153865166Y-93066400D01*
X153865166Y-93066400D02*
X153912785Y-93018780D01*
X153912785Y-93018780D02*
X153960404Y-92923542D01*
X153960404Y-92923542D02*
X153960404Y-92685447D01*
X153960404Y-92685447D02*
X153912785Y-92590209D01*
X153912785Y-92590209D02*
X153865166Y-92542590D01*
X153865166Y-92542590D02*
X153769928Y-92494971D01*
X153769928Y-92494971D02*
X153579452Y-92494971D01*
X153579452Y-92494971D02*
X153484214Y-92542590D01*
X153484214Y-92542590D02*
X153436595Y-92590209D01*
X153436595Y-92590209D02*
X153388976Y-92685447D01*
X148926166Y-58912419D02*
X148926166Y-59626704D01*
X148926166Y-59626704D02*
X148878547Y-59769561D01*
X148878547Y-59769561D02*
X148783309Y-59864800D01*
X148783309Y-59864800D02*
X148640452Y-59912419D01*
X148640452Y-59912419D02*
X148545214Y-59912419D01*
X149878547Y-58912419D02*
X149402357Y-58912419D01*
X149402357Y-58912419D02*
X149354738Y-59388609D01*
X149354738Y-59388609D02*
X149402357Y-59340990D01*
X149402357Y-59340990D02*
X149497595Y-59293371D01*
X149497595Y-59293371D02*
X149735690Y-59293371D01*
X149735690Y-59293371D02*
X149830928Y-59340990D01*
X149830928Y-59340990D02*
X149878547Y-59388609D01*
X149878547Y-59388609D02*
X149926166Y-59483847D01*
X149926166Y-59483847D02*
X149926166Y-59721942D01*
X149926166Y-59721942D02*
X149878547Y-59817180D01*
X149878547Y-59817180D02*
X149830928Y-59864800D01*
X149830928Y-59864800D02*
X149735690Y-59912419D01*
X149735690Y-59912419D02*
X149497595Y-59912419D01*
X149497595Y-59912419D02*
X149402357Y-59864800D01*
X149402357Y-59864800D02*
X149354738Y-59817180D01*
X135520242Y-58246180D02*
X135472623Y-58293800D01*
X135472623Y-58293800D02*
X135329766Y-58341419D01*
X135329766Y-58341419D02*
X135234528Y-58341419D01*
X135234528Y-58341419D02*
X135091671Y-58293800D01*
X135091671Y-58293800D02*
X134996433Y-58198561D01*
X134996433Y-58198561D02*
X134948814Y-58103323D01*
X134948814Y-58103323D02*
X134901195Y-57912847D01*
X134901195Y-57912847D02*
X134901195Y-57769990D01*
X134901195Y-57769990D02*
X134948814Y-57579514D01*
X134948814Y-57579514D02*
X134996433Y-57484276D01*
X134996433Y-57484276D02*
X135091671Y-57389038D01*
X135091671Y-57389038D02*
X135234528Y-57341419D01*
X135234528Y-57341419D02*
X135329766Y-57341419D01*
X135329766Y-57341419D02*
X135472623Y-57389038D01*
X135472623Y-57389038D02*
X135520242Y-57436657D01*
X136472623Y-58341419D02*
X135901195Y-58341419D01*
X136186909Y-58341419D02*
X136186909Y-57341419D01*
X136186909Y-57341419D02*
X136091671Y-57484276D01*
X136091671Y-57484276D02*
X135996433Y-57579514D01*
X135996433Y-57579514D02*
X135901195Y-57627133D01*
X137044052Y-57769990D02*
X136948814Y-57722371D01*
X136948814Y-57722371D02*
X136901195Y-57674752D01*
X136901195Y-57674752D02*
X136853576Y-57579514D01*
X136853576Y-57579514D02*
X136853576Y-57531895D01*
X136853576Y-57531895D02*
X136901195Y-57436657D01*
X136901195Y-57436657D02*
X136948814Y-57389038D01*
X136948814Y-57389038D02*
X137044052Y-57341419D01*
X137044052Y-57341419D02*
X137234528Y-57341419D01*
X137234528Y-57341419D02*
X137329766Y-57389038D01*
X137329766Y-57389038D02*
X137377385Y-57436657D01*
X137377385Y-57436657D02*
X137425004Y-57531895D01*
X137425004Y-57531895D02*
X137425004Y-57579514D01*
X137425004Y-57579514D02*
X137377385Y-57674752D01*
X137377385Y-57674752D02*
X137329766Y-57722371D01*
X137329766Y-57722371D02*
X137234528Y-57769990D01*
X137234528Y-57769990D02*
X137044052Y-57769990D01*
X137044052Y-57769990D02*
X136948814Y-57817609D01*
X136948814Y-57817609D02*
X136901195Y-57865228D01*
X136901195Y-57865228D02*
X136853576Y-57960466D01*
X136853576Y-57960466D02*
X136853576Y-58150942D01*
X136853576Y-58150942D02*
X136901195Y-58246180D01*
X136901195Y-58246180D02*
X136948814Y-58293800D01*
X136948814Y-58293800D02*
X137044052Y-58341419D01*
X137044052Y-58341419D02*
X137234528Y-58341419D01*
X137234528Y-58341419D02*
X137329766Y-58293800D01*
X137329766Y-58293800D02*
X137377385Y-58246180D01*
X137377385Y-58246180D02*
X137425004Y-58150942D01*
X137425004Y-58150942D02*
X137425004Y-57960466D01*
X137425004Y-57960466D02*
X137377385Y-57865228D01*
X137377385Y-57865228D02*
X137329766Y-57817609D01*
X137329766Y-57817609D02*
X137234528Y-57769990D01*
X142346042Y-86926080D02*
X142298423Y-86973700D01*
X142298423Y-86973700D02*
X142155566Y-87021319D01*
X142155566Y-87021319D02*
X142060328Y-87021319D01*
X142060328Y-87021319D02*
X141917471Y-86973700D01*
X141917471Y-86973700D02*
X141822233Y-86878461D01*
X141822233Y-86878461D02*
X141774614Y-86783223D01*
X141774614Y-86783223D02*
X141726995Y-86592747D01*
X141726995Y-86592747D02*
X141726995Y-86449890D01*
X141726995Y-86449890D02*
X141774614Y-86259414D01*
X141774614Y-86259414D02*
X141822233Y-86164176D01*
X141822233Y-86164176D02*
X141917471Y-86068938D01*
X141917471Y-86068938D02*
X142060328Y-86021319D01*
X142060328Y-86021319D02*
X142155566Y-86021319D01*
X142155566Y-86021319D02*
X142298423Y-86068938D01*
X142298423Y-86068938D02*
X142346042Y-86116557D01*
X142726995Y-86116557D02*
X142774614Y-86068938D01*
X142774614Y-86068938D02*
X142869852Y-86021319D01*
X142869852Y-86021319D02*
X143107947Y-86021319D01*
X143107947Y-86021319D02*
X143203185Y-86068938D01*
X143203185Y-86068938D02*
X143250804Y-86116557D01*
X143250804Y-86116557D02*
X143298423Y-86211795D01*
X143298423Y-86211795D02*
X143298423Y-86307033D01*
X143298423Y-86307033D02*
X143250804Y-86449890D01*
X143250804Y-86449890D02*
X142679376Y-87021319D01*
X142679376Y-87021319D02*
X143298423Y-87021319D01*
X143917471Y-86021319D02*
X144012709Y-86021319D01*
X144012709Y-86021319D02*
X144107947Y-86068938D01*
X144107947Y-86068938D02*
X144155566Y-86116557D01*
X144155566Y-86116557D02*
X144203185Y-86211795D01*
X144203185Y-86211795D02*
X144250804Y-86402271D01*
X144250804Y-86402271D02*
X144250804Y-86640366D01*
X144250804Y-86640366D02*
X144203185Y-86830842D01*
X144203185Y-86830842D02*
X144155566Y-86926080D01*
X144155566Y-86926080D02*
X144107947Y-86973700D01*
X144107947Y-86973700D02*
X144012709Y-87021319D01*
X144012709Y-87021319D02*
X143917471Y-87021319D01*
X143917471Y-87021319D02*
X143822233Y-86973700D01*
X143822233Y-86973700D02*
X143774614Y-86926080D01*
X143774614Y-86926080D02*
X143726995Y-86830842D01*
X143726995Y-86830842D02*
X143679376Y-86640366D01*
X143679376Y-86640366D02*
X143679376Y-86402271D01*
X143679376Y-86402271D02*
X143726995Y-86211795D01*
X143726995Y-86211795D02*
X143774614Y-86116557D01*
X143774614Y-86116557D02*
X143822233Y-86068938D01*
X143822233Y-86068938D02*
X143917471Y-86021319D01*
X153141433Y-84077980D02*
X153093814Y-84125600D01*
X153093814Y-84125600D02*
X152950957Y-84173219D01*
X152950957Y-84173219D02*
X152855719Y-84173219D01*
X152855719Y-84173219D02*
X152712862Y-84125600D01*
X152712862Y-84125600D02*
X152617624Y-84030361D01*
X152617624Y-84030361D02*
X152570005Y-83935123D01*
X152570005Y-83935123D02*
X152522386Y-83744647D01*
X152522386Y-83744647D02*
X152522386Y-83601790D01*
X152522386Y-83601790D02*
X152570005Y-83411314D01*
X152570005Y-83411314D02*
X152617624Y-83316076D01*
X152617624Y-83316076D02*
X152712862Y-83220838D01*
X152712862Y-83220838D02*
X152855719Y-83173219D01*
X152855719Y-83173219D02*
X152950957Y-83173219D01*
X152950957Y-83173219D02*
X153093814Y-83220838D01*
X153093814Y-83220838D02*
X153141433Y-83268457D01*
X153998576Y-83173219D02*
X153808100Y-83173219D01*
X153808100Y-83173219D02*
X153712862Y-83220838D01*
X153712862Y-83220838D02*
X153665243Y-83268457D01*
X153665243Y-83268457D02*
X153570005Y-83411314D01*
X153570005Y-83411314D02*
X153522386Y-83601790D01*
X153522386Y-83601790D02*
X153522386Y-83982742D01*
X153522386Y-83982742D02*
X153570005Y-84077980D01*
X153570005Y-84077980D02*
X153617624Y-84125600D01*
X153617624Y-84125600D02*
X153712862Y-84173219D01*
X153712862Y-84173219D02*
X153903338Y-84173219D01*
X153903338Y-84173219D02*
X153998576Y-84125600D01*
X153998576Y-84125600D02*
X154046195Y-84077980D01*
X154046195Y-84077980D02*
X154093814Y-83982742D01*
X154093814Y-83982742D02*
X154093814Y-83744647D01*
X154093814Y-83744647D02*
X154046195Y-83649409D01*
X154046195Y-83649409D02*
X153998576Y-83601790D01*
X153998576Y-83601790D02*
X153903338Y-83554171D01*
X153903338Y-83554171D02*
X153712862Y-83554171D01*
X153712862Y-83554171D02*
X153617624Y-83601790D01*
X153617624Y-83601790D02*
X153570005Y-83649409D01*
X153570005Y-83649409D02*
X153522386Y-83744647D01*
X159882766Y-106351019D02*
X159882766Y-107065304D01*
X159882766Y-107065304D02*
X159835147Y-107208161D01*
X159835147Y-107208161D02*
X159739909Y-107303400D01*
X159739909Y-107303400D02*
X159597052Y-107351019D01*
X159597052Y-107351019D02*
X159501814Y-107351019D01*
X160787528Y-106351019D02*
X160597052Y-106351019D01*
X160597052Y-106351019D02*
X160501814Y-106398638D01*
X160501814Y-106398638D02*
X160454195Y-106446257D01*
X160454195Y-106446257D02*
X160358957Y-106589114D01*
X160358957Y-106589114D02*
X160311338Y-106779590D01*
X160311338Y-106779590D02*
X160311338Y-107160542D01*
X160311338Y-107160542D02*
X160358957Y-107255780D01*
X160358957Y-107255780D02*
X160406576Y-107303400D01*
X160406576Y-107303400D02*
X160501814Y-107351019D01*
X160501814Y-107351019D02*
X160692290Y-107351019D01*
X160692290Y-107351019D02*
X160787528Y-107303400D01*
X160787528Y-107303400D02*
X160835147Y-107255780D01*
X160835147Y-107255780D02*
X160882766Y-107160542D01*
X160882766Y-107160542D02*
X160882766Y-106922447D01*
X160882766Y-106922447D02*
X160835147Y-106827209D01*
X160835147Y-106827209D02*
X160787528Y-106779590D01*
X160787528Y-106779590D02*
X160692290Y-106731971D01*
X160692290Y-106731971D02*
X160501814Y-106731971D01*
X160501814Y-106731971D02*
X160406576Y-106779590D01*
X160406576Y-106779590D02*
X160358957Y-106827209D01*
X160358957Y-106827209D02*
X160311338Y-106922447D01*
X138314242Y-62056180D02*
X138266623Y-62103800D01*
X138266623Y-62103800D02*
X138123766Y-62151419D01*
X138123766Y-62151419D02*
X138028528Y-62151419D01*
X138028528Y-62151419D02*
X137885671Y-62103800D01*
X137885671Y-62103800D02*
X137790433Y-62008561D01*
X137790433Y-62008561D02*
X137742814Y-61913323D01*
X137742814Y-61913323D02*
X137695195Y-61722847D01*
X137695195Y-61722847D02*
X137695195Y-61579990D01*
X137695195Y-61579990D02*
X137742814Y-61389514D01*
X137742814Y-61389514D02*
X137790433Y-61294276D01*
X137790433Y-61294276D02*
X137885671Y-61199038D01*
X137885671Y-61199038D02*
X138028528Y-61151419D01*
X138028528Y-61151419D02*
X138123766Y-61151419D01*
X138123766Y-61151419D02*
X138266623Y-61199038D01*
X138266623Y-61199038D02*
X138314242Y-61246657D01*
X138695195Y-61246657D02*
X138742814Y-61199038D01*
X138742814Y-61199038D02*
X138838052Y-61151419D01*
X138838052Y-61151419D02*
X139076147Y-61151419D01*
X139076147Y-61151419D02*
X139171385Y-61199038D01*
X139171385Y-61199038D02*
X139219004Y-61246657D01*
X139219004Y-61246657D02*
X139266623Y-61341895D01*
X139266623Y-61341895D02*
X139266623Y-61437133D01*
X139266623Y-61437133D02*
X139219004Y-61579990D01*
X139219004Y-61579990D02*
X138647576Y-62151419D01*
X138647576Y-62151419D02*
X139266623Y-62151419D01*
X139599957Y-61151419D02*
X140219004Y-61151419D01*
X140219004Y-61151419D02*
X139885671Y-61532371D01*
X139885671Y-61532371D02*
X140028528Y-61532371D01*
X140028528Y-61532371D02*
X140123766Y-61579990D01*
X140123766Y-61579990D02*
X140171385Y-61627609D01*
X140171385Y-61627609D02*
X140219004Y-61722847D01*
X140219004Y-61722847D02*
X140219004Y-61960942D01*
X140219004Y-61960942D02*
X140171385Y-62056180D01*
X140171385Y-62056180D02*
X140123766Y-62103800D01*
X140123766Y-62103800D02*
X140028528Y-62151419D01*
X140028528Y-62151419D02*
X139742814Y-62151419D01*
X139742814Y-62151419D02*
X139647576Y-62103800D01*
X139647576Y-62103800D02*
X139599957Y-62056180D01*
X118073709Y-66859901D02*
X118073709Y-67574186D01*
X118073709Y-67574186D02*
X118026090Y-67717043D01*
X118026090Y-67717043D02*
X117930852Y-67812282D01*
X117930852Y-67812282D02*
X117787995Y-67859901D01*
X117787995Y-67859901D02*
X117692757Y-67859901D01*
X118597519Y-67859901D02*
X118787995Y-67859901D01*
X118787995Y-67859901D02*
X118883233Y-67812282D01*
X118883233Y-67812282D02*
X118930852Y-67764662D01*
X118930852Y-67764662D02*
X119026090Y-67621805D01*
X119026090Y-67621805D02*
X119073709Y-67431329D01*
X119073709Y-67431329D02*
X119073709Y-67050377D01*
X119073709Y-67050377D02*
X119026090Y-66955139D01*
X119026090Y-66955139D02*
X118978471Y-66907520D01*
X118978471Y-66907520D02*
X118883233Y-66859901D01*
X118883233Y-66859901D02*
X118692757Y-66859901D01*
X118692757Y-66859901D02*
X118597519Y-66907520D01*
X118597519Y-66907520D02*
X118549900Y-66955139D01*
X118549900Y-66955139D02*
X118502281Y-67050377D01*
X118502281Y-67050377D02*
X118502281Y-67288472D01*
X118502281Y-67288472D02*
X118549900Y-67383710D01*
X118549900Y-67383710D02*
X118597519Y-67431329D01*
X118597519Y-67431329D02*
X118692757Y-67478948D01*
X118692757Y-67478948D02*
X118883233Y-67478948D01*
X118883233Y-67478948D02*
X118978471Y-67431329D01*
X118978471Y-67431329D02*
X119026090Y-67383710D01*
X119026090Y-67383710D02*
X119073709Y-67288472D01*
X103585719Y-90317733D02*
X104300004Y-90317733D01*
X104300004Y-90317733D02*
X104442861Y-90365352D01*
X104442861Y-90365352D02*
X104538100Y-90460590D01*
X104538100Y-90460590D02*
X104585719Y-90603447D01*
X104585719Y-90603447D02*
X104585719Y-90698685D01*
X103585719Y-89936780D02*
X103585719Y-89317733D01*
X103585719Y-89317733D02*
X103966671Y-89651066D01*
X103966671Y-89651066D02*
X103966671Y-89508209D01*
X103966671Y-89508209D02*
X104014290Y-89412971D01*
X104014290Y-89412971D02*
X104061909Y-89365352D01*
X104061909Y-89365352D02*
X104157147Y-89317733D01*
X104157147Y-89317733D02*
X104395242Y-89317733D01*
X104395242Y-89317733D02*
X104490480Y-89365352D01*
X104490480Y-89365352D02*
X104538100Y-89412971D01*
X104538100Y-89412971D02*
X104585719Y-89508209D01*
X104585719Y-89508209D02*
X104585719Y-89793923D01*
X104585719Y-89793923D02*
X104538100Y-89889161D01*
X104538100Y-89889161D02*
X104490480Y-89936780D01*
X142678042Y-93301480D02*
X142630423Y-93349100D01*
X142630423Y-93349100D02*
X142487566Y-93396719D01*
X142487566Y-93396719D02*
X142392328Y-93396719D01*
X142392328Y-93396719D02*
X142249471Y-93349100D01*
X142249471Y-93349100D02*
X142154233Y-93253861D01*
X142154233Y-93253861D02*
X142106614Y-93158623D01*
X142106614Y-93158623D02*
X142058995Y-92968147D01*
X142058995Y-92968147D02*
X142058995Y-92825290D01*
X142058995Y-92825290D02*
X142106614Y-92634814D01*
X142106614Y-92634814D02*
X142154233Y-92539576D01*
X142154233Y-92539576D02*
X142249471Y-92444338D01*
X142249471Y-92444338D02*
X142392328Y-92396719D01*
X142392328Y-92396719D02*
X142487566Y-92396719D01*
X142487566Y-92396719D02*
X142630423Y-92444338D01*
X142630423Y-92444338D02*
X142678042Y-92491957D01*
X143630423Y-93396719D02*
X143058995Y-93396719D01*
X143344709Y-93396719D02*
X143344709Y-92396719D01*
X143344709Y-92396719D02*
X143249471Y-92539576D01*
X143249471Y-92539576D02*
X143154233Y-92634814D01*
X143154233Y-92634814D02*
X143058995Y-92682433D01*
X144106614Y-93396719D02*
X144297090Y-93396719D01*
X144297090Y-93396719D02*
X144392328Y-93349100D01*
X144392328Y-93349100D02*
X144439947Y-93301480D01*
X144439947Y-93301480D02*
X144535185Y-93158623D01*
X144535185Y-93158623D02*
X144582804Y-92968147D01*
X144582804Y-92968147D02*
X144582804Y-92587195D01*
X144582804Y-92587195D02*
X144535185Y-92491957D01*
X144535185Y-92491957D02*
X144487566Y-92444338D01*
X144487566Y-92444338D02*
X144392328Y-92396719D01*
X144392328Y-92396719D02*
X144201852Y-92396719D01*
X144201852Y-92396719D02*
X144106614Y-92444338D01*
X144106614Y-92444338D02*
X144058995Y-92491957D01*
X144058995Y-92491957D02*
X144011376Y-92587195D01*
X144011376Y-92587195D02*
X144011376Y-92825290D01*
X144011376Y-92825290D02*
X144058995Y-92920528D01*
X144058995Y-92920528D02*
X144106614Y-92968147D01*
X144106614Y-92968147D02*
X144201852Y-93015766D01*
X144201852Y-93015766D02*
X144392328Y-93015766D01*
X144392328Y-93015766D02*
X144487566Y-92968147D01*
X144487566Y-92968147D02*
X144535185Y-92920528D01*
X144535185Y-92920528D02*
X144582804Y-92825290D01*
X154301866Y-106642819D02*
X154301866Y-107357104D01*
X154301866Y-107357104D02*
X154254247Y-107499961D01*
X154254247Y-107499961D02*
X154159009Y-107595200D01*
X154159009Y-107595200D02*
X154016152Y-107642819D01*
X154016152Y-107642819D02*
X153920914Y-107642819D01*
X154730438Y-106738057D02*
X154778057Y-106690438D01*
X154778057Y-106690438D02*
X154873295Y-106642819D01*
X154873295Y-106642819D02*
X155111390Y-106642819D01*
X155111390Y-106642819D02*
X155206628Y-106690438D01*
X155206628Y-106690438D02*
X155254247Y-106738057D01*
X155254247Y-106738057D02*
X155301866Y-106833295D01*
X155301866Y-106833295D02*
X155301866Y-106928533D01*
X155301866Y-106928533D02*
X155254247Y-107071390D01*
X155254247Y-107071390D02*
X154682819Y-107642819D01*
X154682819Y-107642819D02*
X155301866Y-107642819D01*
X134269233Y-98098780D02*
X134221614Y-98146400D01*
X134221614Y-98146400D02*
X134078757Y-98194019D01*
X134078757Y-98194019D02*
X133983519Y-98194019D01*
X133983519Y-98194019D02*
X133840662Y-98146400D01*
X133840662Y-98146400D02*
X133745424Y-98051161D01*
X133745424Y-98051161D02*
X133697805Y-97955923D01*
X133697805Y-97955923D02*
X133650186Y-97765447D01*
X133650186Y-97765447D02*
X133650186Y-97622590D01*
X133650186Y-97622590D02*
X133697805Y-97432114D01*
X133697805Y-97432114D02*
X133745424Y-97336876D01*
X133745424Y-97336876D02*
X133840662Y-97241638D01*
X133840662Y-97241638D02*
X133983519Y-97194019D01*
X133983519Y-97194019D02*
X134078757Y-97194019D01*
X134078757Y-97194019D02*
X134221614Y-97241638D01*
X134221614Y-97241638D02*
X134269233Y-97289257D01*
X135126376Y-97527352D02*
X135126376Y-98194019D01*
X134888281Y-97146400D02*
X134650186Y-97860685D01*
X134650186Y-97860685D02*
X135269233Y-97860685D01*
X124496480Y-94306266D02*
X124544100Y-94353885D01*
X124544100Y-94353885D02*
X124591719Y-94496742D01*
X124591719Y-94496742D02*
X124591719Y-94591980D01*
X124591719Y-94591980D02*
X124544100Y-94734837D01*
X124544100Y-94734837D02*
X124448861Y-94830075D01*
X124448861Y-94830075D02*
X124353623Y-94877694D01*
X124353623Y-94877694D02*
X124163147Y-94925313D01*
X124163147Y-94925313D02*
X124020290Y-94925313D01*
X124020290Y-94925313D02*
X123829814Y-94877694D01*
X123829814Y-94877694D02*
X123734576Y-94830075D01*
X123734576Y-94830075D02*
X123639338Y-94734837D01*
X123639338Y-94734837D02*
X123591719Y-94591980D01*
X123591719Y-94591980D02*
X123591719Y-94496742D01*
X123591719Y-94496742D02*
X123639338Y-94353885D01*
X123639338Y-94353885D02*
X123686957Y-94306266D01*
X124591719Y-93353885D02*
X124591719Y-93925313D01*
X124591719Y-93639599D02*
X123591719Y-93639599D01*
X123591719Y-93639599D02*
X123734576Y-93734837D01*
X123734576Y-93734837D02*
X123829814Y-93830075D01*
X123829814Y-93830075D02*
X123877433Y-93925313D01*
X158368633Y-87438880D02*
X158321014Y-87486500D01*
X158321014Y-87486500D02*
X158178157Y-87534119D01*
X158178157Y-87534119D02*
X158082919Y-87534119D01*
X158082919Y-87534119D02*
X157940062Y-87486500D01*
X157940062Y-87486500D02*
X157844824Y-87391261D01*
X157844824Y-87391261D02*
X157797205Y-87296023D01*
X157797205Y-87296023D02*
X157749586Y-87105547D01*
X157749586Y-87105547D02*
X157749586Y-86962690D01*
X157749586Y-86962690D02*
X157797205Y-86772214D01*
X157797205Y-86772214D02*
X157844824Y-86676976D01*
X157844824Y-86676976D02*
X157940062Y-86581738D01*
X157940062Y-86581738D02*
X158082919Y-86534119D01*
X158082919Y-86534119D02*
X158178157Y-86534119D01*
X158178157Y-86534119D02*
X158321014Y-86581738D01*
X158321014Y-86581738D02*
X158368633Y-86629357D01*
X158844824Y-87534119D02*
X159035300Y-87534119D01*
X159035300Y-87534119D02*
X159130538Y-87486500D01*
X159130538Y-87486500D02*
X159178157Y-87438880D01*
X159178157Y-87438880D02*
X159273395Y-87296023D01*
X159273395Y-87296023D02*
X159321014Y-87105547D01*
X159321014Y-87105547D02*
X159321014Y-86724595D01*
X159321014Y-86724595D02*
X159273395Y-86629357D01*
X159273395Y-86629357D02*
X159225776Y-86581738D01*
X159225776Y-86581738D02*
X159130538Y-86534119D01*
X159130538Y-86534119D02*
X158940062Y-86534119D01*
X158940062Y-86534119D02*
X158844824Y-86581738D01*
X158844824Y-86581738D02*
X158797205Y-86629357D01*
X158797205Y-86629357D02*
X158749586Y-86724595D01*
X158749586Y-86724595D02*
X158749586Y-86962690D01*
X158749586Y-86962690D02*
X158797205Y-87057928D01*
X158797205Y-87057928D02*
X158844824Y-87105547D01*
X158844824Y-87105547D02*
X158940062Y-87153166D01*
X158940062Y-87153166D02*
X159130538Y-87153166D01*
X159130538Y-87153166D02*
X159225776Y-87105547D01*
X159225776Y-87105547D02*
X159273395Y-87057928D01*
X159273395Y-87057928D02*
X159321014Y-86962690D01*
X118826033Y-93313619D02*
X118492700Y-92837428D01*
X118254605Y-93313619D02*
X118254605Y-92313619D01*
X118254605Y-92313619D02*
X118635557Y-92313619D01*
X118635557Y-92313619D02*
X118730795Y-92361238D01*
X118730795Y-92361238D02*
X118778414Y-92408857D01*
X118778414Y-92408857D02*
X118826033Y-92504095D01*
X118826033Y-92504095D02*
X118826033Y-92646952D01*
X118826033Y-92646952D02*
X118778414Y-92742190D01*
X118778414Y-92742190D02*
X118730795Y-92789809D01*
X118730795Y-92789809D02*
X118635557Y-92837428D01*
X118635557Y-92837428D02*
X118254605Y-92837428D01*
X119683176Y-92646952D02*
X119683176Y-93313619D01*
X119445081Y-92266000D02*
X119206986Y-92980285D01*
X119206986Y-92980285D02*
X119826033Y-92980285D01*
X137312942Y-90069580D02*
X137265323Y-90117200D01*
X137265323Y-90117200D02*
X137122466Y-90164819D01*
X137122466Y-90164819D02*
X137027228Y-90164819D01*
X137027228Y-90164819D02*
X136884371Y-90117200D01*
X136884371Y-90117200D02*
X136789133Y-90021961D01*
X136789133Y-90021961D02*
X136741514Y-89926723D01*
X136741514Y-89926723D02*
X136693895Y-89736247D01*
X136693895Y-89736247D02*
X136693895Y-89593390D01*
X136693895Y-89593390D02*
X136741514Y-89402914D01*
X136741514Y-89402914D02*
X136789133Y-89307676D01*
X136789133Y-89307676D02*
X136884371Y-89212438D01*
X136884371Y-89212438D02*
X137027228Y-89164819D01*
X137027228Y-89164819D02*
X137122466Y-89164819D01*
X137122466Y-89164819D02*
X137265323Y-89212438D01*
X137265323Y-89212438D02*
X137312942Y-89260057D01*
X137693895Y-89260057D02*
X137741514Y-89212438D01*
X137741514Y-89212438D02*
X137836752Y-89164819D01*
X137836752Y-89164819D02*
X138074847Y-89164819D01*
X138074847Y-89164819D02*
X138170085Y-89212438D01*
X138170085Y-89212438D02*
X138217704Y-89260057D01*
X138217704Y-89260057D02*
X138265323Y-89355295D01*
X138265323Y-89355295D02*
X138265323Y-89450533D01*
X138265323Y-89450533D02*
X138217704Y-89593390D01*
X138217704Y-89593390D02*
X137646276Y-90164819D01*
X137646276Y-90164819D02*
X138265323Y-90164819D01*
X139122466Y-89498152D02*
X139122466Y-90164819D01*
X138884371Y-89117200D02*
X138646276Y-89831485D01*
X138646276Y-89831485D02*
X139265323Y-89831485D01*
X112254233Y-86671619D02*
X111920900Y-86195428D01*
X111682805Y-86671619D02*
X111682805Y-85671619D01*
X111682805Y-85671619D02*
X112063757Y-85671619D01*
X112063757Y-85671619D02*
X112158995Y-85719238D01*
X112158995Y-85719238D02*
X112206614Y-85766857D01*
X112206614Y-85766857D02*
X112254233Y-85862095D01*
X112254233Y-85862095D02*
X112254233Y-86004952D01*
X112254233Y-86004952D02*
X112206614Y-86100190D01*
X112206614Y-86100190D02*
X112158995Y-86147809D01*
X112158995Y-86147809D02*
X112063757Y-86195428D01*
X112063757Y-86195428D02*
X111682805Y-86195428D01*
X112587567Y-85671619D02*
X113254233Y-85671619D01*
X113254233Y-85671619D02*
X112825662Y-86671619D01*
X143380680Y-68410057D02*
X143428300Y-68457676D01*
X143428300Y-68457676D02*
X143475919Y-68600533D01*
X143475919Y-68600533D02*
X143475919Y-68695771D01*
X143475919Y-68695771D02*
X143428300Y-68838628D01*
X143428300Y-68838628D02*
X143333061Y-68933866D01*
X143333061Y-68933866D02*
X143237823Y-68981485D01*
X143237823Y-68981485D02*
X143047347Y-69029104D01*
X143047347Y-69029104D02*
X142904490Y-69029104D01*
X142904490Y-69029104D02*
X142714014Y-68981485D01*
X142714014Y-68981485D02*
X142618776Y-68933866D01*
X142618776Y-68933866D02*
X142523538Y-68838628D01*
X142523538Y-68838628D02*
X142475919Y-68695771D01*
X142475919Y-68695771D02*
X142475919Y-68600533D01*
X142475919Y-68600533D02*
X142523538Y-68457676D01*
X142523538Y-68457676D02*
X142571157Y-68410057D01*
X143475919Y-67457676D02*
X143475919Y-68029104D01*
X143475919Y-67743390D02*
X142475919Y-67743390D01*
X142475919Y-67743390D02*
X142618776Y-67838628D01*
X142618776Y-67838628D02*
X142714014Y-67933866D01*
X142714014Y-67933866D02*
X142761633Y-68029104D01*
X142475919Y-66552914D02*
X142475919Y-67029104D01*
X142475919Y-67029104D02*
X142952109Y-67076723D01*
X142952109Y-67076723D02*
X142904490Y-67029104D01*
X142904490Y-67029104D02*
X142856871Y-66933866D01*
X142856871Y-66933866D02*
X142856871Y-66695771D01*
X142856871Y-66695771D02*
X142904490Y-66600533D01*
X142904490Y-66600533D02*
X142952109Y-66552914D01*
X142952109Y-66552914D02*
X143047347Y-66505295D01*
X143047347Y-66505295D02*
X143285442Y-66505295D01*
X143285442Y-66505295D02*
X143380680Y-66552914D01*
X143380680Y-66552914D02*
X143428300Y-66600533D01*
X143428300Y-66600533D02*
X143475919Y-66695771D01*
X143475919Y-66695771D02*
X143475919Y-66933866D01*
X143475919Y-66933866D02*
X143428300Y-67029104D01*
X143428300Y-67029104D02*
X143380680Y-67076723D01*
X112635766Y-100038819D02*
X112635766Y-100753104D01*
X112635766Y-100753104D02*
X112588147Y-100895961D01*
X112588147Y-100895961D02*
X112492909Y-100991200D01*
X112492909Y-100991200D02*
X112350052Y-101038819D01*
X112350052Y-101038819D02*
X112254814Y-101038819D01*
X113254814Y-100467390D02*
X113159576Y-100419771D01*
X113159576Y-100419771D02*
X113111957Y-100372152D01*
X113111957Y-100372152D02*
X113064338Y-100276914D01*
X113064338Y-100276914D02*
X113064338Y-100229295D01*
X113064338Y-100229295D02*
X113111957Y-100134057D01*
X113111957Y-100134057D02*
X113159576Y-100086438D01*
X113159576Y-100086438D02*
X113254814Y-100038819D01*
X113254814Y-100038819D02*
X113445290Y-100038819D01*
X113445290Y-100038819D02*
X113540528Y-100086438D01*
X113540528Y-100086438D02*
X113588147Y-100134057D01*
X113588147Y-100134057D02*
X113635766Y-100229295D01*
X113635766Y-100229295D02*
X113635766Y-100276914D01*
X113635766Y-100276914D02*
X113588147Y-100372152D01*
X113588147Y-100372152D02*
X113540528Y-100419771D01*
X113540528Y-100419771D02*
X113445290Y-100467390D01*
X113445290Y-100467390D02*
X113254814Y-100467390D01*
X113254814Y-100467390D02*
X113159576Y-100515009D01*
X113159576Y-100515009D02*
X113111957Y-100562628D01*
X113111957Y-100562628D02*
X113064338Y-100657866D01*
X113064338Y-100657866D02*
X113064338Y-100848342D01*
X113064338Y-100848342D02*
X113111957Y-100943580D01*
X113111957Y-100943580D02*
X113159576Y-100991200D01*
X113159576Y-100991200D02*
X113254814Y-101038819D01*
X113254814Y-101038819D02*
X113445290Y-101038819D01*
X113445290Y-101038819D02*
X113540528Y-100991200D01*
X113540528Y-100991200D02*
X113588147Y-100943580D01*
X113588147Y-100943580D02*
X113635766Y-100848342D01*
X113635766Y-100848342D02*
X113635766Y-100657866D01*
X113635766Y-100657866D02*
X113588147Y-100562628D01*
X113588147Y-100562628D02*
X113540528Y-100515009D01*
X113540528Y-100515009D02*
X113445290Y-100467390D01*
X143257280Y-73544757D02*
X143304900Y-73592376D01*
X143304900Y-73592376D02*
X143352519Y-73735233D01*
X143352519Y-73735233D02*
X143352519Y-73830471D01*
X143352519Y-73830471D02*
X143304900Y-73973328D01*
X143304900Y-73973328D02*
X143209661Y-74068566D01*
X143209661Y-74068566D02*
X143114423Y-74116185D01*
X143114423Y-74116185D02*
X142923947Y-74163804D01*
X142923947Y-74163804D02*
X142781090Y-74163804D01*
X142781090Y-74163804D02*
X142590614Y-74116185D01*
X142590614Y-74116185D02*
X142495376Y-74068566D01*
X142495376Y-74068566D02*
X142400138Y-73973328D01*
X142400138Y-73973328D02*
X142352519Y-73830471D01*
X142352519Y-73830471D02*
X142352519Y-73735233D01*
X142352519Y-73735233D02*
X142400138Y-73592376D01*
X142400138Y-73592376D02*
X142447757Y-73544757D01*
X143352519Y-72592376D02*
X143352519Y-73163804D01*
X143352519Y-72878090D02*
X142352519Y-72878090D01*
X142352519Y-72878090D02*
X142495376Y-72973328D01*
X142495376Y-72973328D02*
X142590614Y-73068566D01*
X142590614Y-73068566D02*
X142638233Y-73163804D01*
X142352519Y-71735233D02*
X142352519Y-71925709D01*
X142352519Y-71925709D02*
X142400138Y-72020947D01*
X142400138Y-72020947D02*
X142447757Y-72068566D01*
X142447757Y-72068566D02*
X142590614Y-72163804D01*
X142590614Y-72163804D02*
X142781090Y-72211423D01*
X142781090Y-72211423D02*
X143162042Y-72211423D01*
X143162042Y-72211423D02*
X143257280Y-72163804D01*
X143257280Y-72163804D02*
X143304900Y-72116185D01*
X143304900Y-72116185D02*
X143352519Y-72020947D01*
X143352519Y-72020947D02*
X143352519Y-71830471D01*
X143352519Y-71830471D02*
X143304900Y-71735233D01*
X143304900Y-71735233D02*
X143257280Y-71687614D01*
X143257280Y-71687614D02*
X143162042Y-71639995D01*
X143162042Y-71639995D02*
X142923947Y-71639995D01*
X142923947Y-71639995D02*
X142828709Y-71687614D01*
X142828709Y-71687614D02*
X142781090Y-71735233D01*
X142781090Y-71735233D02*
X142733471Y-71830471D01*
X142733471Y-71830471D02*
X142733471Y-72020947D01*
X142733471Y-72020947D02*
X142781090Y-72116185D01*
X142781090Y-72116185D02*
X142828709Y-72163804D01*
X142828709Y-72163804D02*
X142923947Y-72211423D01*
X104862442Y-64310419D02*
X104529109Y-63834228D01*
X104291014Y-64310419D02*
X104291014Y-63310419D01*
X104291014Y-63310419D02*
X104671966Y-63310419D01*
X104671966Y-63310419D02*
X104767204Y-63358038D01*
X104767204Y-63358038D02*
X104814823Y-63405657D01*
X104814823Y-63405657D02*
X104862442Y-63500895D01*
X104862442Y-63500895D02*
X104862442Y-63643752D01*
X104862442Y-63643752D02*
X104814823Y-63738990D01*
X104814823Y-63738990D02*
X104767204Y-63786609D01*
X104767204Y-63786609D02*
X104671966Y-63834228D01*
X104671966Y-63834228D02*
X104291014Y-63834228D01*
X105814823Y-64310419D02*
X105243395Y-64310419D01*
X105529109Y-64310419D02*
X105529109Y-63310419D01*
X105529109Y-63310419D02*
X105433871Y-63453276D01*
X105433871Y-63453276D02*
X105338633Y-63548514D01*
X105338633Y-63548514D02*
X105243395Y-63596133D01*
X106148157Y-63310419D02*
X106814823Y-63310419D01*
X106814823Y-63310419D02*
X106386252Y-64310419D01*
X143394242Y-100537180D02*
X143346623Y-100584800D01*
X143346623Y-100584800D02*
X143203766Y-100632419D01*
X143203766Y-100632419D02*
X143108528Y-100632419D01*
X143108528Y-100632419D02*
X142965671Y-100584800D01*
X142965671Y-100584800D02*
X142870433Y-100489561D01*
X142870433Y-100489561D02*
X142822814Y-100394323D01*
X142822814Y-100394323D02*
X142775195Y-100203847D01*
X142775195Y-100203847D02*
X142775195Y-100060990D01*
X142775195Y-100060990D02*
X142822814Y-99870514D01*
X142822814Y-99870514D02*
X142870433Y-99775276D01*
X142870433Y-99775276D02*
X142965671Y-99680038D01*
X142965671Y-99680038D02*
X143108528Y-99632419D01*
X143108528Y-99632419D02*
X143203766Y-99632419D01*
X143203766Y-99632419D02*
X143346623Y-99680038D01*
X143346623Y-99680038D02*
X143394242Y-99727657D01*
X143775195Y-99727657D02*
X143822814Y-99680038D01*
X143822814Y-99680038D02*
X143918052Y-99632419D01*
X143918052Y-99632419D02*
X144156147Y-99632419D01*
X144156147Y-99632419D02*
X144251385Y-99680038D01*
X144251385Y-99680038D02*
X144299004Y-99727657D01*
X144299004Y-99727657D02*
X144346623Y-99822895D01*
X144346623Y-99822895D02*
X144346623Y-99918133D01*
X144346623Y-99918133D02*
X144299004Y-100060990D01*
X144299004Y-100060990D02*
X143727576Y-100632419D01*
X143727576Y-100632419D02*
X144346623Y-100632419D01*
X145299004Y-100632419D02*
X144727576Y-100632419D01*
X145013290Y-100632419D02*
X145013290Y-99632419D01*
X145013290Y-99632419D02*
X144918052Y-99775276D01*
X144918052Y-99775276D02*
X144822814Y-99870514D01*
X144822814Y-99870514D02*
X144727576Y-99918133D01*
%TO.C,C7*%
D14*
X125522100Y-79026652D02*
X125522100Y-78504148D01*
X126992100Y-79026652D02*
X126992100Y-78504148D01*
%TO.C,C8*%
X160459748Y-84467800D02*
X160982252Y-84467800D01*
X160459748Y-82997800D02*
X160982252Y-82997800D01*
%TO.C,C2*%
X123013152Y-78182800D02*
X122490648Y-78182800D01*
X123013152Y-79652800D02*
X122490648Y-79652800D01*
%TO.C,F1*%
X105465248Y-80459000D02*
X108237752Y-80459000D01*
X105465248Y-83879000D02*
X108237752Y-83879000D01*
%TO.C,R1*%
X110383700Y-80925936D02*
X110383700Y-81380064D01*
X111853700Y-80925936D02*
X111853700Y-81380064D01*
%TO.C,U5*%
X111275500Y-88432200D02*
X113095500Y-88432200D01*
X111275500Y-88482200D02*
X111275500Y-88432200D01*
X111275500Y-91552200D02*
X111275500Y-91502200D01*
X113095500Y-88432200D02*
X113095500Y-88482200D01*
X113095500Y-91502200D02*
X113095500Y-91552200D01*
X113095500Y-91552200D02*
X111275500Y-91552200D01*
X110735500Y-88482200D02*
X110495500Y-88152200D01*
X110975500Y-88152200D01*
X110735500Y-88482200D01*
G36*
X110735500Y-88482200D02*
G01*
X110495500Y-88152200D01*
X110975500Y-88152200D01*
X110735500Y-88482200D01*
G37*
%TO.C,U3*%
X131103500Y-59505800D02*
X131103500Y-60765800D01*
X131103500Y-66325800D02*
X131103500Y-65065800D01*
X134863500Y-59505800D02*
X131103500Y-59505800D01*
X134863500Y-66325800D02*
X131103500Y-66325800D01*
X136383500Y-66555800D02*
X135903500Y-66555800D01*
X136143500Y-66225800D01*
X136383500Y-66555800D01*
G36*
X136383500Y-66555800D02*
G01*
X135903500Y-66555800D01*
X136143500Y-66225800D01*
X136383500Y-66555800D01*
G37*
%TO.C,S4*%
D15*
X122080500Y-106219000D02*
X122080500Y-106719000D01*
X122405500Y-107844000D02*
X128405500Y-107844000D01*
X124155500Y-105094000D02*
X125205500Y-105094000D01*
X128730500Y-106219000D02*
X128730500Y-106719000D01*
D10*
X123205500Y-103069000D02*
G75*
G02*
X123005500Y-103069000I-100000J0D01*
G01*
X123005500Y-103069000D02*
G75*
G02*
X123205500Y-103069000I100000J0D01*
G01*
%TO.C,U6*%
D14*
X131128900Y-68345000D02*
X131128900Y-69605000D01*
X131128900Y-75165000D02*
X131128900Y-73905000D01*
X134888900Y-68345000D02*
X131128900Y-68345000D01*
X134888900Y-75165000D02*
X131128900Y-75165000D01*
X136408900Y-75395000D02*
X135928900Y-75395000D01*
X136168900Y-75065000D01*
X136408900Y-75395000D01*
G36*
X136408900Y-75395000D02*
G01*
X135928900Y-75395000D01*
X136168900Y-75065000D01*
X136408900Y-75395000D01*
G37*
%TO.C,R9*%
X126182436Y-74474400D02*
X126636564Y-74474400D01*
X126182436Y-75944400D02*
X126636564Y-75944400D01*
%TO.C,J4*%
X104073700Y-75565000D02*
X104073700Y-67885000D01*
X104073700Y-78165000D02*
X104073700Y-76835000D01*
X105403700Y-78165000D02*
X104073700Y-78165000D01*
X106673700Y-75565000D02*
X104073700Y-75565000D01*
X106673700Y-78165000D02*
X106673700Y-75565000D01*
X109273700Y-67885000D02*
X104073700Y-67885000D01*
X109273700Y-78165000D02*
X106673700Y-78165000D01*
X109273700Y-78165000D02*
X109273700Y-67885000D01*
%TO.C,R8*%
X111524376Y-92492300D02*
X112033824Y-92492300D01*
X111524376Y-93537300D02*
X112033824Y-93537300D01*
%TO.C,U2*%
X155577300Y-73772100D02*
X161097300Y-73772100D01*
X155577300Y-73947100D02*
X155577300Y-73772100D01*
X155577300Y-82192100D02*
X155577300Y-82017100D01*
X161097300Y-73772100D02*
X161097300Y-73947100D01*
X161097300Y-82017100D02*
X161097300Y-82192100D01*
X161097300Y-82192100D02*
X155577300Y-82192100D01*
X162177300Y-82492100D02*
X161497300Y-82492100D01*
X161837300Y-82022100D01*
X162177300Y-82492100D01*
G36*
X162177300Y-82492100D02*
G01*
X161497300Y-82492100D01*
X161837300Y-82022100D01*
X162177300Y-82492100D01*
G37*
%TO.C,D1*%
X146544900Y-91257000D02*
X146544900Y-84257000D01*
X146544900Y-91257000D02*
X152044900Y-91257000D01*
X150194900Y-85057000D02*
X148394900Y-85057000D01*
X150194900Y-90457000D02*
X148394900Y-90457000D01*
X151594900Y-84257000D02*
X146544900Y-84257000D01*
X152044900Y-84707000D02*
X151594900Y-84257000D01*
X152044900Y-91257000D02*
X152044900Y-84707000D01*
%TO.C,C13*%
X138120500Y-68739652D02*
X138120500Y-68217148D01*
X139590500Y-68739652D02*
X139590500Y-68217148D01*
%TO.C,SW2*%
D16*
X139944900Y-94922400D02*
X139944900Y-95672400D01*
X139944900Y-98422400D02*
X139944900Y-97672400D01*
X145944900Y-94922400D02*
X139944900Y-94922400D01*
X145944900Y-95672400D02*
X145944900Y-94922400D01*
X145944900Y-97672400D02*
X145944900Y-98422400D01*
X145944900Y-98422400D02*
X139944900Y-98422400D01*
D10*
D17*
X147844900Y-96572400D02*
X147844899Y-96572400D01*
X147844899Y-96572400D01*
X147844899Y-96572400D01*
X147844899Y-96572400D01*
X147844899Y-96572400D01*
X147844899Y-96572400D01*
X147844899Y-96572400D01*
X147844899Y-96572399D01*
X147844899Y-96572399D01*
X147844899Y-96572399D01*
X147844899Y-96572399D01*
X147844899Y-96572399D01*
X147844900Y-96572399D01*
X147844900Y-96572399D01*
X147844900Y-96572399D01*
X147844900Y-96572399D01*
X147844900Y-96572399D01*
X147844900Y-96572399D01*
X147844900Y-96572399D01*
X147844900Y-96572399D01*
X147844900Y-96572399D01*
X147844900Y-96572399D01*
X147844900Y-96572399D01*
X147844900Y-96572399D01*
X147844901Y-96572399D01*
X147844901Y-96572399D01*
X147844901Y-96572399D01*
X147844901Y-96572399D01*
X147844901Y-96572399D01*
X147844901Y-96572399D01*
X147844901Y-96572400D01*
X147844901Y-96572400D01*
X147844901Y-96572400D01*
X147844901Y-96572400D01*
X147844901Y-96572400D01*
X147844901Y-96572400D01*
X147844901Y-96572400D01*
X147844900Y-96572400D01*
X147844900Y-96572400D02*
X147844901Y-96572400D01*
X147844901Y-96572400D01*
X147844901Y-96572400D01*
X147844901Y-96572400D01*
X147844901Y-96572400D01*
X147844901Y-96572400D01*
X147844901Y-96572401D01*
X147844901Y-96572401D01*
X147844901Y-96572401D01*
X147844901Y-96572401D01*
X147844901Y-96572401D01*
X147844901Y-96572401D01*
X147844901Y-96572401D01*
X147844900Y-96572401D01*
X147844900Y-96572401D01*
X147844900Y-96572401D01*
X147844900Y-96572401D01*
X147844900Y-96572401D01*
X147844900Y-96572401D01*
X147844900Y-96572401D01*
X147844900Y-96572401D01*
X147844900Y-96572401D01*
X147844900Y-96572401D01*
X147844900Y-96572401D01*
X147844900Y-96572401D01*
X147844899Y-96572401D01*
X147844899Y-96572401D01*
X147844899Y-96572401D01*
X147844899Y-96572401D01*
X147844899Y-96572401D01*
X147844899Y-96572401D01*
X147844899Y-96572400D01*
X147844899Y-96572400D01*
X147844899Y-96572400D01*
X147844899Y-96572400D01*
X147844899Y-96572400D01*
X147844899Y-96572400D01*
X147844900Y-96572400D01*
D10*
D17*
X147844900Y-96772400D02*
X147844899Y-96772400D01*
X147844899Y-96772400D01*
X147844899Y-96772400D01*
X147844899Y-96772400D01*
X147844899Y-96772400D01*
X147844899Y-96772400D01*
X147844899Y-96772400D01*
X147844899Y-96772399D01*
X147844899Y-96772399D01*
X147844899Y-96772399D01*
X147844899Y-96772399D01*
X147844899Y-96772399D01*
X147844900Y-96772399D01*
X147844900Y-96772399D01*
X147844900Y-96772399D01*
X147844900Y-96772399D01*
X147844900Y-96772399D01*
X147844900Y-96772399D01*
X147844900Y-96772399D01*
X147844900Y-96772399D01*
X147844900Y-96772399D01*
X147844900Y-96772399D01*
X147844900Y-96772399D01*
X147844900Y-96772399D01*
X147844901Y-96772399D01*
X147844901Y-96772399D01*
X147844901Y-96772399D01*
X147844901Y-96772399D01*
X147844901Y-96772399D01*
X147844901Y-96772399D01*
X147844901Y-96772400D01*
X147844901Y-96772400D01*
X147844901Y-96772400D01*
X147844901Y-96772400D01*
X147844901Y-96772400D01*
X147844901Y-96772400D01*
X147844901Y-96772400D01*
X147844900Y-96772400D01*
X147844900Y-96772400D02*
X147844901Y-96772400D01*
X147844901Y-96772400D01*
X147844901Y-96772400D01*
X147844901Y-96772400D01*
X147844901Y-96772400D01*
X147844901Y-96772400D01*
X147844901Y-96772401D01*
X147844901Y-96772401D01*
X147844901Y-96772401D01*
X147844901Y-96772401D01*
X147844901Y-96772401D01*
X147844901Y-96772401D01*
X147844901Y-96772401D01*
X147844900Y-96772401D01*
X147844900Y-96772401D01*
X147844900Y-96772401D01*
X147844900Y-96772401D01*
X147844900Y-96772401D01*
X147844900Y-96772401D01*
X147844900Y-96772401D01*
X147844900Y-96772401D01*
X147844900Y-96772401D01*
X147844900Y-96772401D01*
X147844900Y-96772401D01*
X147844900Y-96772401D01*
X147844899Y-96772401D01*
X147844899Y-96772401D01*
X147844899Y-96772401D01*
X147844899Y-96772401D01*
X147844899Y-96772401D01*
X147844899Y-96772401D01*
X147844899Y-96772400D01*
X147844899Y-96772400D01*
X147844899Y-96772400D01*
X147844899Y-96772400D01*
X147844899Y-96772400D01*
X147844899Y-96772400D01*
X147844900Y-96772400D01*
D10*
X147844900Y-96572400D02*
G75*
G02*
X147844900Y-96772400I0J-100000D01*
G01*
X147844900Y-96772400D02*
G75*
G02*
X147844900Y-96572400I0J100000D01*
G01*
%TO.C,U1*%
D14*
X124311300Y-82724400D02*
X125261300Y-82724400D01*
X124311300Y-83674400D02*
X124311300Y-82724400D01*
X124311300Y-92944400D02*
X124311300Y-91994400D01*
X125261300Y-92944400D02*
X124311300Y-92944400D01*
X133581300Y-82724400D02*
X134531300Y-82724400D01*
X134531300Y-82724400D02*
X134531300Y-83674400D01*
X134531300Y-91994400D02*
X134531300Y-92944400D01*
X134531300Y-92944400D02*
X133581300Y-92944400D01*
X135511300Y-92464400D02*
X134831300Y-92464400D01*
X135171300Y-91994400D01*
X135511300Y-92464400D01*
G36*
X135511300Y-92464400D02*
G01*
X134831300Y-92464400D01*
X135171300Y-91994400D01*
X135511300Y-92464400D01*
G37*
%TO.C,C3*%
X133809648Y-79231800D02*
X134332152Y-79231800D01*
X133809648Y-80701800D02*
X134332152Y-80701800D01*
%TO.C,D3*%
X124154100Y-70653400D02*
X124154100Y-73513400D01*
X124154100Y-73513400D02*
X126074100Y-73513400D01*
X126074100Y-73513400D02*
X126074100Y-70653400D01*
%TO.C,Y3*%
X141933400Y-91799500D02*
X145353400Y-91799500D01*
X145353400Y-91799500D02*
X145353400Y-87679500D01*
%TO.C,C22*%
X140482700Y-63979248D02*
X140482700Y-64501752D01*
X141952700Y-63979248D02*
X141952700Y-64501752D01*
%TO.C,J7*%
X155944500Y-57981400D02*
X155944500Y-59231400D01*
X156244500Y-60531400D02*
X156994500Y-60531400D01*
X156994500Y-60531400D02*
X156994500Y-63481400D01*
X156994500Y-63481400D02*
X160044500Y-63481400D01*
X157194500Y-57981400D02*
X155944500Y-57981400D01*
X163094500Y-60531400D02*
X163094500Y-63481400D01*
X163094500Y-63481400D02*
X160044500Y-63481400D01*
X163844500Y-60531400D02*
X163094500Y-60531400D01*
X156234500Y-58271400D02*
X163854500Y-58271400D01*
X163854500Y-64241400D01*
X156234500Y-64241400D01*
X156234500Y-58271400D01*
X156244500Y-58281400D02*
X158044500Y-58281400D01*
X158044500Y-59031400D01*
X156244500Y-59031400D01*
X156244500Y-58281400D01*
X159544500Y-58281400D02*
X160544500Y-58281400D01*
X160544500Y-59031400D01*
X159544500Y-59031400D01*
X159544500Y-58281400D01*
X162044500Y-58281400D02*
X163844500Y-58281400D01*
X163844500Y-59031400D01*
X162044500Y-59031400D01*
X162044500Y-58281400D01*
%TO.C,D5*%
X124701900Y-59009400D02*
X124701900Y-60929400D01*
X124701900Y-60929400D02*
X127561900Y-60929400D01*
X127561900Y-59009400D02*
X124701900Y-59009400D01*
%TO.C,R2*%
X126919036Y-101449200D02*
X127373164Y-101449200D01*
X126919036Y-102919200D02*
X127373164Y-102919200D01*
%TO.C,J1*%
X102017100Y-105130600D02*
X102017100Y-97400600D01*
X104777100Y-97400600D02*
X102017100Y-97400600D01*
X104777100Y-105130600D02*
X102017100Y-105130600D01*
X104777100Y-105130600D02*
X104777100Y-97400600D01*
X104777100Y-106400600D02*
X104777100Y-107780600D01*
X104777100Y-107780600D02*
X103397100Y-107780600D01*
%TO.C,R10*%
X126715900Y-62968136D02*
X126715900Y-63422264D01*
X128185900Y-62968136D02*
X128185900Y-63422264D01*
%TO.C,R6*%
X126639700Y-71400936D02*
X126639700Y-71855064D01*
X128109700Y-71400936D02*
X128109700Y-71855064D01*
%TO.C,D4*%
X120561700Y-74224000D02*
X120561700Y-76144000D01*
X120561700Y-76144000D02*
X123421700Y-76144000D01*
X123421700Y-74224000D02*
X120561700Y-74224000D01*
%TO.C,REG SW*%
D15*
X148070900Y-66135209D02*
X147570900Y-66135209D01*
X146445900Y-66460209D02*
X146445900Y-72460209D01*
X149195900Y-68210209D02*
X149195900Y-69260209D01*
X148070900Y-72785209D02*
X147570900Y-72785209D01*
D10*
X151320900Y-67160209D02*
G75*
G02*
X151120900Y-67160209I-100000J0D01*
G01*
X151120900Y-67160209D02*
G75*
G02*
X151320900Y-67160209I100000J0D01*
G01*
%TO.C,D2*%
D14*
X112510900Y-80166800D02*
X112510900Y-83026800D01*
X112510900Y-83026800D02*
X114430900Y-83026800D01*
X114430900Y-83026800D02*
X114430900Y-80166800D01*
%TO.C,C14*%
X138171300Y-72662148D02*
X138171300Y-73184652D01*
X139641300Y-72662148D02*
X139641300Y-73184652D01*
%TO.C,R3*%
X118791036Y-88241200D02*
X119245164Y-88241200D01*
X118791036Y-89711200D02*
X119245164Y-89711200D01*
%TO.C,C25*%
X123013152Y-80392600D02*
X122490648Y-80392600D01*
X123013152Y-81862600D02*
X122490648Y-81862600D01*
%TO.C,C17*%
X140508100Y-59290852D02*
X140508100Y-58768348D01*
X141978100Y-59290852D02*
X141978100Y-58768348D01*
%TO.C,C26*%
X149479952Y-91797200D02*
X148957448Y-91797200D01*
X149479952Y-93267200D02*
X148957448Y-93267200D01*
%TO.C,J5*%
X145449500Y-61642600D02*
X146199500Y-61642600D01*
X146199500Y-58692600D02*
X149249500Y-58692600D01*
X146199500Y-61642600D02*
X146199500Y-58692600D01*
X152099500Y-64192600D02*
X153349500Y-64192600D01*
X152299500Y-58692600D02*
X149249500Y-58692600D01*
X152299500Y-61642600D02*
X152299500Y-58692600D01*
X153049500Y-61642600D02*
X152299500Y-61642600D01*
X153349500Y-64192600D02*
X153349500Y-62942600D01*
X145449500Y-63142600D02*
X147249500Y-63142600D01*
X147249500Y-63892600D01*
X145449500Y-63892600D01*
X145449500Y-63142600D01*
X148749500Y-63142600D02*
X149749500Y-63142600D01*
X149749500Y-63892600D01*
X148749500Y-63892600D01*
X148749500Y-63142600D01*
X151249500Y-63142600D02*
X153049500Y-63142600D01*
X153049500Y-63892600D01*
X151249500Y-63892600D01*
X151249500Y-63142600D01*
X145439500Y-57932600D02*
X153059500Y-57932600D01*
X153059500Y-63902600D01*
X145439500Y-63902600D01*
X145439500Y-57932600D01*
%TO.C,C18*%
X138069700Y-59265452D02*
X138069700Y-58742948D01*
X139539700Y-59265452D02*
X139539700Y-58742948D01*
%TO.C,C20*%
X139637700Y-87168848D02*
X139637700Y-87691352D01*
X141107700Y-87168848D02*
X141107700Y-87691352D01*
%TO.C,C6*%
X156221848Y-82983400D02*
X156744352Y-82983400D01*
X156221848Y-84453400D02*
X156744352Y-84453400D01*
%TO.C,J6*%
X156066100Y-102211200D02*
X156066100Y-103461200D01*
X156366100Y-104761200D02*
X157116100Y-104761200D01*
X157116100Y-104761200D02*
X157116100Y-107711200D01*
X157116100Y-107711200D02*
X160166100Y-107711200D01*
X157316100Y-102211200D02*
X156066100Y-102211200D01*
X163216100Y-104761200D02*
X163216100Y-107711200D01*
X163216100Y-107711200D02*
X160166100Y-107711200D01*
X163966100Y-104761200D02*
X163216100Y-104761200D01*
X156356100Y-102501200D02*
X163976100Y-102501200D01*
X163976100Y-108471200D01*
X156356100Y-108471200D01*
X156356100Y-102501200D01*
X156366100Y-102511200D02*
X158166100Y-102511200D01*
X158166100Y-103261200D01*
X156366100Y-103261200D01*
X156366100Y-102511200D01*
X159666100Y-102511200D02*
X160666100Y-102511200D01*
X160666100Y-103261200D01*
X159666100Y-103261200D01*
X159666100Y-102511200D01*
X162166100Y-102511200D02*
X163966100Y-102511200D01*
X163966100Y-103261200D01*
X162166100Y-103261200D01*
X162166100Y-102511200D01*
%TO.C,C23*%
X138120500Y-64051548D02*
X138120500Y-64574052D01*
X139590500Y-64051548D02*
X139590500Y-64574052D01*
%TO.C,J9*%
X110487043Y-62675082D02*
X110487043Y-63925082D01*
X110787043Y-65225082D02*
X111537043Y-65225082D01*
X111537043Y-65225082D02*
X111537043Y-68175082D01*
X111537043Y-68175082D02*
X118337043Y-68175082D01*
X111737043Y-62675082D02*
X110487043Y-62675082D01*
X125137043Y-65225082D02*
X125137043Y-68175082D01*
X125137043Y-68175082D02*
X118337043Y-68175082D01*
X125887043Y-65225082D02*
X125137043Y-65225082D01*
X110777043Y-62965082D02*
X125897043Y-62965082D01*
X125897043Y-68935082D01*
X110777043Y-68935082D01*
X110777043Y-62965082D01*
X110787043Y-62975082D02*
X112587043Y-62975082D01*
X112587043Y-63725082D01*
X110787043Y-63725082D01*
X110787043Y-62975082D01*
X114087043Y-62975082D02*
X122587043Y-62975082D01*
X122587043Y-63725082D01*
X114087043Y-63725082D01*
X114087043Y-62975082D01*
X124087043Y-62975082D02*
X125887043Y-62975082D01*
X125887043Y-63725082D01*
X124087043Y-63725082D01*
X124087043Y-62975082D01*
%TO.C,J3*%
X108470900Y-87184400D02*
X108470900Y-86384400D01*
X105550900Y-94684400D02*
X103770900Y-94684400D01*
X105550900Y-85284400D02*
X103770900Y-85284400D01*
%TO.C,C19*%
X139637700Y-91628352D02*
X139637700Y-91105848D01*
X141107700Y-91628352D02*
X141107700Y-91105848D01*
%TO.C,J2*%
X133182100Y-106035800D02*
X134512100Y-106035800D01*
X133182100Y-107365800D02*
X133182100Y-106035800D01*
X135782100Y-106035800D02*
X153622100Y-106035800D01*
X135782100Y-108695800D02*
X135782100Y-106035800D01*
X135782100Y-108695800D02*
X153622100Y-108695800D01*
X153622100Y-108695800D02*
X153622100Y-106035800D01*
%TO.C,C4*%
X134174648Y-95150000D02*
X134697152Y-95150000D01*
X134174648Y-96620000D02*
X134697152Y-96620000D01*
%TO.C,C1*%
X121721900Y-93903748D02*
X121721900Y-94426252D01*
X123191900Y-93903748D02*
X123191900Y-94426252D01*
%TO.C,C9*%
X154595300Y-85369300D02*
X154595300Y-88789300D01*
X154595300Y-88789300D02*
X161535300Y-88789300D01*
X161535300Y-85369300D02*
X154595300Y-85369300D01*
%TO.C,R4*%
X118791036Y-90298600D02*
X119245164Y-90298600D01*
X118791036Y-91768600D02*
X119245164Y-91768600D01*
%TO.C,C24*%
X136985900Y-86705548D02*
X136985900Y-87228052D01*
X138455900Y-86705548D02*
X138455900Y-87228052D01*
%TO.C,R7*%
X110198400Y-85962076D02*
X110198400Y-86471524D01*
X111243400Y-85962076D02*
X111243400Y-86471524D01*
%TO.C,C15*%
X140381100Y-68714252D02*
X140381100Y-68191748D01*
X141851100Y-68714252D02*
X141851100Y-68191748D01*
%TO.C,J8*%
X106703700Y-102612800D02*
X107453700Y-102612800D01*
X107453700Y-99662800D02*
X113003700Y-99662800D01*
X107453700Y-102612800D02*
X107453700Y-99662800D01*
X118353700Y-105162800D02*
X119603700Y-105162800D01*
X118553700Y-99662800D02*
X113003700Y-99662800D01*
X118553700Y-102612800D02*
X118553700Y-99662800D01*
X119303700Y-102612800D02*
X118553700Y-102612800D01*
X119603700Y-105162800D02*
X119603700Y-103912800D01*
X106703700Y-104112800D02*
X108503700Y-104112800D01*
X108503700Y-104862800D01*
X106703700Y-104862800D01*
X106703700Y-104112800D01*
X110003700Y-104112800D02*
X116003700Y-104112800D01*
X116003700Y-104862800D01*
X110003700Y-104862800D01*
X110003700Y-104112800D01*
X117503700Y-104112800D02*
X119303700Y-104112800D01*
X119303700Y-104862800D01*
X117503700Y-104862800D01*
X117503700Y-104112800D01*
X106693700Y-98902800D02*
X119313700Y-98902800D01*
X119313700Y-104872800D01*
X106693700Y-104872800D01*
X106693700Y-98902800D01*
%TO.C,C16*%
X140482700Y-72640648D02*
X140482700Y-73163152D01*
X141952700Y-72640648D02*
X141952700Y-73163152D01*
%TO.C,R17*%
X105732364Y-64924000D02*
X105278236Y-64924000D01*
X105732364Y-66394000D02*
X105278236Y-66394000D01*
%TO.C,C21*%
X140321448Y-99188600D02*
X140843952Y-99188600D01*
X140321448Y-100658600D02*
X140843952Y-100658600D01*
%TD*%
M02*
