%TF.GenerationSoftware,KiCad,Pcbnew,10.0.1-unknown-1000.20260429git0b8d3f0.fc43*%
%TF.CreationDate,2026-05-05T11:43:40-06:00*%
%TF.ProjectId,2026_12_2Wheel_Balance_Robot_v1,32303236-5f31-4325-9f32-576865656c5f,rev?*%
%TF.SameCoordinates,Original*%
%TF.FileFunction,Copper,L1,Top*%
%TF.FilePolarity,Positive*%
%FSLAX46Y46*%
G04 Gerber Fmt 4.6, Leading zero omitted, Abs format (unit mm)*
G04 Created by KiCad (PCBNEW 10.0.1-unknown-1000.20260429git0b8d3f0.fc43) date 2026-05-05 11:43:40*
%MOMM*%
%LPD*%
G01*
G04 APERTURE LIST*
G04 Aperture macros list*
%AMRoundRect*
0 Rectangle with rounded corners*
0 $1 Rounding radius*
0 $2 $3 $4 $5 $6 $7 $8 $9 X,Y pos of 4 corners*
0 Add a 4 corners polygon primitive as box body*
4,1,4,$2,$3,$4,$5,$6,$7,$8,$9,$2,$3,0*
0 Add four circle primitives for the rounded corners*
1,1,$1+$1,$2,$3*
1,1,$1+$1,$4,$5*
1,1,$1+$1,$6,$7*
1,1,$1+$1,$8,$9*
0 Add four rect primitives between the rounded corners*
20,1,$1+$1,$2,$3,$4,$5,0*
20,1,$1+$1,$4,$5,$6,$7,0*
20,1,$1+$1,$6,$7,$8,$9,0*
20,1,$1+$1,$8,$9,$2,$3,0*%
G04 Aperture macros list end*
%TA.AperFunction,SMDPad,CuDef*%
%ADD10RoundRect,0.250000X0.475000X-0.337500X0.475000X0.337500X-0.475000X0.337500X-0.475000X-0.337500X0*%
%TD*%
%TA.AperFunction,SMDPad,CuDef*%
%ADD11RoundRect,0.250000X-0.337500X-0.475000X0.337500X-0.475000X0.337500X0.475000X-0.337500X0.475000X0*%
%TD*%
%TA.AperFunction,SMDPad,CuDef*%
%ADD12RoundRect,0.250000X0.337500X0.475000X-0.337500X0.475000X-0.337500X-0.475000X0.337500X-0.475000X0*%
%TD*%
%TA.AperFunction,SMDPad,CuDef*%
%ADD13RoundRect,0.250000X-0.312500X-1.450000X0.312500X-1.450000X0.312500X1.450000X-0.312500X1.450000X0*%
%TD*%
%TA.AperFunction,SMDPad,CuDef*%
%ADD14RoundRect,0.250000X-0.450000X0.350000X-0.450000X-0.350000X0.450000X-0.350000X0.450000X0.350000X0*%
%TD*%
%TA.AperFunction,SMDPad,CuDef*%
%ADD15RoundRect,0.150000X-0.512500X-0.150000X0.512500X-0.150000X0.512500X0.150000X-0.512500X0.150000X0*%
%TD*%
%TA.AperFunction,SMDPad,CuDef*%
%ADD16RoundRect,0.375000X0.625000X0.375000X-0.625000X0.375000X-0.625000X-0.375000X0.625000X-0.375000X0*%
%TD*%
%TA.AperFunction,SMDPad,CuDef*%
%ADD17RoundRect,0.500000X0.500000X1.400000X-0.500000X1.400000X-0.500000X-1.400000X0.500000X-1.400000X0*%
%TD*%
%TA.AperFunction,SMDPad,CuDef*%
%ADD18R,0.900000X1.250000*%
%TD*%
%TA.AperFunction,SMDPad,CuDef*%
%ADD19R,0.800000X0.900000*%
%TD*%
%TA.AperFunction,SMDPad,CuDef*%
%ADD20RoundRect,0.250000X-0.350000X-0.450000X0.350000X-0.450000X0.350000X0.450000X-0.350000X0.450000X0*%
%TD*%
%TA.AperFunction,ComponentPad*%
%ADD21R,1.700000X1.700000*%
%TD*%
%TA.AperFunction,ComponentPad*%
%ADD22C,1.700000*%
%TD*%
%TA.AperFunction,SMDPad,CuDef*%
%ADD23RoundRect,0.237500X-0.250000X-0.237500X0.250000X-0.237500X0.250000X0.237500X-0.250000X0.237500X0*%
%TD*%
%TA.AperFunction,SMDPad,CuDef*%
%ADD24RoundRect,0.100000X0.850000X0.100000X-0.850000X0.100000X-0.850000X-0.100000X0.850000X-0.100000X0*%
%TD*%
%TA.AperFunction,SMDPad,CuDef*%
%ADD25RoundRect,0.090000X0.360000X-0.660000X0.360000X0.660000X-0.360000X0.660000X-0.360000X-0.660000X0*%
%TD*%
%TA.AperFunction,SMDPad,CuDef*%
%ADD26R,2.300000X1.500000*%
%TD*%
%TA.AperFunction,SMDPad,CuDef*%
%ADD27RoundRect,0.075000X0.700000X0.075000X-0.700000X0.075000X-0.700000X-0.075000X0.700000X-0.075000X0*%
%TD*%
%TA.AperFunction,SMDPad,CuDef*%
%ADD28RoundRect,0.075000X0.075000X0.700000X-0.075000X0.700000X-0.075000X-0.700000X0.075000X-0.700000X0*%
%TD*%
%TA.AperFunction,SMDPad,CuDef*%
%ADD29RoundRect,0.250000X0.450000X-0.325000X0.450000X0.325000X-0.450000X0.325000X-0.450000X-0.325000X0*%
%TD*%
%TA.AperFunction,SMDPad,CuDef*%
%ADD30RoundRect,0.250000X0.350000X-0.450000X0.350000X0.450000X-0.350000X0.450000X-0.350000X-0.450000X0*%
%TD*%
%TA.AperFunction,SMDPad,CuDef*%
%ADD31RoundRect,0.250000X-0.475000X0.337500X-0.475000X-0.337500X0.475000X-0.337500X0.475000X0.337500X0*%
%TD*%
%TA.AperFunction,ComponentPad*%
%ADD32RoundRect,0.250000X-0.600000X-0.750000X0.600000X-0.750000X0.600000X0.750000X-0.600000X0.750000X0*%
%TD*%
%TA.AperFunction,ComponentPad*%
%ADD33O,1.700000X2.000000*%
%TD*%
%TA.AperFunction,SMDPad,CuDef*%
%ADD34RoundRect,0.250000X-0.325000X-0.450000X0.325000X-0.450000X0.325000X0.450000X-0.325000X0.450000X0*%
%TD*%
%TA.AperFunction,SMDPad,CuDef*%
%ADD35R,1.250000X0.900000*%
%TD*%
%TA.AperFunction,SMDPad,CuDef*%
%ADD36R,0.900000X0.800000*%
%TD*%
%TA.AperFunction,ComponentPad*%
%ADD37RoundRect,0.250000X0.600000X0.750000X-0.600000X0.750000X-0.600000X-0.750000X0.600000X-0.750000X0*%
%TD*%
%TA.AperFunction,ComponentPad*%
%ADD38RoundRect,0.250000X-0.600000X-0.725000X0.600000X-0.725000X0.600000X0.725000X-0.600000X0.725000X0*%
%TD*%
%TA.AperFunction,ComponentPad*%
%ADD39O,1.700000X1.950000*%
%TD*%
%TA.AperFunction,ComponentPad*%
%ADD40O,1.600000X1.000000*%
%TD*%
%TA.AperFunction,ComponentPad*%
%ADD41O,2.100000X1.000000*%
%TD*%
%TA.AperFunction,SMDPad,CuDef*%
%ADD42RoundRect,0.150000X-0.500000X0.150000X-0.500000X-0.150000X0.500000X-0.150000X0.500000X0.150000X0*%
%TD*%
%TA.AperFunction,SMDPad,CuDef*%
%ADD43RoundRect,0.075000X-0.575000X0.075000X-0.575000X-0.075000X0.575000X-0.075000X0.575000X0.075000X0*%
%TD*%
%TA.AperFunction,SMDPad,CuDef*%
%ADD44RoundRect,0.250001X-0.872499X-0.944999X0.872499X-0.944999X0.872499X0.944999X-0.872499X0.944999X0*%
%TD*%
%TA.AperFunction,SMDPad,CuDef*%
%ADD45RoundRect,0.237500X-0.237500X0.250000X-0.237500X-0.250000X0.237500X-0.250000X0.237500X0.250000X0*%
%TD*%
%TA.AperFunction,ComponentPad*%
%ADD46RoundRect,0.250000X0.600000X0.725000X-0.600000X0.725000X-0.600000X-0.725000X0.600000X-0.725000X0*%
%TD*%
%TA.AperFunction,SMDPad,CuDef*%
%ADD47RoundRect,0.250000X0.350000X0.450000X-0.350000X0.450000X-0.350000X-0.450000X0.350000X-0.450000X0*%
%TD*%
%TA.AperFunction,ViaPad*%
%ADD48C,0.600000*%
%TD*%
%TA.AperFunction,Conductor*%
%ADD49C,0.381000*%
%TD*%
%TA.AperFunction,Conductor*%
%ADD50C,0.508000*%
%TD*%
%TA.AperFunction,Conductor*%
%ADD51C,0.254000*%
%TD*%
%TA.AperFunction,Conductor*%
%ADD52C,0.304800*%
%TD*%
%TA.AperFunction,Conductor*%
%ADD53C,0.200000*%
%TD*%
G04 APERTURE END LIST*
D10*
%TO.P,C7,1,~_1*%
%TO.N,Net-(U1-VCAP1)*%
X126257100Y-79802900D03*
%TO.P,C7,2,~_2*%
%TO.N,GND*%
X126257100Y-77727900D03*
%TD*%
D11*
%TO.P,C8,2,~_2*%
%TO.N,GND*%
X161758500Y-83732800D03*
%TO.P,C8,1,~_1*%
%TO.N,+3.3V*%
X159683500Y-83732800D03*
%TD*%
D12*
%TO.P,C2,1,~_1*%
%TO.N,+3.3V*%
X123789400Y-78917800D03*
%TO.P,C2,2,~_2*%
%TO.N,GND*%
X121714400Y-78917800D03*
%TD*%
D13*
%TO.P,F1,1,~_1*%
%TO.N,Net-(F1-~-Pad1)*%
X104714000Y-82169000D03*
%TO.P,F1,2,~_2*%
%TO.N,Vusb*%
X108989000Y-82169000D03*
%TD*%
D14*
%TO.P,R1,1,~_1*%
%TO.N,Net-(D2-A)*%
X111118700Y-80153000D03*
%TO.P,R1,2,~_2*%
%TO.N,Vusb*%
X111118700Y-82153000D03*
%TD*%
D15*
%TO.P,U5,1,I/O1_1*%
%TO.N,/USB_D-*%
X111048000Y-89042200D03*
%TO.P,U5,2,GND_2*%
%TO.N,GND*%
X111048000Y-89992200D03*
%TO.P,U5,3,I/O2_3*%
%TO.N,/USB_D+*%
X111048000Y-90942200D03*
%TO.P,U5,4,I/O2_4*%
%TO.N,/CONN_D+*%
X113323000Y-90942200D03*
%TO.P,U5,5,VBUS_5*%
%TO.N,Vusb*%
X113323000Y-89992200D03*
%TO.P,U5,6,I/O1_6*%
%TO.N,/CONN_D-*%
X113323000Y-89042200D03*
%TD*%
D16*
%TO.P,U3,1,GND_1*%
%TO.N,GND*%
X136163500Y-65215800D03*
%TO.P,U3,2,VO_2*%
%TO.N,5V_REG*%
X136163500Y-62915800D03*
D17*
X129863500Y-62915800D03*
D16*
%TO.P,U3,3,VI_3*%
%TO.N,VM*%
X136163500Y-60615800D03*
%TD*%
D18*
%TO.P,S4,1*%
%TO.N,GND*%
X123155500Y-104394000D03*
%TO.P,S4,2*%
%TO.N,Net-(R2-~-Pad1)*%
X126155500Y-104394000D03*
%TO.P,S4,3*%
%TO.N,+3.3V*%
X127655500Y-104394000D03*
D19*
%TO.P,S4,SH1*%
%TO.N,N/C*%
X121605500Y-105419000D03*
%TO.P,S4,SH2*%
X129205500Y-105419000D03*
%TO.P,S4,SH3*%
X121605500Y-107519000D03*
%TO.P,S4,SH4*%
X129205500Y-107519000D03*
%TD*%
D16*
%TO.P,U6,1,GND_1*%
%TO.N,GND*%
X136188900Y-74055000D03*
%TO.P,U6,2,VO_2*%
%TO.N,+3.3V*%
X136188900Y-71755000D03*
D17*
X129888900Y-71755000D03*
D16*
%TO.P,U6,3,VI_3*%
%TO.N,+5V*%
X136188900Y-69455000D03*
%TD*%
D20*
%TO.P,R9,1,~_1*%
%TO.N,Net-(D4-A)*%
X125409500Y-75209400D03*
%TO.P,R9,2,~_2*%
%TO.N,/USER_LED*%
X127409500Y-75209400D03*
%TD*%
D21*
%TO.P,J4,1,Pin_1_1*%
%TO.N,GND*%
X105403700Y-76835000D03*
D22*
%TO.P,J4,2,Pin_2_2*%
%TO.N,/ESP_TX*%
X107943700Y-76835000D03*
%TO.P,J4,3,Pin_3_3*%
%TO.N,unconnected-(J4-Pin_3-Pad3)*%
X105403700Y-74295000D03*
%TO.P,J4,4,Pin_4_4*%
%TO.N,+3.3V*%
X107943700Y-74295000D03*
%TO.P,J4,5,Pin_5_5*%
%TO.N,Net-(J4-Pin_5)*%
X105403700Y-71755000D03*
%TO.P,J4,6,Pin_6_6*%
%TO.N,+3.3V*%
X107943700Y-71755000D03*
%TO.P,J4,7,Pin_7_7*%
%TO.N,/ESP_RX*%
X105403700Y-69215000D03*
%TO.P,J4,8,Pin_8_8*%
%TO.N,+3.3V*%
X107943700Y-69215000D03*
%TD*%
D23*
%TO.P,R8,1,~_1*%
%TO.N,Net-(J3-CC2)*%
X110866600Y-93014800D03*
%TO.P,R8,2,~_2*%
%TO.N,GND*%
X112691600Y-93014800D03*
%TD*%
D24*
%TO.P,U2,1,AO1_1*%
%TO.N,/MD_AO1*%
X161837300Y-81557100D03*
%TO.P,U2,2,AO1_2*%
X161837300Y-80907100D03*
%TO.P,U2,3,PGND1_3*%
%TO.N,GND*%
X161837300Y-80257100D03*
%TO.P,U2,4,PGND1_4*%
X161837300Y-79607100D03*
%TO.P,U2,5,AO2_5*%
%TO.N,/MD_AO2*%
X161837300Y-78957100D03*
%TO.P,U2,6,AO2_6*%
X161837300Y-78307100D03*
%TO.P,U2,7,BO2_7*%
%TO.N,/MD_BO2*%
X161837300Y-77657100D03*
%TO.P,U2,8,BO2_8*%
X161837300Y-77007100D03*
%TO.P,U2,9,PGND2_9*%
%TO.N,GND*%
X161837300Y-76357100D03*
%TO.P,U2,10,PGND2_10*%
X161837300Y-75707100D03*
%TO.P,U2,11,BO1_11*%
%TO.N,/MD_BO1*%
X161837300Y-75057100D03*
%TO.P,U2,12,BO1_12*%
X161837300Y-74407100D03*
%TO.P,U2,13,VM2_13*%
%TO.N,VM*%
X154837300Y-74407100D03*
%TO.P,U2,14,VM3_14*%
X154837300Y-75057100D03*
%TO.P,U2,15,PWMB_15*%
%TO.N,/MD_PWMB*%
X154837300Y-75707100D03*
%TO.P,U2,16,BIN2_16*%
%TO.N,/MD_BIN2*%
X154837300Y-76357100D03*
%TO.P,U2,17,BIN1_17*%
%TO.N,/MD_BIN1*%
X154837300Y-77007100D03*
%TO.P,U2,18,GND_18*%
%TO.N,GND*%
X154837300Y-77657100D03*
%TO.P,U2,19,STBY_19*%
%TO.N,/MD_STBY*%
X154837300Y-78307100D03*
%TO.P,U2,20,VCC_20*%
%TO.N,+3.3V*%
X154837300Y-78957100D03*
%TO.P,U2,21,AIN1_21*%
%TO.N,/MD_AIN1*%
X154837300Y-79607100D03*
%TO.P,U2,22,AIN2_22*%
%TO.N,/MD_AIN2*%
X154837300Y-80257100D03*
%TO.P,U2,23,PWMA_23*%
%TO.N,/MD_PWMA*%
X154837300Y-80907100D03*
%TO.P,U2,24,VM1_24*%
%TO.N,VM*%
X154837300Y-81557100D03*
%TD*%
D25*
%TO.P,D1,1,VDD_1*%
%TO.N,+5V*%
X147644900Y-90207000D03*
%TO.P,D1,2,DOUT_2*%
%TO.N,unconnected-(D1-DOUT-Pad2)*%
X150944900Y-90207000D03*
%TO.P,D1,3,VSS_3*%
%TO.N,GND*%
X150944900Y-85307000D03*
%TO.P,D1,4,DIN_4*%
%TO.N,/WS_DIN*%
X147644900Y-85307000D03*
%TD*%
D10*
%TO.P,C13,1,~_1*%
%TO.N,+5V*%
X138855500Y-69515900D03*
%TO.P,C13,2,~_2*%
%TO.N,GND*%
X138855500Y-67440900D03*
%TD*%
D26*
%TO.P,SW2,1,A_1*%
%TO.N,GND*%
X146294900Y-96672400D03*
%TO.P,SW2,2,B_2*%
%TO.N,/RESET*%
X139594900Y-96672400D03*
%TD*%
D27*
%TO.P,U1,1,VBAT_1*%
%TO.N,unconnected-(U1-VBAT-Pad1)*%
X135096300Y-91584400D03*
%TO.P,U1,2,PC13_2*%
%TO.N,/IMU_INT*%
X135096300Y-91084400D03*
%TO.P,U1,3,PC14_3*%
%TO.N,unconnected-(U1-PC14-Pad3)*%
X135096300Y-90584400D03*
%TO.P,U1,4,PC15_4*%
%TO.N,unconnected-(U1-PC15-Pad4)*%
X135096300Y-90084400D03*
%TO.P,U1,5,RCC_OSC_IN_5*%
%TO.N,/OSCIN*%
X135096300Y-89584400D03*
%TO.P,U1,6,RCC_OSC_OUT_6*%
%TO.N,/OSCOUT*%
X135096300Y-89084400D03*
%TO.P,U1,7,NRST_7*%
%TO.N,/RESET*%
X135096300Y-88584400D03*
%TO.P,U1,8,PC0_8*%
%TO.N,unconnected-(U1-PC0-Pad8)*%
X135096300Y-88084400D03*
%TO.P,U1,9,PC1_9*%
%TO.N,unconnected-(U1-PC1-Pad9)*%
X135096300Y-87584400D03*
%TO.P,U1,10,PC2_10*%
%TO.N,unconnected-(U1-PC2-Pad10)*%
X135096300Y-87084400D03*
%TO.P,U1,11,PC3_11*%
%TO.N,unconnected-(U1-PC3-Pad11)*%
X135096300Y-86584400D03*
%TO.P,U1,12,VSSA_12*%
%TO.N,GND*%
X135096300Y-86084400D03*
%TO.P,U1,13,VREF+_13*%
%TO.N,+3.3V*%
X135096300Y-85584400D03*
%TO.P,U1,14,TIM5_CH1_14*%
%TO.N,/WS_DIN*%
X135096300Y-85084400D03*
%TO.P,U1,15,TIM2_CH2_15*%
%TO.N,/MD_PWMA*%
X135096300Y-84584400D03*
%TO.P,U1,16,PA2_16*%
%TO.N,/MD_AIN2*%
X135096300Y-84084400D03*
D28*
%TO.P,U1,17,PA3_17*%
%TO.N,/MD_AIN1*%
X133171300Y-82159400D03*
%TO.P,U1,18,VSS_18*%
%TO.N,GND*%
X132671300Y-82159400D03*
%TO.P,U1,19,VDD_19*%
%TO.N,+3.3V*%
X132171300Y-82159400D03*
%TO.P,U1,20,PA4_20*%
%TO.N,/MD_STBY*%
X131671300Y-82159400D03*
%TO.P,U1,21,TIM2_CH1_21*%
%TO.N,/MD_PWMB*%
X131171300Y-82159400D03*
%TO.P,U1,22,PA6_22*%
%TO.N,/MD_BIN1*%
X130671300Y-82159400D03*
%TO.P,U1,23,PA7_23*%
%TO.N,/MD_BIN2*%
X130171300Y-82159400D03*
%TO.P,U1,24,PC4_24*%
%TO.N,unconnected-(U1-PC4-Pad24)*%
X129671300Y-82159400D03*
%TO.P,U1,25,PC5_25*%
%TO.N,unconnected-(U1-PC5-Pad25)*%
X129171300Y-82159400D03*
%TO.P,U1,26,PB0_26*%
%TO.N,unconnected-(U1-PB0-Pad26)*%
X128671300Y-82159400D03*
%TO.P,U1,27,PB1_27*%
%TO.N,/USER_LED*%
X128171300Y-82159400D03*
%TO.P,U1,28,PB2_28*%
%TO.N,GND*%
X127671300Y-82159400D03*
%TO.P,U1,29,PB10_29*%
%TO.N,unconnected-(U1-PB10-Pad29)*%
X127171300Y-82159400D03*
%TO.P,U1,30,VCAP1_30*%
%TO.N,Net-(U1-VCAP1)*%
X126671300Y-82159400D03*
%TO.P,U1,31,VSS_31*%
%TO.N,GND*%
X126171300Y-82159400D03*
%TO.P,U1,32,VDD_32*%
%TO.N,+3.3V*%
X125671300Y-82159400D03*
D27*
%TO.P,U1,33,PB12_33*%
%TO.N,unconnected-(U1-PB12-Pad33)*%
X123746300Y-84084400D03*
%TO.P,U1,34,PB13_34*%
%TO.N,unconnected-(U1-PB13-Pad34)*%
X123746300Y-84584400D03*
%TO.P,U1,35,PB14_35*%
%TO.N,unconnected-(U1-PB14-Pad35)*%
X123746300Y-85084400D03*
%TO.P,U1,36,PB15_36*%
%TO.N,unconnected-(U1-PB15-Pad36)*%
X123746300Y-85584400D03*
%TO.P,U1,37,PC6_37*%
%TO.N,/MT_PWM*%
X123746300Y-86084400D03*
%TO.P,U1,38,PC7_38*%
%TO.N,unconnected-(U1-PC7-Pad38)*%
X123746300Y-86584400D03*
%TO.P,U1,39,PC8_39*%
%TO.N,unconnected-(U1-PC8-Pad39)*%
X123746300Y-87084400D03*
%TO.P,U1,40,I2C3_SDA_40*%
%TO.N,/MT_SDA*%
X123746300Y-87584400D03*
%TO.P,U1,41,I2C3_SCL_41*%
%TO.N,/MT_SCL*%
X123746300Y-88084400D03*
%TO.P,U1,42,USART1_TX_42*%
%TO.N,/ESP_RX*%
X123746300Y-88584400D03*
%TO.P,U1,43,USART1_RX_43*%
%TO.N,/ESP_TX*%
X123746300Y-89084400D03*
%TO.P,U1,44,USB_OTG_FS_DM_44*%
%TO.N,/ESD_D-*%
X123746300Y-89584400D03*
%TO.P,U1,45,USB_OTG_FS_DP_45*%
%TO.N,/ESD_D+*%
X123746300Y-90084400D03*
%TO.P,U1,46,SYS_JTMS-SWDIO_46*%
%TO.N,/SWDIO*%
X123746300Y-90584400D03*
%TO.P,U1,47,VSS_47*%
%TO.N,GND*%
X123746300Y-91084400D03*
%TO.P,U1,48,VDD_48*%
%TO.N,+3.3V*%
X123746300Y-91584400D03*
D28*
%TO.P,U1,49,SYS_JTCK-SWCLK_49*%
%TO.N,/SWCLK*%
X125671300Y-93509400D03*
%TO.P,U1,50,PA15_50*%
%TO.N,unconnected-(U1-PA15-Pad50)*%
X126171300Y-93509400D03*
%TO.P,U1,51,PC10_51*%
%TO.N,unconnected-(U1-PC10-Pad51)*%
X126671300Y-93509400D03*
%TO.P,U1,52,PC11_52*%
%TO.N,unconnected-(U1-PC11-Pad52)*%
X127171300Y-93509400D03*
%TO.P,U1,53,PC12_53*%
%TO.N,unconnected-(U1-PC12-Pad53)*%
X127671300Y-93509400D03*
%TO.P,U1,54,PD2_54*%
%TO.N,unconnected-(U1-PD2-Pad54)*%
X128171300Y-93509400D03*
%TO.P,U1,55,PB3_55*%
%TO.N,unconnected-(U1-PB3-Pad55)*%
X128671300Y-93509400D03*
%TO.P,U1,56,PB4_56*%
%TO.N,unconnected-(U1-PB4-Pad56)*%
X129171300Y-93509400D03*
%TO.P,U1,57,PB5_57*%
%TO.N,unconnected-(U1-PB5-Pad57)*%
X129671300Y-93509400D03*
%TO.P,U1,58,PB6_58*%
%TO.N,/ENC_B*%
X130171300Y-93509400D03*
%TO.P,U1,59,PB7_59*%
%TO.N,/ENC_A*%
X130671300Y-93509400D03*
%TO.P,U1,60,BOOT0_60*%
%TO.N,/BOOT0*%
X131171300Y-93509400D03*
%TO.P,U1,61,I2C1_SCL_61*%
%TO.N,/IMU_SCL*%
X131671300Y-93509400D03*
%TO.P,U1,62,I2C1_SDA_62*%
%TO.N,/IMU_SDA*%
X132171300Y-93509400D03*
%TO.P,U1,63,VSS_63*%
%TO.N,GND*%
X132671300Y-93509400D03*
%TO.P,U1,64,VDD_64*%
%TO.N,+3.3V*%
X133171300Y-93509400D03*
%TD*%
D11*
%TO.P,C3,1,~_1*%
%TO.N,+3.3V*%
X133033400Y-79966800D03*
%TO.P,C3,2,~_2*%
%TO.N,GND*%
X135108400Y-79966800D03*
%TD*%
D29*
%TO.P,D3,1,K_1*%
%TO.N,GND*%
X125114100Y-72678400D03*
%TO.P,D3,2,A_2*%
%TO.N,Net-(D3-A)*%
X125114100Y-70628400D03*
%TD*%
D30*
%TO.P,Y3,1,1_1*%
%TO.N,/OSCIN*%
X144493400Y-90839500D03*
%TO.P,Y3,2,2_2*%
%TO.N,GND*%
X144493400Y-88639500D03*
%TO.P,Y3,3,3_3*%
%TO.N,/OSCOUT*%
X142793400Y-88639500D03*
%TO.P,Y3,4,4_4*%
%TO.N,GND*%
X142793400Y-90839500D03*
%TD*%
D31*
%TO.P,C22,1,~_1*%
%TO.N,5V_REG*%
X141217700Y-63203000D03*
%TO.P,C22,2,~_2*%
%TO.N,GND*%
X141217700Y-65278000D03*
%TD*%
D32*
%TO.P,J7,1,Pin_1_1*%
%TO.N,/MD_BO1*%
X158794500Y-60731400D03*
D33*
%TO.P,J7,2,Pin_2_2*%
%TO.N,/MD_BO2*%
X161294500Y-60731400D03*
%TD*%
D34*
%TO.P,D5,1,K_1*%
%TO.N,GND*%
X125536900Y-59969400D03*
%TO.P,D5,2,A_2*%
%TO.N,Net-(D5-A)*%
X127586900Y-59969400D03*
%TD*%
D20*
%TO.P,R2,1,~_1*%
%TO.N,Net-(R2-~-Pad1)*%
X126146100Y-102184200D03*
%TO.P,R2,2,~_2*%
%TO.N,/BOOT0*%
X128146100Y-102184200D03*
%TD*%
D21*
%TO.P,J1,1,Pin_1_1*%
%TO.N,+3.3V*%
X103397100Y-106400600D03*
D22*
%TO.P,J1,2,Pin_2_2*%
%TO.N,/SWCLK*%
X103397100Y-103860600D03*
%TO.P,J1,3,Pin_3_3*%
%TO.N,GND*%
X103397100Y-101320600D03*
%TO.P,J1,4,Pin_4_4*%
%TO.N,/SWDIO*%
X103397100Y-98780600D03*
%TD*%
D14*
%TO.P,R10,1,~_1*%
%TO.N,Net-(D5-A)*%
X127450900Y-62195200D03*
%TO.P,R10,2,~_2*%
%TO.N,5V_REG*%
X127450900Y-64195200D03*
%TD*%
%TO.P,R6,1,~_1*%
%TO.N,Net-(D3-A)*%
X127374700Y-70628000D03*
%TO.P,R6,2,~_2*%
%TO.N,+3.3V*%
X127374700Y-72628000D03*
%TD*%
D34*
%TO.P,D4,1,K_1*%
%TO.N,GND*%
X121396700Y-75184000D03*
%TO.P,D4,2,A_2*%
%TO.N,Net-(D4-A)*%
X123446700Y-75184000D03*
%TD*%
D35*
%TO.P,REG SW,1*%
%TO.N,5V_REG*%
X149895900Y-67210209D03*
%TO.P,REG SW,2*%
%TO.N,+5V*%
X149895900Y-70210209D03*
%TO.P,REG SW,3*%
%TO.N,Vusb*%
X149895900Y-71710209D03*
D36*
%TO.P,REG SW,SH1*%
%TO.N,N/C*%
X148870900Y-65660209D03*
%TO.P,REG SW,SH2*%
X148870900Y-73260209D03*
%TO.P,REG SW,SH3*%
X146770900Y-65660209D03*
%TO.P,REG SW,SH4*%
X146770900Y-73260209D03*
%TD*%
D29*
%TO.P,D2,1,K_1*%
%TO.N,GND*%
X113470900Y-82191800D03*
%TO.P,D2,2,A_2*%
%TO.N,Net-(D2-A)*%
X113470900Y-80141800D03*
%TD*%
D31*
%TO.P,C14,1,~_1*%
%TO.N,+3.3V*%
X138906300Y-71885900D03*
%TO.P,C14,2,~_2*%
%TO.N,GND*%
X138906300Y-73960900D03*
%TD*%
D20*
%TO.P,R3,1,~_1*%
%TO.N,/CONN_D-*%
X118018100Y-88976200D03*
%TO.P,R3,2,~_2*%
%TO.N,/ESD_D-*%
X120018100Y-88976200D03*
%TD*%
D12*
%TO.P,C25,1,~_1*%
%TO.N,+3.3V*%
X123789400Y-81127600D03*
%TO.P,C25,2,~_2*%
%TO.N,GND*%
X121714400Y-81127600D03*
%TD*%
D10*
%TO.P,C17,1,~_1*%
%TO.N,VM*%
X141243100Y-60067100D03*
%TO.P,C17,2,~_2*%
%TO.N,GND*%
X141243100Y-57992100D03*
%TD*%
D12*
%TO.P,C26,1,~_1*%
%TO.N,GND*%
X150256200Y-92532200D03*
%TO.P,C26,2,~_2*%
%TO.N,+5V*%
X148181200Y-92532200D03*
%TD*%
D37*
%TO.P,J5,1,Pin_1_1*%
%TO.N,VM*%
X150499500Y-61442600D03*
D33*
%TO.P,J5,2,Pin_2_2*%
%TO.N,GND*%
X147999500Y-61442600D03*
%TD*%
D10*
%TO.P,C18,1,~_1*%
%TO.N,VM*%
X138804700Y-60041700D03*
%TO.P,C18,2,~_2*%
%TO.N,GND*%
X138804700Y-57966700D03*
%TD*%
D31*
%TO.P,C20,1,~_1*%
%TO.N,GND*%
X140372700Y-86392600D03*
%TO.P,C20,2,~_2*%
%TO.N,/OSCOUT*%
X140372700Y-88467600D03*
%TD*%
D11*
%TO.P,C6,1,~_1*%
%TO.N,VM*%
X155445600Y-83718400D03*
%TO.P,C6,2,~_2*%
%TO.N,GND*%
X157520600Y-83718400D03*
%TD*%
D32*
%TO.P,J6,1,Pin_1_1*%
%TO.N,/MD_AO1*%
X158916100Y-104961200D03*
D33*
%TO.P,J6,2,Pin_2_2*%
%TO.N,/MD_AO2*%
X161416100Y-104961200D03*
%TD*%
D31*
%TO.P,C23,1,~_1*%
%TO.N,5V_REG*%
X138855500Y-63275300D03*
%TO.P,C23,2,~_2*%
%TO.N,GND*%
X138855500Y-65350300D03*
%TD*%
D38*
%TO.P,J9,1,Pin_1_1*%
%TO.N,+3.3V*%
X113337043Y-65425082D03*
D39*
%TO.P,J9,2,Pin_2_2*%
%TO.N,GND*%
X115837043Y-65425082D03*
%TO.P,J9,3,Pin_3_3*%
%TO.N,/MT_PWM*%
X118337043Y-65425082D03*
%TO.P,J9,4,Pin_4_4*%
%TO.N,/MT_SCL*%
X120837043Y-65425082D03*
%TO.P,J9,5,Pin_5_5*%
%TO.N,/MT_SDA*%
X123337043Y-65425082D03*
%TD*%
D40*
%TO.P,J3,SH,SHIELD_SH*%
%TO.N,GND*%
X102695900Y-94304400D03*
D41*
X106875900Y-94304400D03*
D40*
X102695900Y-85664400D03*
D41*
X106875900Y-85664400D03*
D42*
%TO.P,J3,B12,GND_B12*%
X107515900Y-86784400D03*
%TO.P,J3,B9,VBUS_B9*%
%TO.N,Net-(F1-~-Pad1)*%
X107515900Y-87584400D03*
D43*
%TO.P,J3,B8*%
%TO.N,N/C*%
X107515900Y-88234400D03*
%TO.P,J3,B7,D-_B7*%
%TO.N,/USB_D-*%
X107515900Y-89234400D03*
%TO.P,J3,B6,D+_B6*%
%TO.N,/USB_D+*%
X107515900Y-90734400D03*
%TO.P,J3,B5,CC2_B5*%
%TO.N,Net-(J3-CC2)*%
X107515900Y-91734400D03*
D42*
%TO.P,J3,B4,VBUS_B4*%
%TO.N,Net-(F1-~-Pad1)*%
X107515900Y-92384400D03*
%TO.P,J3,B1,GND_B1*%
%TO.N,GND*%
X107515900Y-93184400D03*
%TO.P,J3,A12,GND_A12*%
X107515900Y-93184400D03*
%TO.P,J3,A9,VBUS_A9*%
%TO.N,Net-(F1-~-Pad1)*%
X107515900Y-92384400D03*
D43*
%TO.P,J3,A8*%
%TO.N,N/C*%
X107515900Y-91234400D03*
%TO.P,J3,A7,D-_A7*%
%TO.N,/USB_D-*%
X107515900Y-90234400D03*
%TO.P,J3,A6,D+_A6*%
%TO.N,/USB_D+*%
X107515900Y-89734400D03*
%TO.P,J3,A5,CC1_A5*%
%TO.N,Net-(J3-CC1)*%
X107515900Y-88734400D03*
D42*
%TO.P,J3,A4,VBUS_A4*%
%TO.N,Net-(F1-~-Pad1)*%
X107515900Y-87584400D03*
%TO.P,J3,A1,GND_A1*%
%TO.N,GND*%
X107515900Y-86784400D03*
%TD*%
D10*
%TO.P,C19,1,~_1*%
%TO.N,GND*%
X140372700Y-92404600D03*
%TO.P,C19,2,~_2*%
%TO.N,/OSCIN*%
X140372700Y-90329600D03*
%TD*%
D21*
%TO.P,J2,1,Pin_1_1*%
%TO.N,+5V*%
X134512100Y-107365800D03*
D22*
%TO.P,J2,2,Pin_2_2*%
%TO.N,GND*%
X137052100Y-107365800D03*
%TO.P,J2,3,Pin_3_3*%
%TO.N,/IMU_SCL*%
X139592100Y-107365800D03*
%TO.P,J2,4,Pin_4_4*%
%TO.N,/IMU_SDA*%
X142132100Y-107365800D03*
%TO.P,J2,5,Pin_5_5*%
%TO.N,unconnected-(J2-Pin_5-Pad5)*%
X144672100Y-107365800D03*
%TO.P,J2,6,Pin_6_6*%
%TO.N,unconnected-(J2-Pin_6-Pad6)*%
X147212100Y-107365800D03*
%TO.P,J2,7,Pin_7_7*%
%TO.N,unconnected-(J2-Pin_7-Pad7)*%
X149752100Y-107365800D03*
%TO.P,J2,8,Pin_8_8*%
%TO.N,/IMU_INT*%
X152292100Y-107365800D03*
%TD*%
D11*
%TO.P,C4,1,~_1*%
%TO.N,+3.3V*%
X133398400Y-95885000D03*
%TO.P,C4,2,~_2*%
%TO.N,GND*%
X135473400Y-95885000D03*
%TD*%
D31*
%TO.P,C1,1,~_1*%
%TO.N,+3.3V*%
X122456900Y-93127500D03*
%TO.P,C1,2,~_2*%
%TO.N,GND*%
X122456900Y-95202500D03*
%TD*%
D44*
%TO.P,C9,1*%
%TO.N,VM*%
X155977800Y-87079300D03*
%TO.P,C9,2*%
%TO.N,GND*%
X161092800Y-87079300D03*
%TD*%
D20*
%TO.P,R4,1,~_1*%
%TO.N,/CONN_D+*%
X118018100Y-91033600D03*
%TO.P,R4,2,~_2*%
%TO.N,/ESD_D+*%
X120018100Y-91033600D03*
%TD*%
D31*
%TO.P,C24,1,~_1*%
%TO.N,+3.3V*%
X137720900Y-85929300D03*
%TO.P,C24,2,~_2*%
%TO.N,GND*%
X137720900Y-88004300D03*
%TD*%
D45*
%TO.P,R7,1,~_1*%
%TO.N,GND*%
X110720900Y-85304300D03*
%TO.P,R7,2,~_2*%
%TO.N,Net-(J3-CC1)*%
X110720900Y-87129300D03*
%TD*%
D10*
%TO.P,C15,1,~_1*%
%TO.N,+5V*%
X141116100Y-69490500D03*
%TO.P,C15,2,~_2*%
%TO.N,GND*%
X141116100Y-67415500D03*
%TD*%
D46*
%TO.P,J8,1,Pin_1_1*%
%TO.N,+3.3V*%
X116753700Y-102412800D03*
D39*
%TO.P,J8,2,Pin_2_2*%
%TO.N,/ENC_A*%
X114253700Y-102412800D03*
%TO.P,J8,3,Pin_3_3*%
%TO.N,/ENC_B*%
X111753700Y-102412800D03*
%TO.P,J8,4,Pin_4_4*%
%TO.N,GND*%
X109253700Y-102412800D03*
%TD*%
D31*
%TO.P,C16,1,~_1*%
%TO.N,+3.3V*%
X141217700Y-71864400D03*
%TO.P,C16,2,~_2*%
%TO.N,GND*%
X141217700Y-73939400D03*
%TD*%
D47*
%TO.P,R17,1,~_1*%
%TO.N,+3.3V*%
X106505300Y-65659000D03*
%TO.P,R17,2,~_2*%
%TO.N,Net-(J4-Pin_5)*%
X104505300Y-65659000D03*
%TD*%
D11*
%TO.P,C21,1,~_1*%
%TO.N,/RESET*%
X139545200Y-99923600D03*
%TO.P,C21,2,~_2*%
%TO.N,GND*%
X141620200Y-99923600D03*
%TD*%
D48*
%TO.N,+5V*%
X149620900Y-81616800D03*
X149620900Y-75158800D03*
%TO.N,GND*%
X160320900Y-79566800D03*
%TO.N,+3.3V*%
X116820900Y-77216800D03*
X120370900Y-77166800D03*
%TO.N,GND*%
X109820900Y-85316800D03*
%TO.N,Vusb*%
X115770900Y-83516800D03*
X117120900Y-82166800D03*
X120270900Y-73866800D03*
X117710043Y-73916800D03*
%TO.N,/MT_PWM*%
X119820900Y-84216800D03*
X118320900Y-83266800D03*
%TO.N,+3.3V*%
X116770900Y-97716800D03*
X116770900Y-100666800D03*
%TO.N,GND*%
X124020900Y-72616800D03*
%TO.N,+3.3V*%
X135470900Y-103416800D03*
X151320900Y-103366800D03*
X141070900Y-103366800D03*
X138620900Y-103416800D03*
X152570900Y-102166800D03*
%TO.N,GND*%
X145770900Y-88566800D03*
%TO.N,+3.3V*%
X139020900Y-85616800D03*
X139120900Y-83866800D03*
X146770900Y-81566800D03*
%TO.N,/RESET*%
X137647900Y-94366800D03*
X136393900Y-94366800D03*
%TO.N,+3.3V*%
X146770900Y-75739800D03*
X146770900Y-78966800D03*
X154020900Y-73216800D03*
X155620900Y-73216800D03*
X145020900Y-74516800D03*
X143970900Y-73516800D03*
%TO.N,/MD_PWMB*%
X150920900Y-77634100D03*
X152770900Y-75716800D03*
%TO.N,GND*%
X160320900Y-76566800D03*
X141102900Y-66516800D03*
X153270900Y-77566800D03*
X137038900Y-106002800D03*
X140848900Y-99906800D03*
X104780900Y-101430800D03*
X160370900Y-80266800D03*
X156850900Y-83650800D03*
X108590900Y-93302800D03*
X109352900Y-100922800D03*
X136270900Y-80016800D03*
X138918500Y-73033600D03*
X120351100Y-81161600D03*
X138870900Y-64466800D03*
X140340900Y-87206800D03*
X113470900Y-81466800D03*
X146620900Y-61552800D03*
X126220900Y-76666800D03*
X132492300Y-92032800D03*
X134651300Y-74125800D03*
X134752900Y-95842800D03*
X161070900Y-88666800D03*
X134625900Y-65210400D03*
X146436900Y-97874800D03*
X141270900Y-58916800D03*
X122306900Y-104224800D03*
X160914900Y-83650800D03*
X138816900Y-58916800D03*
X127640900Y-83650800D03*
X132720900Y-83650800D03*
X138870900Y-66566800D03*
X133736900Y-86190800D03*
X160320900Y-75716800D03*
X122270900Y-75166800D03*
X124237300Y-59927200D03*
X109860900Y-90000800D03*
X105542900Y-78062800D03*
X141204500Y-73008200D03*
X121170900Y-95166800D03*
X115702900Y-66886800D03*
X151420900Y-92466800D03*
X150920900Y-86466800D03*
X141220900Y-64416800D03*
X137546900Y-87206800D03*
X120351100Y-78951800D03*
X108590900Y-86698800D03*
X142870900Y-91916800D03*
X122320900Y-91066800D03*
X126116900Y-83650800D03*
X113720900Y-92966800D03*
X141570900Y-92416800D03*
%TD*%
%TO.N,+5V*%
D49*
X149620900Y-88231000D02*
X148770900Y-89081000D01*
X148770900Y-99566800D02*
X154570900Y-105366800D01*
X148770900Y-89081000D02*
X148770900Y-99566800D01*
X154570900Y-105366800D02*
X154570900Y-107616800D01*
X154570900Y-107616800D02*
X152970900Y-109216800D01*
X152970900Y-109216800D02*
X135470900Y-109216800D01*
X135470900Y-109216800D02*
X134512100Y-108258000D01*
X134512100Y-108258000D02*
X134512100Y-107365800D01*
X149620900Y-81616800D02*
X149620900Y-88231000D01*
X149620900Y-88231000D02*
X147644900Y-90207000D01*
X151370900Y-73864400D02*
X150915300Y-73864400D01*
X150915300Y-73864400D02*
X149620900Y-75158800D01*
%TO.N,+3.3V*%
X146770900Y-74516800D02*
X148103400Y-75849300D01*
X148103400Y-75849300D02*
X151188400Y-75849300D01*
X151188400Y-75849300D02*
X153820900Y-73216800D01*
%TO.N,GND*%
D50*
X141217700Y-73939400D02*
X141217700Y-73021400D01*
X141217700Y-73021400D02*
X141204500Y-73008200D01*
X138906300Y-73960900D02*
X138906300Y-73045800D01*
X138906300Y-73045800D02*
X138918500Y-73033600D01*
X136188900Y-74055000D02*
X134722100Y-74055000D01*
X134722100Y-74055000D02*
X134651300Y-74125800D01*
D49*
X161092800Y-87079300D02*
X161092800Y-88644900D01*
X161092800Y-88644900D02*
X161070900Y-88666800D01*
X150944900Y-85307000D02*
X150944900Y-86442800D01*
X150944900Y-86442800D02*
X150920900Y-86466800D01*
X136270900Y-80016800D02*
X135158400Y-80016800D01*
X135158400Y-80016800D02*
X135108400Y-79966800D01*
X153270900Y-77566800D02*
X153361200Y-77657100D01*
X153361200Y-77657100D02*
X154837300Y-77657100D01*
D51*
X154727600Y-77766800D02*
X154837300Y-77657100D01*
%TO.N,/MD_BO2*%
D49*
X161294500Y-60731400D02*
X163970900Y-63407800D01*
X163970900Y-63407800D02*
X163970900Y-76266800D01*
X163970900Y-76266800D02*
X163230600Y-77007100D01*
X163230600Y-77007100D02*
X162787299Y-77007100D01*
%TO.N,/MD_AO2*%
X161837300Y-78957100D02*
X163361200Y-78957100D01*
X163361200Y-78957100D02*
X164970900Y-80566800D01*
X164970900Y-80566800D02*
X164970900Y-101416800D01*
X164970900Y-101416800D02*
X163231300Y-103156400D01*
%TO.N,/MD_AO1*%
X161837300Y-80907100D02*
X161837300Y-81557100D01*
%TO.N,GND*%
X161837300Y-79607100D02*
X160361200Y-79607100D01*
X160361200Y-79607100D02*
X160320900Y-79566800D01*
X161837300Y-80257100D02*
X160380600Y-80257100D01*
X160380600Y-80257100D02*
X160370900Y-80266800D01*
X161837300Y-75707100D02*
X160330600Y-75707100D01*
X160330600Y-75707100D02*
X160320900Y-75716800D01*
X161837300Y-76357100D02*
X160530600Y-76357100D01*
X160530600Y-76357100D02*
X160320900Y-76566800D01*
%TO.N,+3.3V*%
D50*
X123789400Y-78917800D02*
X122038400Y-77166800D01*
X122038400Y-77166800D02*
X120370900Y-77166800D01*
X116820900Y-77216800D02*
X113899100Y-74295000D01*
X113899100Y-74295000D02*
X107943700Y-74295000D01*
%TO.N,GND*%
D49*
X109820900Y-85316800D02*
X110708400Y-85316800D01*
X110708400Y-85316800D02*
X110720900Y-85304300D01*
%TO.N,Net-(J4-Pin_5)*%
D52*
X104505300Y-65659000D02*
X104020900Y-66143400D01*
X104020900Y-66143400D02*
X104020900Y-70372200D01*
X104020900Y-70372200D02*
X105403700Y-71755000D01*
%TO.N,/ESP_RX*%
D51*
X123746300Y-88584400D02*
X122480552Y-88584400D01*
X106670900Y-74872730D02*
X106670900Y-70482200D01*
X122480552Y-88584400D02*
X116028900Y-82132748D01*
X116028900Y-82132748D02*
X116028900Y-78829783D01*
X116028900Y-78829783D02*
X112765917Y-75566800D01*
X112765917Y-75566800D02*
X107364970Y-75566800D01*
X107364970Y-75566800D02*
X106670900Y-74872730D01*
X106670900Y-70482200D02*
X105403700Y-69215000D01*
%TO.N,+3.3V*%
D50*
X107943700Y-71755000D02*
X107943700Y-74295000D01*
X107943700Y-69215000D02*
X107943700Y-71755000D01*
%TO.N,Vusb*%
D52*
X112482500Y-83516800D02*
X112482500Y-88305200D01*
X112482500Y-88305200D02*
X112170900Y-88616800D01*
X112170900Y-88616800D02*
X112170900Y-89502599D01*
X112170900Y-89502599D02*
X112660501Y-89992200D01*
X112660501Y-89992200D02*
X113323000Y-89992200D01*
D49*
X117710043Y-73916800D02*
X117710043Y-81577657D01*
X117710043Y-81577657D02*
X117120900Y-82166800D01*
X112482500Y-83516800D02*
X111118700Y-82153000D01*
X115770900Y-83516800D02*
X112482500Y-83516800D01*
X120320900Y-73816800D02*
X120270900Y-73866800D01*
X149895900Y-71710209D02*
X149527491Y-71710209D01*
X130270900Y-75816800D02*
X128270900Y-73816800D01*
X149220900Y-72016800D02*
X146510309Y-72016800D01*
X149527491Y-71710209D02*
X149220900Y-72016800D01*
X142710309Y-75816800D02*
X130270900Y-75816800D01*
X128270900Y-73816800D02*
X120320900Y-73816800D01*
X146510309Y-72016800D02*
X142710309Y-75816800D01*
%TO.N,/MT_PWM*%
D51*
X118337043Y-65425082D02*
X118337043Y-83250657D01*
X119820900Y-84216800D02*
X121688500Y-86084400D01*
X118337043Y-83250657D02*
X118320900Y-83266800D01*
X121688500Y-86084400D02*
X123746300Y-86084400D01*
%TO.N,/MT_SCL*%
X120837043Y-65425082D02*
X120837043Y-71000657D01*
X120837043Y-71000657D02*
X119020900Y-72816800D01*
X119020900Y-72816800D02*
X119020900Y-84416800D01*
X119020900Y-84416800D02*
X122688500Y-88084400D01*
X122688500Y-88084400D02*
X123746300Y-88084400D01*
%TO.N,/MT_SDA*%
X123337043Y-65425082D02*
X123262618Y-65425082D01*
X123262618Y-65425082D02*
X121370900Y-67316800D01*
X121370900Y-67316800D02*
X121370900Y-71266800D01*
X121370900Y-71266800D02*
X119574900Y-73062800D01*
X119574900Y-73062800D02*
X119574900Y-81620800D01*
X121070900Y-83116800D02*
X124620900Y-83116800D01*
X119574900Y-81620800D02*
X121070900Y-83116800D01*
X124620900Y-83116800D02*
X125170900Y-83666800D01*
X125170900Y-83666800D02*
X125170900Y-87216800D01*
X125170900Y-87216800D02*
X124803300Y-87584400D01*
X124803300Y-87584400D02*
X123746300Y-87584400D01*
%TO.N,+3.3V*%
D50*
X113337043Y-65425082D02*
X111733618Y-65425082D01*
X111733618Y-65425082D02*
X107943700Y-69215000D01*
X113337043Y-65425082D02*
X106739218Y-65425082D01*
X106739218Y-65425082D02*
X106505300Y-65659000D01*
X129888900Y-71755000D02*
X129888900Y-69855000D01*
X129888900Y-69855000D02*
X123319700Y-63285800D01*
X123319700Y-63285800D02*
X115476325Y-63285800D01*
X115476325Y-63285800D02*
X113337043Y-65425082D01*
D49*
X127655500Y-104569000D02*
X128170900Y-105084400D01*
X127520900Y-107916800D02*
X123720900Y-107916800D01*
X128170900Y-105084400D02*
X128170900Y-107266800D01*
X122320900Y-106516800D02*
X120857700Y-106516800D01*
X128170900Y-107266800D02*
X127520900Y-107916800D01*
X123720900Y-107916800D02*
X122320900Y-106516800D01*
X120857700Y-106516800D02*
X120562300Y-106221400D01*
X120562300Y-106221400D02*
X119589700Y-105248800D01*
X119589700Y-105248800D02*
X104548900Y-105248800D01*
X104548900Y-105248800D02*
X103397100Y-106400600D01*
%TO.N,/ENC_B*%
D51*
X130171300Y-93509400D02*
X130171300Y-94354992D01*
X130171300Y-94354992D02*
X125059492Y-99466800D01*
X125059492Y-99466800D02*
X114699700Y-99466800D01*
X114699700Y-99466800D02*
X114695699Y-99470800D01*
X114695699Y-99470800D02*
X113516900Y-99470800D01*
X113516900Y-99470800D02*
X111753700Y-101234000D01*
X111753700Y-101234000D02*
X111753700Y-102412800D01*
%TO.N,/SWCLK*%
X103397100Y-103860600D02*
X104427100Y-103860600D01*
X114511648Y-99012800D02*
X124871440Y-99012800D01*
X104427100Y-103860600D02*
X109270900Y-99016800D01*
X109270900Y-99016800D02*
X114507647Y-99016800D01*
X124871440Y-99012800D02*
X125671300Y-98212940D01*
X114507647Y-99016800D02*
X114511648Y-99012800D01*
X125671300Y-98212940D02*
X125671300Y-93509400D01*
%TO.N,/SWDIO*%
X123746300Y-90584400D02*
X124591892Y-90584400D01*
X124591892Y-90584400D02*
X124870900Y-90863408D01*
X124220900Y-98516800D02*
X103660900Y-98516800D01*
X124870900Y-90863408D02*
X124870900Y-97866800D01*
X124870900Y-97866800D02*
X124220900Y-98516800D01*
X103660900Y-98516800D02*
X103397100Y-98780600D01*
%TO.N,+3.3V*%
D49*
X116770900Y-97716800D02*
X121360200Y-93127500D01*
X121360200Y-93127500D02*
X122456900Y-93127500D01*
%TO.N,/ENC_A*%
D51*
X130671300Y-93509400D02*
X130648300Y-93509400D01*
X130648300Y-93509400D02*
X130648300Y-94377992D01*
X130648300Y-94377992D02*
X130625300Y-94400992D01*
X130625300Y-94400992D02*
X130625300Y-94543045D01*
X130625300Y-94543045D02*
X125201545Y-99966800D01*
X115670900Y-99966800D02*
X114253700Y-101384000D01*
X125201545Y-99966800D02*
X115670900Y-99966800D01*
X114253700Y-101384000D02*
X114253700Y-102412800D01*
%TO.N,+3.3V*%
D49*
X116753700Y-100684000D02*
X116770900Y-100666800D01*
X116753700Y-102412800D02*
X116753700Y-100684000D01*
D52*
X127655500Y-104394000D02*
X127655500Y-104569000D01*
D49*
X120562300Y-106221400D02*
X116753700Y-102412800D01*
%TO.N,/ESP_TX*%
D51*
X123746300Y-89084400D02*
X122338500Y-89084400D01*
X122338500Y-89084400D02*
X115574900Y-82320800D01*
X115574900Y-82320800D02*
X115574900Y-79017835D01*
X115574900Y-79017835D02*
X113392065Y-76835000D01*
X113392065Y-76835000D02*
X107943700Y-76835000D01*
%TO.N,/MT_SCL*%
X120837043Y-65425082D02*
X120837043Y-64782943D01*
X122781655Y-88107400D02*
X124020900Y-88107400D01*
%TO.N,GND*%
D49*
X126257100Y-77727900D02*
X126257100Y-76703000D01*
X126257100Y-76703000D02*
X126220900Y-76666800D01*
X122270900Y-75166800D02*
X121413900Y-75166800D01*
X121413900Y-75166800D02*
X121396700Y-75184000D01*
X125114100Y-72678400D02*
X124082500Y-72678400D01*
X124082500Y-72678400D02*
X124020900Y-72616800D01*
D51*
X121429500Y-75216800D02*
X121396700Y-75184000D01*
%TO.N,/MT_PWM*%
X118570900Y-65658939D02*
X118337043Y-65425082D01*
%TO.N,+3.3V*%
D49*
X135470900Y-103416800D02*
X134493700Y-104394000D01*
X134493700Y-104394000D02*
X127655500Y-104394000D01*
X158870900Y-81442000D02*
X158870900Y-95966800D01*
X159246100Y-81066800D02*
X158870900Y-81442000D01*
X158870900Y-95966800D02*
X152670900Y-102166800D01*
D52*
X133398400Y-98194300D02*
X133398400Y-95885000D01*
X152670900Y-102166800D02*
X152570900Y-102166800D01*
D49*
X151320900Y-103366800D02*
X141070900Y-103366800D01*
D52*
X159270900Y-81066800D02*
X159246100Y-81066800D01*
X138620900Y-103416800D02*
X133398400Y-98194300D01*
%TO.N,GND*%
D49*
X160965300Y-87206800D02*
X161092800Y-87079300D01*
%TO.N,+3.3V*%
X159270900Y-81066800D02*
X159683500Y-81479400D01*
X159683500Y-81479400D02*
X159683500Y-83732800D01*
X155620900Y-73216800D02*
X156995300Y-74591200D01*
X156995300Y-74591200D02*
X156995300Y-77941200D01*
X156995300Y-77941200D02*
X159270900Y-80216800D01*
X159270900Y-80216800D02*
X159270900Y-81066800D01*
%TO.N,GND*%
D51*
X132671300Y-93509400D02*
X132671300Y-92211800D01*
X132671300Y-92211800D02*
X132492300Y-92032800D01*
%TO.N,/IMU_SCL*%
X139592100Y-107365800D02*
X139592100Y-106438000D01*
X139592100Y-106438000D02*
X131671300Y-98517200D01*
X131671300Y-98517200D02*
X131671300Y-93509400D01*
%TO.N,/BOOT0*%
X131171300Y-93509400D02*
X131171300Y-98216400D01*
X131171300Y-98216400D02*
X128146100Y-101241600D01*
X128146100Y-101241600D02*
X128146100Y-102184200D01*
%TO.N,/IMU_SDA*%
X132171300Y-93509400D02*
X132171300Y-98217200D01*
X132171300Y-98217200D02*
X141319900Y-107365800D01*
X141319900Y-107365800D02*
X142132100Y-107365800D01*
%TO.N,GND*%
D49*
X122456900Y-95202500D02*
X121206600Y-95202500D01*
X121206600Y-95202500D02*
X121170900Y-95166800D01*
%TO.N,+3.3V*%
D52*
X122456900Y-93127500D02*
X122456900Y-92030800D01*
D51*
X122456900Y-92030800D02*
X122903300Y-91584400D01*
X122903300Y-91584400D02*
X123746300Y-91584400D01*
%TO.N,GND*%
X123746300Y-91084400D02*
X122338500Y-91084400D01*
X122338500Y-91084400D02*
X122320900Y-91066800D01*
X126171300Y-82159400D02*
X126171300Y-83596400D01*
X126171300Y-83596400D02*
X126116900Y-83650800D01*
X127671300Y-82159400D02*
X127671300Y-83620400D01*
X127671300Y-83620400D02*
X127640900Y-83650800D01*
X132671300Y-82159400D02*
X132671300Y-83601200D01*
X132671300Y-83601200D02*
X132720900Y-83650800D01*
X135096300Y-86084400D02*
X133843300Y-86084400D01*
X133843300Y-86084400D02*
X133736900Y-86190800D01*
D49*
X140372700Y-92404600D02*
X141558700Y-92404600D01*
X141558700Y-92404600D02*
X141570900Y-92416800D01*
X142793400Y-90839500D02*
X142793400Y-91839300D01*
X142793400Y-91839300D02*
X142870900Y-91916800D01*
X145770900Y-88566800D02*
X144566100Y-88566800D01*
X144566100Y-88566800D02*
X144493400Y-88639500D01*
X151420900Y-92466800D02*
X150321600Y-92466800D01*
X150321600Y-92466800D02*
X150256200Y-92532200D01*
X146294900Y-96672400D02*
X146294900Y-97732800D01*
X146294900Y-97732800D02*
X146436900Y-97874800D01*
%TO.N,/MD_AO2*%
X161837300Y-78307100D02*
X161837300Y-78957100D01*
%TO.N,/MD_BO2*%
X161837300Y-77657100D02*
X161837300Y-77007100D01*
%TO.N,GND*%
X147999500Y-61442600D02*
X146731100Y-61442600D01*
X146731100Y-61442600D02*
X146620900Y-61552800D01*
X147999500Y-61442600D02*
X146801100Y-61442600D01*
X146801100Y-61442600D02*
X146690900Y-61552800D01*
X138816900Y-58916800D02*
X138816900Y-57978900D01*
X138816900Y-57978900D02*
X138804700Y-57966700D01*
X141270900Y-58916800D02*
X141270900Y-58019900D01*
X141270900Y-58019900D02*
X141243100Y-57992100D01*
X138855500Y-67440900D02*
X138855500Y-66582200D01*
X138855500Y-66582200D02*
X138870900Y-66566800D01*
X141116100Y-67415500D02*
X141116100Y-66530000D01*
X141116100Y-66530000D02*
X141102900Y-66516800D01*
X141217700Y-65278000D02*
X141217700Y-64470000D01*
X141217700Y-64470000D02*
X141220900Y-64466800D01*
X138855500Y-65350300D02*
X138855500Y-64482200D01*
X138855500Y-64482200D02*
X138870900Y-64466800D01*
X141102900Y-67428700D02*
X141116100Y-67415500D01*
X138816900Y-67479500D02*
X138855500Y-67440900D01*
X136163500Y-65215800D02*
X134631300Y-65215800D01*
X134631300Y-65215800D02*
X134625900Y-65210400D01*
X125536900Y-59969400D02*
X124279500Y-59969400D01*
X124279500Y-59969400D02*
X124237300Y-59927200D01*
X115837043Y-65425082D02*
X115837043Y-66752657D01*
X115837043Y-66752657D02*
X115702900Y-66886800D01*
X121714400Y-81127600D02*
X120385100Y-81127600D01*
X120385100Y-81127600D02*
X120351100Y-81161600D01*
X121714400Y-78917800D02*
X120385100Y-78917800D01*
X120385100Y-78917800D02*
X120351100Y-78951800D01*
X113470900Y-82191800D02*
X113470900Y-81466800D01*
X105403700Y-76835000D02*
X105403700Y-77923600D01*
X105403700Y-77923600D02*
X105542900Y-78062800D01*
X107515900Y-86784400D02*
X108505300Y-86784400D01*
X108505300Y-86784400D02*
X108590900Y-86698800D01*
X107515900Y-93184400D02*
X108472500Y-93184400D01*
X108472500Y-93184400D02*
X108590900Y-93302800D01*
X111048000Y-89992200D02*
X109869500Y-89992200D01*
X109869500Y-89992200D02*
X109860900Y-90000800D01*
X113720900Y-92966800D02*
X112739600Y-92966800D01*
X112739600Y-92966800D02*
X112691600Y-93014800D01*
D51*
X122306900Y-104224800D02*
X122986300Y-104224800D01*
X122986300Y-104224800D02*
X123155500Y-104394000D01*
D49*
X103397100Y-101320600D02*
X104670700Y-101320600D01*
X104670700Y-101320600D02*
X104780900Y-101430800D01*
X109253700Y-102412800D02*
X109253700Y-101022000D01*
X109253700Y-101022000D02*
X109352900Y-100922800D01*
%TO.N,+3.3V*%
D51*
X133033400Y-79966800D02*
X134085400Y-78914800D01*
X134085400Y-78914800D02*
X146718900Y-78914800D01*
X146718900Y-78914800D02*
X146770900Y-78966800D01*
X138033400Y-85616800D02*
X137720900Y-85929300D01*
X146770900Y-81566800D02*
X144470900Y-83866800D01*
X144470900Y-83866800D02*
X139120900Y-83866800D01*
X139020900Y-85616800D02*
X138033400Y-85616800D01*
%TO.N,/RESET*%
X133994300Y-92890200D02*
X135420900Y-94316800D01*
X133994300Y-88840808D02*
X133994300Y-92890200D01*
X136343900Y-94316800D02*
X136393900Y-94366800D01*
X134250708Y-88584400D02*
X133994300Y-88840808D01*
X135096300Y-88584400D02*
X134250708Y-88584400D01*
X137647900Y-94366800D02*
X139594900Y-96313800D01*
X135420900Y-94316800D02*
X136343900Y-94316800D01*
X139594900Y-96313800D02*
X139594900Y-96672400D01*
%TO.N,/IMU_INT*%
X152292100Y-107365800D02*
X150143100Y-105216800D01*
X137020900Y-92163408D02*
X135941892Y-91084400D01*
X150143100Y-105216800D02*
X141770900Y-105216800D01*
X141770900Y-105216800D02*
X137020900Y-100466800D01*
X137020900Y-100466800D02*
X137020900Y-92163408D01*
X135941892Y-91084400D02*
X135096300Y-91084400D01*
%TO.N,/RESET*%
D49*
X139594900Y-96672400D02*
X139594900Y-99873900D01*
X139594900Y-99873900D02*
X139545200Y-99923600D01*
%TO.N,+5V*%
X147644900Y-90207000D02*
X147644900Y-91995900D01*
X147644900Y-91995900D02*
X148181200Y-92532200D01*
X147644900Y-90207000D02*
X147880700Y-90207000D01*
D51*
X149895900Y-70210209D02*
X150378900Y-70210209D01*
D49*
X150378900Y-70210209D02*
X151370900Y-71202209D01*
X151370900Y-71202209D02*
X151370900Y-73864400D01*
%TO.N,+3.3V*%
X145020900Y-74516800D02*
X146770900Y-74516800D01*
D51*
X154837300Y-78957100D02*
X146780600Y-78957100D01*
X146780600Y-78957100D02*
X146770900Y-78966800D01*
D49*
X146770900Y-75739800D02*
X146770900Y-74516800D01*
%TO.N,VM*%
D51*
X154837300Y-75057100D02*
X155787299Y-75057100D01*
X155787299Y-75057100D02*
X156220900Y-75490701D01*
X156220900Y-75490701D02*
X156220900Y-81080140D01*
X155743940Y-81557100D02*
X154837300Y-81557100D01*
X156220900Y-81080140D02*
X155743940Y-81557100D01*
%TO.N,+3.3V*%
D52*
X153820900Y-73216800D02*
X154020900Y-73216800D01*
X141217700Y-71864400D02*
X142318500Y-71864400D01*
X142318500Y-71864400D02*
X143970900Y-73516800D01*
%TO.N,Vusb*%
D51*
X149895900Y-71710209D02*
X149818900Y-71787209D01*
%TO.N,+5V*%
D50*
X141116100Y-69490500D02*
X149176191Y-69490500D01*
X149176191Y-69490500D02*
X149895900Y-70210209D01*
%TO.N,5V_REG*%
X141217700Y-63203000D02*
X145020909Y-67006209D01*
X145020909Y-67006209D02*
X149691900Y-67006209D01*
X149691900Y-67006209D02*
X149895900Y-67210209D01*
%TO.N,/MD_STBY*%
D51*
X154837300Y-78307100D02*
X154791300Y-78261100D01*
X154791300Y-78261100D02*
X132826600Y-78261100D01*
X132826600Y-78261100D02*
X131671300Y-79416400D01*
X131671300Y-79416400D02*
X131671300Y-82159400D01*
%TO.N,+3.3V*%
X132171300Y-82159400D02*
X132171300Y-80828900D01*
X132171300Y-80828900D02*
X133033400Y-79966800D01*
%TO.N,/MD_PWMB*%
X131171300Y-82159400D02*
X131171300Y-78966400D01*
X131171300Y-78966400D02*
X132670900Y-77466800D01*
X132670900Y-77466800D02*
X150753600Y-77466800D01*
X150753600Y-77466800D02*
X150920900Y-77634100D01*
%TO.N,/MD_BIN1*%
X154837300Y-77007100D02*
X154747000Y-76916800D01*
X154747000Y-76916800D02*
X132320900Y-76916800D01*
X132320900Y-76916800D02*
X130671300Y-78566400D01*
X130671300Y-78566400D02*
X130671300Y-82159400D01*
%TO.N,/MD_BIN2*%
X154837300Y-76357100D02*
X154827600Y-76366800D01*
X154827600Y-76366800D02*
X132070900Y-76366800D01*
X132070900Y-76366800D02*
X130171300Y-78266400D01*
X130171300Y-78266400D02*
X130171300Y-82159400D01*
%TO.N,/MD_PWMB*%
X152770900Y-75716800D02*
X152784200Y-75730100D01*
X152784200Y-75730100D02*
X154814300Y-75730100D01*
X154814300Y-75730100D02*
X154837300Y-75707100D01*
%TO.N,+3.3V*%
D52*
X141217700Y-72098767D02*
X141217700Y-71864400D01*
%TO.N,/MD_BO1*%
D49*
X161837300Y-74407100D02*
X161837300Y-75057100D01*
X161837300Y-74407100D02*
X158794500Y-71364300D01*
X158794500Y-71364300D02*
X158794500Y-60731400D01*
%TO.N,/MD_BO2*%
D51*
X162787299Y-77007100D02*
X161837300Y-77007100D01*
%TO.N,/IMU_INT*%
X152292100Y-107365800D02*
X152292100Y-106648712D01*
%TO.N,VM*%
D50*
X155977800Y-87079300D02*
X155977800Y-84250600D01*
X155977800Y-84250600D02*
X155445600Y-83718400D01*
%TO.N,/MD_AIN1*%
D51*
X154837300Y-79607100D02*
X139130600Y-79607100D01*
X139130600Y-79607100D02*
X136578300Y-82159400D01*
X136578300Y-82159400D02*
X133171300Y-82159400D01*
%TO.N,/MD_AIN2*%
X135096300Y-84084400D02*
X135703300Y-84084400D01*
X135703300Y-84084400D02*
X139530600Y-80257100D01*
X139530600Y-80257100D02*
X154837300Y-80257100D01*
%TO.N,/MD_PWMA*%
X135096300Y-84584400D02*
X136211247Y-84584400D01*
X136211247Y-84584400D02*
X139888547Y-80907100D01*
X139888547Y-80907100D02*
X154837300Y-80907100D01*
%TO.N,/WS_DIN*%
X135096300Y-85084400D02*
X136353300Y-85084400D01*
X136353300Y-85084400D02*
X136570900Y-84866800D01*
X136570900Y-84866800D02*
X147204700Y-84866800D01*
X147204700Y-84866800D02*
X147644900Y-85307000D01*
%TO.N,+3.3V*%
X135096300Y-85584400D02*
X135113900Y-85566800D01*
X135113900Y-85566800D02*
X137118600Y-85566800D01*
X137118600Y-85566800D02*
X137483900Y-85932100D01*
%TO.N,/OSCIN*%
X140372700Y-90329600D02*
X139627500Y-89584400D01*
X139627500Y-89584400D02*
X135096300Y-89584400D01*
%TO.N,/OSCOUT*%
X135096300Y-89084400D02*
X139755900Y-89084400D01*
X139755900Y-89084400D02*
X140372700Y-88467600D01*
%TO.N,Net-(D5-A)*%
X127450900Y-62195200D02*
X127450900Y-60105400D01*
X127450900Y-60105400D02*
X127586900Y-59969400D01*
%TO.N,Net-(R2-~-Pad1)*%
X126146100Y-102184200D02*
X126146100Y-104384600D01*
X126146100Y-104384600D02*
X126155500Y-104394000D01*
%TO.N,+3.3V*%
X133171300Y-93509400D02*
X133171300Y-95657900D01*
X133171300Y-95657900D02*
X133398400Y-95885000D01*
%TO.N,/OSCIN*%
X144493400Y-90839500D02*
X143370700Y-89716800D01*
X143370700Y-89716800D02*
X140985500Y-89716800D01*
X140985500Y-89716800D02*
X140372700Y-90329600D01*
%TO.N,/OSCOUT*%
X140372700Y-88467600D02*
X142621500Y-88467600D01*
X142621500Y-88467600D02*
X142793400Y-88639500D01*
%TO.N,VM*%
X154837300Y-81557100D02*
X154837300Y-83110100D01*
X154837300Y-83110100D02*
X155445600Y-83718400D01*
%TO.N,/MD_AO1*%
X161837300Y-81557100D02*
X162311200Y-81557100D01*
D49*
X162311200Y-81557100D02*
X163470900Y-82716800D01*
X163470900Y-82716800D02*
X163470900Y-100406400D01*
X163470900Y-100406400D02*
X158916100Y-104961200D01*
%TO.N,/MD_AO2*%
D51*
X163231300Y-103156400D02*
X163220900Y-103156400D01*
D49*
X163220900Y-103156400D02*
X161416100Y-104961200D01*
%TO.N,Net-(F1-~-Pad1)*%
D51*
X104714000Y-82169000D02*
X104714000Y-87386308D01*
X104714000Y-87386308D02*
X105928700Y-88601008D01*
X107515900Y-92384400D02*
X106878678Y-92384400D01*
X106878678Y-92384400D02*
X105928700Y-91434422D01*
X105928700Y-91434422D02*
X105928700Y-88601008D01*
X105928700Y-88601008D02*
X106945308Y-87584400D01*
X106945308Y-87584400D02*
X107515900Y-87584400D01*
%TO.N,Net-(J3-CC2)*%
X110866600Y-93014800D02*
X109586200Y-91734400D01*
X109586200Y-91734400D02*
X107515900Y-91734400D01*
%TO.N,Net-(J3-CC1)*%
X107515900Y-88734400D02*
X109115800Y-88734400D01*
X109115800Y-88734400D02*
X110720900Y-87129300D01*
%TO.N,Net-(D2-A)*%
D50*
X113470900Y-80141800D02*
X111129900Y-80141800D01*
X111129900Y-80141800D02*
X111118700Y-80153000D01*
%TO.N,Vusb*%
X108989000Y-82169000D02*
X111102700Y-82169000D01*
X111102700Y-82169000D02*
X111118700Y-82153000D01*
%TO.N,+3.3V*%
X123789400Y-78917800D02*
X123789400Y-81127600D01*
D51*
X125671300Y-82159400D02*
X124821200Y-82159400D01*
X124821200Y-82159400D02*
X123789400Y-81127600D01*
%TO.N,/USER_LED*%
X128171300Y-82159400D02*
X128171300Y-75971200D01*
X128171300Y-75971200D02*
X127409500Y-75209400D01*
%TO.N,Net-(U1-VCAP1)*%
X126671300Y-82159400D02*
X126671300Y-80217100D01*
X126671300Y-80217100D02*
X126257100Y-79802900D01*
%TO.N,Net-(D4-A)*%
D50*
X125409500Y-75209400D02*
X123472100Y-75209400D01*
X123472100Y-75209400D02*
X123446700Y-75184000D01*
%TO.N,Net-(D3-A)*%
X127374700Y-70628000D02*
X125114500Y-70628000D01*
X125114500Y-70628000D02*
X125114100Y-70628400D01*
%TO.N,+3.3V*%
X127374700Y-72628000D02*
X129015900Y-72628000D01*
X129015900Y-72628000D02*
X129888900Y-71755000D01*
X138906300Y-71885900D02*
X136319800Y-71885900D01*
X136319800Y-71885900D02*
X136188900Y-71755000D01*
X141217700Y-71864400D02*
X138927800Y-71864400D01*
X138927800Y-71864400D02*
X138906300Y-71885900D01*
%TO.N,+5V*%
X138855500Y-69515900D02*
X136249800Y-69515900D01*
X136249800Y-69515900D02*
X136188900Y-69455000D01*
X141116100Y-69490500D02*
X138880900Y-69490500D01*
X138880900Y-69490500D02*
X138855500Y-69515900D01*
%TO.N,5V_REG*%
X127450900Y-64195200D02*
X128584100Y-64195200D01*
X128584100Y-64195200D02*
X129863500Y-62915800D01*
X138855500Y-63275300D02*
X141145400Y-63275300D01*
X141145400Y-63275300D02*
X141217700Y-63203000D01*
X136163500Y-62915800D02*
X138496000Y-62915800D01*
X138496000Y-62915800D02*
X138855500Y-63275300D01*
%TO.N,VM*%
X138804700Y-60041700D02*
X136737600Y-60041700D01*
X136737600Y-60041700D02*
X136163500Y-60615800D01*
X141243100Y-60067100D02*
X138830100Y-60067100D01*
X138830100Y-60067100D02*
X138804700Y-60041700D01*
X150499500Y-61442600D02*
X149045500Y-59988600D01*
X149045500Y-59988600D02*
X141321600Y-59988600D01*
X141321600Y-59988600D02*
X141243100Y-60067100D01*
X154837300Y-74407100D02*
X154837300Y-75053100D01*
X154837300Y-74407100D02*
X154837300Y-64633200D01*
X154837300Y-64633200D02*
X151646700Y-61442600D01*
X151646700Y-61442600D02*
X150499500Y-61442600D01*
%TO.N,/USB_D-*%
D53*
X106690900Y-90234400D02*
X107515900Y-90234400D01*
X107515900Y-89234400D02*
X110855800Y-89234400D01*
X110855800Y-89234400D02*
X111048000Y-89042200D01*
X106614100Y-89234400D02*
X106355700Y-89492800D01*
X106355700Y-89492800D02*
X106355700Y-89899200D01*
X107515900Y-89234400D02*
X106614100Y-89234400D01*
X106355700Y-89899200D02*
X106690900Y-90234400D01*
%TO.N,/USB_D+*%
X108465900Y-90001990D02*
X108465900Y-90566810D01*
X108298310Y-90734400D02*
X107515900Y-90734400D01*
X108198310Y-89734400D02*
X108465900Y-90001990D01*
X107515900Y-90734400D02*
X110840200Y-90734400D01*
X108465900Y-90566810D02*
X108298310Y-90734400D01*
X107515900Y-89734400D02*
X108198310Y-89734400D01*
X110840200Y-90734400D02*
X111048000Y-90942200D01*
%TO.N,/CONN_D+*%
X118018100Y-91006997D02*
X117228303Y-90217200D01*
X118018100Y-91033600D02*
X118018100Y-91006997D01*
X115041751Y-90217200D02*
X117228303Y-90217200D01*
X113323000Y-90942200D02*
X114316751Y-90942200D01*
X114316751Y-90942200D02*
X115041751Y-90217200D01*
%TO.N,/CONN_D-*%
X118018100Y-88976200D02*
X118018100Y-88977403D01*
X115041751Y-89767200D02*
X117228303Y-89767200D01*
X118018100Y-88977403D02*
X117228303Y-89767200D01*
X114316751Y-89042200D02*
X115041751Y-89767200D01*
X113323000Y-89042200D02*
X114316751Y-89042200D01*
%TO.N,/ESD_D-*%
X120018100Y-88976200D02*
X120651300Y-89609400D01*
X120651300Y-89609400D02*
X122558799Y-89609400D01*
X122583799Y-89584400D02*
X123746300Y-89584400D01*
X122558799Y-89609400D02*
X122583799Y-89584400D01*
%TO.N,/ESD_D+*%
X122558799Y-90059400D02*
X121058283Y-90059400D01*
X122583799Y-90084400D02*
X122558799Y-90059400D01*
X120018100Y-91033600D02*
X120084083Y-91033600D01*
X120084083Y-91033600D02*
X121058283Y-90059400D01*
X123746300Y-90084400D02*
X122583799Y-90084400D01*
%TD*%
%TA.AperFunction,Conductor*%
%TO.N,VM*%
G36*
X152717739Y-58407485D02*
G01*
X152763494Y-58460289D01*
X152774700Y-58511800D01*
X152774700Y-62766400D01*
X152755015Y-62833439D01*
X152702211Y-62879194D01*
X152650700Y-62890400D01*
X149595535Y-62890400D01*
X149528496Y-62870715D01*
X149482741Y-62817911D01*
X149471541Y-62767570D01*
X149460239Y-61569600D01*
X149447300Y-60198000D01*
X149142500Y-59969400D01*
X149142501Y-59969400D01*
X148207032Y-59956842D01*
X148189300Y-59955326D01*
X148105792Y-59942100D01*
X148105787Y-59942100D01*
X147893213Y-59942100D01*
X147879332Y-59944298D01*
X147842385Y-59950150D01*
X147821324Y-59951665D01*
X145357900Y-59918599D01*
X142363284Y-61554314D01*
X142303411Y-61569489D01*
X135142240Y-61544624D01*
X135075270Y-61524707D01*
X135029698Y-61471745D01*
X135018679Y-61422071D01*
X134998857Y-59717299D01*
X134996159Y-59485242D01*
X135015063Y-59417978D01*
X135067332Y-59371612D01*
X135120151Y-59359800D01*
X138083870Y-59359800D01*
X138150909Y-59379485D01*
X138186972Y-59414908D01*
X138195113Y-59427092D01*
X138306607Y-59538586D01*
X138306611Y-59538589D01*
X138437714Y-59626190D01*
X138437727Y-59626197D01*
X138583398Y-59686535D01*
X138583403Y-59686537D01*
X138738053Y-59717299D01*
X138738056Y-59717300D01*
X138738058Y-59717300D01*
X138895744Y-59717300D01*
X138895745Y-59717299D01*
X139050397Y-59686537D01*
X139196079Y-59626194D01*
X139327189Y-59538589D01*
X139438689Y-59427089D01*
X139446828Y-59414907D01*
X139500441Y-59370104D01*
X139549930Y-59359800D01*
X140537870Y-59359800D01*
X140604909Y-59379485D01*
X140640972Y-59414908D01*
X140649113Y-59427092D01*
X140760607Y-59538586D01*
X140760611Y-59538589D01*
X140891714Y-59626190D01*
X140891727Y-59626197D01*
X141037398Y-59686535D01*
X141037403Y-59686537D01*
X141192053Y-59717299D01*
X141192056Y-59717300D01*
X141192058Y-59717300D01*
X141349744Y-59717300D01*
X141349745Y-59717299D01*
X141504397Y-59686537D01*
X141650079Y-59626194D01*
X141781189Y-59538589D01*
X141892689Y-59427089D01*
X141900828Y-59414907D01*
X141954441Y-59370104D01*
X142003930Y-59359800D01*
X142462300Y-59359800D01*
X144187663Y-58403349D01*
X144247783Y-58387800D01*
X152650700Y-58387800D01*
X152717739Y-58407485D01*
G37*
%TD.AperFunction*%
%TD*%
%TA.AperFunction,Conductor*%
%TO.N,GND*%
G36*
X142457352Y-73121062D02*
G01*
X142503275Y-73173720D01*
X142514635Y-73224040D01*
X142536342Y-74960620D01*
X142527867Y-74990874D01*
X142521186Y-75021594D01*
X142518113Y-75025698D01*
X142517497Y-75027900D01*
X142500035Y-75049849D01*
X142460407Y-75089479D01*
X142399085Y-75122966D01*
X142372724Y-75125800D01*
X141752267Y-75125800D01*
X141751102Y-75125795D01*
X141507291Y-75123502D01*
X134558734Y-75058155D01*
X134491883Y-75037840D01*
X134446626Y-74984608D01*
X134435900Y-74934160D01*
X134435900Y-73279562D01*
X134455585Y-73212523D01*
X134472212Y-73191887D01*
X134501346Y-73162753D01*
X134562665Y-73129270D01*
X134588628Y-73126437D01*
X142390250Y-73101591D01*
X142457352Y-73121062D01*
G37*
%TD.AperFunction*%
%TD*%
%TA.AperFunction,Conductor*%
%TO.N,5V_REG*%
G36*
X131399821Y-60810263D02*
G01*
X131424559Y-60815474D01*
X131449021Y-60823348D01*
X133775499Y-61849000D01*
X133775498Y-61849000D01*
X133804543Y-61849180D01*
X134646363Y-61854407D01*
X134713276Y-61874508D01*
X134727116Y-61884973D01*
X134800501Y-61949009D01*
X134931171Y-62009233D01*
X134998141Y-62029150D01*
X135140485Y-62050121D01*
X137737088Y-62059136D01*
X137804059Y-62079053D01*
X137849631Y-62132015D01*
X137860646Y-62184833D01*
X137841408Y-63589247D01*
X137835908Y-63624110D01*
X137831298Y-63639051D01*
X137792725Y-63697306D01*
X137790835Y-63698899D01*
X137736831Y-63725348D01*
X137730382Y-63726726D01*
X137705266Y-63729460D01*
X133877570Y-63753996D01*
X133877104Y-63753997D01*
X133877099Y-63753999D01*
X132019027Y-65091811D01*
X131987745Y-65108146D01*
X131958146Y-65118565D01*
X131916974Y-65125600D01*
X128735003Y-65125600D01*
X128700062Y-65120575D01*
X128685063Y-65116170D01*
X128626303Y-65078411D01*
X128624989Y-65076895D01*
X128597604Y-65022403D01*
X128596009Y-65015176D01*
X128593097Y-64989186D01*
X128592387Y-64868428D01*
X128580867Y-62910190D01*
X128582391Y-62890074D01*
X128585514Y-62870351D01*
X128590277Y-62850759D01*
X128640899Y-62697997D01*
X128651400Y-62595209D01*
X128651399Y-61795192D01*
X128640899Y-61692403D01*
X128585714Y-61525866D01*
X128585711Y-61525862D01*
X128584905Y-61523429D01*
X128581636Y-61511642D01*
X128575335Y-61483612D01*
X128572320Y-61457155D01*
X128569338Y-60950149D01*
X128574154Y-60915200D01*
X128578472Y-60900166D01*
X128615894Y-60841174D01*
X128617128Y-60840092D01*
X128672161Y-60812248D01*
X128680054Y-60810507D01*
X128706745Y-60807600D01*
X131374262Y-60807600D01*
X131399821Y-60810263D01*
G37*
%TD.AperFunction*%
%TD*%
%TA.AperFunction,Conductor*%
%TO.N,+3.3V*%
G36*
X130970888Y-69470703D02*
G01*
X130990975Y-69474069D01*
X131010893Y-69479134D01*
X134638314Y-70729970D01*
X134684101Y-70745829D01*
X134696248Y-70754483D01*
X134710556Y-70758685D01*
X134723787Y-70768487D01*
X134760370Y-70799557D01*
X134780331Y-70816510D01*
X134911794Y-70874982D01*
X134979025Y-70894002D01*
X134979026Y-70894002D01*
X134979053Y-70894005D01*
X134986625Y-70895056D01*
X134987201Y-70895095D01*
X134995147Y-70896157D01*
X135121638Y-70913067D01*
X137561875Y-70888905D01*
X137629103Y-70907925D01*
X137675379Y-70960273D01*
X137687100Y-71012899D01*
X137687100Y-72487460D01*
X137667415Y-72554499D01*
X137614611Y-72600254D01*
X137563495Y-72611459D01*
X134587036Y-72620939D01*
X134586986Y-72620941D01*
X134533798Y-72623919D01*
X134533786Y-72623920D01*
X134507863Y-72626749D01*
X134507847Y-72626751D01*
X134507840Y-72626752D01*
X134507832Y-72626753D01*
X134477514Y-72631690D01*
X134455209Y-72635323D01*
X134320403Y-72685604D01*
X134320402Y-72685604D01*
X134259081Y-72719088D01*
X134259070Y-72719096D01*
X134143914Y-72805302D01*
X134143893Y-72805320D01*
X134114777Y-72834436D01*
X134078589Y-72874726D01*
X134078574Y-72874743D01*
X134061959Y-72895366D01*
X134061954Y-72895372D01*
X134030332Y-72939226D01*
X133985288Y-73037857D01*
X133939532Y-73090660D01*
X133923379Y-73099422D01*
X132261750Y-73847156D01*
X132237317Y-73855224D01*
X132212581Y-73860625D01*
X132187008Y-73863476D01*
X129384870Y-73883349D01*
X129349901Y-73878574D01*
X129324756Y-73871384D01*
X129271165Y-73839843D01*
X128714880Y-73283557D01*
X128714879Y-73283556D01*
X128711390Y-73280067D01*
X128711388Y-73280065D01*
X128708594Y-73278198D01*
X128703075Y-73273493D01*
X128700473Y-73269515D01*
X128688373Y-73258645D01*
X128674920Y-73242547D01*
X128648670Y-73188297D01*
X128647301Y-73181719D01*
X128644700Y-73156454D01*
X128644700Y-69610829D01*
X128649723Y-69575893D01*
X128654127Y-69560895D01*
X128691872Y-69502144D01*
X128691900Y-69502119D01*
X128691899Y-69502119D01*
X128693241Y-69500956D01*
X128748120Y-69473477D01*
X128755679Y-69471833D01*
X128782032Y-69469000D01*
X130950407Y-69469000D01*
X130970888Y-69470703D01*
G37*
%TD.AperFunction*%
%TD*%
%TA.AperFunction,Conductor*%
%TO.N,+5V*%
G36*
X142633597Y-68498271D02*
G01*
X142679525Y-68550925D01*
X142690900Y-68602806D01*
X142690900Y-70209821D01*
X142671215Y-70276860D01*
X142618411Y-70322615D01*
X142568128Y-70333815D01*
X135116633Y-70407592D01*
X135049402Y-70388572D01*
X135003126Y-70336224D01*
X134991449Y-70286904D01*
X134947283Y-68630685D01*
X134965174Y-68563147D01*
X135016739Y-68516001D01*
X135070828Y-68503383D01*
X138131690Y-68493348D01*
X138171090Y-68499639D01*
X138227703Y-68518399D01*
X138330491Y-68528900D01*
X139380508Y-68528899D01*
X139380516Y-68528898D01*
X139380519Y-68528898D01*
X139404396Y-68526458D01*
X139483297Y-68518399D01*
X139554365Y-68494849D01*
X139592956Y-68488557D01*
X140446042Y-68485760D01*
X140485449Y-68492053D01*
X140488303Y-68492999D01*
X140591091Y-68503500D01*
X141641108Y-68503499D01*
X141641116Y-68503498D01*
X141641119Y-68503498D01*
X141678885Y-68499640D01*
X141743897Y-68492999D01*
X141760136Y-68487618D01*
X141798731Y-68481325D01*
X142566496Y-68478807D01*
X142633597Y-68498271D01*
G37*
%TD.AperFunction*%
%TD*%
%TA.AperFunction,Conductor*%
%TO.N,GND*%
G36*
X140286649Y-64157705D02*
G01*
X140319135Y-64166747D01*
X140350981Y-64180667D01*
X140423359Y-64225310D01*
X140423360Y-64225310D01*
X140423366Y-64225314D01*
X140589903Y-64280499D01*
X140692691Y-64291000D01*
X141169485Y-64290999D01*
X141171724Y-64291321D01*
X141204419Y-64296022D01*
X141229656Y-64303432D01*
X141282403Y-64334728D01*
X142183954Y-65236279D01*
X142205104Y-65264531D01*
X142217816Y-65287810D01*
X142232979Y-65346028D01*
X142257423Y-67849513D01*
X142238394Y-67916742D01*
X142186039Y-67963010D01*
X142133836Y-67974723D01*
X141797088Y-67975827D01*
X141797062Y-67975828D01*
X141717386Y-67982413D01*
X141717383Y-67982413D01*
X141678782Y-67988707D01*
X141678771Y-67988710D01*
X141667543Y-67991466D01*
X141650595Y-67994397D01*
X141621644Y-67997356D01*
X141609036Y-67997999D01*
X140623166Y-67997999D01*
X140610565Y-67997357D01*
X140596654Y-67995936D01*
X140565901Y-67992794D01*
X140558953Y-67991885D01*
X140525764Y-67986585D01*
X140525753Y-67986584D01*
X140444404Y-67980263D01*
X140444366Y-67980262D01*
X139591315Y-67983059D01*
X139591301Y-67983059D01*
X139591299Y-67983060D01*
X139591287Y-67983061D01*
X139511619Y-67989644D01*
X139511609Y-67989645D01*
X139473024Y-67995936D01*
X139473011Y-67995939D01*
X139395365Y-68015006D01*
X139389723Y-68016875D01*
X139363396Y-68022514D01*
X139361076Y-68022752D01*
X139348422Y-68023399D01*
X138362564Y-68023399D01*
X138349964Y-68022757D01*
X138345147Y-68022265D01*
X138328374Y-68019378D01*
X138250790Y-68000461D01*
X138250782Y-68000459D01*
X138211393Y-67994170D01*
X138130034Y-67987851D01*
X138130013Y-67987850D01*
X135069174Y-67997885D01*
X135069164Y-67997886D01*
X134955996Y-68011099D01*
X134955987Y-68011101D01*
X134907064Y-68022514D01*
X134901894Y-68023720D01*
X134862206Y-68037854D01*
X134821003Y-68045039D01*
X134475707Y-68046144D01*
X134475707Y-68046145D01*
X134475706Y-68046144D01*
X134475704Y-68046145D01*
X134440756Y-68041235D01*
X134425742Y-68036879D01*
X134366850Y-67999303D01*
X134365586Y-67997854D01*
X134337995Y-67943298D01*
X134336356Y-67935939D01*
X134333393Y-67909803D01*
X134333304Y-67896390D01*
X134310022Y-64380759D01*
X134329262Y-64313593D01*
X134381762Y-64267489D01*
X134433220Y-64255943D01*
X137708506Y-64234950D01*
X137759969Y-64231991D01*
X137785085Y-64229257D01*
X137836011Y-64221067D01*
X137842460Y-64219689D01*
X137846059Y-64218443D01*
X137915849Y-64215130D01*
X137951691Y-64230089D01*
X138061166Y-64297614D01*
X138227703Y-64352799D01*
X138330491Y-64363300D01*
X139380508Y-64363299D01*
X139380516Y-64363298D01*
X139380519Y-64363298D01*
X139380527Y-64363297D01*
X139380817Y-64363279D01*
X139381833Y-64363163D01*
X139426959Y-64358553D01*
X139436803Y-64357548D01*
X139436803Y-64357547D01*
X139483297Y-64352799D01*
X139649834Y-64297614D01*
X139799156Y-64205512D01*
X139799161Y-64205506D01*
X139804819Y-64201034D01*
X139804942Y-64201189D01*
X139827369Y-64184399D01*
X139834203Y-64180667D01*
X139850643Y-64171688D01*
X139908862Y-64156523D01*
X140252193Y-64153171D01*
X140286649Y-64157705D01*
G37*
%TD.AperFunction*%
%TD*%
M02*
